  0
SECTION
  2
HEADER
  9
$ACADVER
  1
AC1006
  9
$EXTMIN
 10
0.000000
 20
0.000000
 30
0.000000
  9
$EXTMAX
 10
1200.000000
 20
612.000000
 30
0.000000
  0
ENDSEC
  0
SECTION
  2
ENTITIES
  0
POLYLINE
  8
0
 66
1
 70
1
  0
VERTEX
  8
0
 10
35.739780
 20
606.017719
 42
0.007907
  0
VERTEX
  8
0
 10
32.576395
 20
605.566966
 42
0.003997
  0
VERTEX
  8
0
 10
28.604746
 20
604.904229
 42
0.003968
  0
VERTEX
  8
0
 10
24.512868
 20
604.154252
 42
0.005896
  0
VERTEX
  8
0
 10
20.943380
 20
603.426963
 42
0.012026
  0
VERTEX
  8
0
 10
16.093938
 20
602.256437
 42
0.057489
  0
VERTEX
  8
0
 10
13.449471
 20
601.213223
 42
0.067086
  0
VERTEX
  8
0
 10
11.306140
 20
599.668243
 42
0.019989
  0
VERTEX
  8
0
 10
8.485222
 20
596.772339
 42
0.061699
  0
VERTEX
  8
0
 10
4.433178
 20
590.963217
 42
0.135937
  0
VERTEX
  8
0
 10
3.284921
 20
585.720272
 42
0.126206
  0
VERTEX
  8
0
 10
4.972132
 20
580.374052
 42
0.049619
  0
VERTEX
  8
0
 10
9.718839
 20
574.206415
 42
0.000000
  0
VERTEX
  8
0
 10
12.937679
 20
570.786322
 42
0.000000
  0
VERTEX
  8
0
 10
21.218839
 20
571.643161
 42
-0.021390
  0
VERTEX
  8
0
 10
33.800186
 20
572.403082
 42
-0.008780
  0
VERTEX
  8
0
 10
50.902695
 20
572.402957
 42
-0.008337
  0
VERTEX
  8
0
 10
67.588891
 20
571.831371
 42
-0.031258
  0
VERTEX
  8
0
 10
78.000000
 20
570.645550
 42
-0.014817
  0
VERTEX
  8
0
 10
93.404248
 20
567.434058
 42
-0.017374
  0
VERTEX
  8
0
 10
107.784563
 20
563.455539
 42
-0.017136
  0
VERTEX
  8
0
 10
122.021966
 20
558.436448
 42
-0.013706
  0
VERTEX
  8
0
 10
137.000000
 20
552.093163
 42
-0.021341
  0
VERTEX
  8
0
 10
158.129811
 20
541.341556
 42
-0.016040
  0
VERTEX
  8
0
 10
180.430313
 20
527.808378
 42
-0.011924
  0
VERTEX
  8
0
 10
207.449996
 20
509.268879
 42
-0.004617
  0
VERTEX
  8
0
 10
244.017689
 20
482.356853
 42
0.002567
  0
VERTEX
  8
0
 10
271.636283
 20
461.855832
 42
0.006141
  0
VERTEX
  8
0
 10
292.390452
 20
447.003725
 42
0.008141
  0
VERTEX
  8
0
 10
309.037613
 20
435.795468
 42
0.013547
  0
VERTEX
  8
0
 10
323.458526
 20
426.969904
 42
0.010995
  0
VERTEX
  8
0
 10
334.844651
 20
420.747977
 42
0.008265
  0
VERTEX
  8
0
 10
347.625434
 20
414.390377
 42
0.008397
  0
VERTEX
  8
0
 10
360.156126
 20
408.669768
 42
0.014818
  0
VERTEX
  8
0
 10
370.709977
 20
404.431876
 42
-0.006547
  0
VERTEX
  8
0
 10
375.695907
 20
402.524925
 42
-0.029302
  0
VERTEX
  8
0
 10
378.528642
 20
401.201759
 42
-0.055990
  0
VERTEX
  8
0
 10
380.015228
 20
400.168426
 42
-0.354217
  0
VERTEX
  8
0
 10
380.160908
 20
399.323043
 42
-0.099564
  0
VERTEX
  8
0
 10
378.203641
 20
397.039805
 42
-0.013453
  0
VERTEX
  8
0
 10
373.103710
 20
393.268459
 42
-0.016602
  0
VERTEX
  8
0
 10
367.431587
 20
389.579476
 42
-0.029480
  0
VERTEX
  8
0
 10
362.500000
 20
386.983816
 42
-0.016836
  0
VERTEX
  8
0
 10
359.438948
 20
385.718827
 42
-0.006022
  0
VERTEX
  8
0
 10
354.994704
 20
384.115834
 42
-0.005967
  0
VERTEX
  8
0
 10
350.074552
 20
382.473385
 42
-0.007021
  0
VERTEX
  8
0
 10
345.375587
 20
381.039292
 42
0.016726
  0
VERTEX
  8
0
 10
336.054646
 20
377.995665
 42
0.040151
  0
VERTEX
  8
0
 10
329.452732
 20
374.973260
 42
0.054610
  0
VERTEX
  8
0
 10
324.797118
 20
371.658721
 42
0.078384
  0
VERTEX
  8
0
 10
321.593273
 20
367.749370
 42
0.069882
  0
VERTEX
  8
0
 10
319.224734
 20
361.996344
 42
0.117621
  0
VERTEX
  8
0
 10
319.137197
 20
356.802114
 42
0.104812
  0
VERTEX
  8
0
 10
321.446081
 20
351.716501
 42
0.047797
  0
VERTEX
  8
0
 10
326.339307
 20
346.254887
 42
0.036050
  0
VERTEX
  8
0
 10
330.515468
 20
342.928302
 42
0.026102
  0
VERTEX
  8
0
 10
335.593339
 20
339.826329
 42
0.016399
  0
VERTEX
  8
0
 10
342.915803
 20
336.167421
 42
0.004197
  0
VERTEX
  8
0
 10
355.000000
 20
330.738990
 42
0.011555
  0
VERTEX
  8
0
 10
365.362754
 20
326.470852
 42
0.033142
  0
VERTEX
  8
0
 10
372.792432
 20
324.161745
 42
0.038710
  0
VERTEX
  8
0
 10
379.793758
 20
323.048471
 42
0.021060
  0
VERTEX
  8
0
 10
388.500000
 20
322.715798
 42
0.036280
  0
VERTEX
  8
0
 10
401.792703
 20
323.734010
 42
0.029242
  0
VERTEX
  8
0
 10
415.816199
 20
326.685569
 42
0.026489
  0
VERTEX
  8
0
 10
430.739168
 20
331.612307
 42
0.019367
  0
VERTEX
  8
0
 10
446.742608
 20
338.578838
 42
-0.006040
  0
VERTEX
  8
0
 10
451.185531
 20
340.655436
 42
-0.008296
  0
VERTEX
  8
0
 10
455.232757
 20
342.407534
 42
-0.005686
  0
VERTEX
  8
0
 10
458.648604
 20
343.774209
 42
-0.092568
  0
VERTEX
  8
0
 10
459.857750
 20
344.000000
 42
-0.078481
  0
VERTEX
  8
0
 10
460.759160
 20
343.857636
 42
-0.029435
  0
VERTEX
  8
0
 10
461.954216
 20
343.391180
 42
-0.028287
  0
VERTEX
  8
0
 10
463.218795
 20
342.720648
 42
-0.030612
  0
VERTEX
  8
0
 10
464.365141
 20
341.927420
 42
-0.059240
  0
VERTEX
  8
0
 10
465.859462
 20
340.434712
 42
-0.107145
  0
VERTEX
  8
0
 10
466.614641
 20
338.887681
 42
-0.053753
  0
VERTEX
  8
0
 10
466.933310
 20
336.510206
 42
-0.006368
  0
VERTEX
  8
0
 10
467.003195
 20
331.177420
 42
0.031838
  0
VERTEX
  8
0
 10
467.765799
 20
319.282078
 42
0.023357
  0
VERTEX
  8
0
 10
470.060235
 20
306.258109
 42
0.021306
  0
VERTEX
  8
0
 10
473.843042
 20
292.246646
 42
0.016604
  0
VERTEX
  8
0
 10
479.096658
 20
277.371369
 42
0.013610
  0
VERTEX
  8
0
 10
481.505096
 20
271.673690
 42
0.002584
  0
VERTEX
  8
0
 10
486.226697
 20
261.440968
 42
0.002757
  0
VERTEX
  8
0
 10
491.869307
 20
249.547822
 42
0.002529
  0
VERTEX
  8
0
 10
497.805843
 20
237.369276
 42
-0.002668
  0
VERTEX
  8
0
 10
503.765739
 20
225.134125
 42
-0.002829
  0
VERTEX
  8
0
 10
509.478658
 20
213.070910
 42
-0.002696
  0
VERTEX
  8
0
 10
514.283660
 20
202.628074
 42
-0.012945
  0
VERTEX
  8
0
 10
516.833901
 20
196.595525
 42
-0.023086
  0
VERTEX
  8
0
 10
522.724617
 20
179.279583
 42
-0.029341
  0
VERTEX
  8
0
 10
526.458975
 20
162.818280
 42
-0.032699
  0
VERTEX
  8
0
 10
527.938989
 20
147.923843
 42
-0.054596
  0
VERTEX
  8
0
 10
526.990935
 20
135.376739
 42
-0.019343
  0
VERTEX
  8
0
 10
526.152530
 20
131.682701
 42
-0.004757
  0
VERTEX
  8
0
 10
524.483421
 20
125.683864
 42
-0.004863
  0
VERTEX
  8
0
 10
522.437713
 20
118.843893
 42
-0.004845
  0
VERTEX
  8
0
 10
520.256874
 20
112.036415
 42
0.007804
  0
VERTEX
  8
0
 10
514.582719
 20
93.957039
 42
0.040511
  0
VERTEX
  8
0
 10
512.428724
 20
83.727097
 42
0.077193
  0
VERTEX
  8
0
 10
512.621659
 20
76.721334
 42
0.101196
  0
VERTEX
  8
0
 10
515.010223
 20
70.798282
 42
-0.035059
  0
VERTEX
  8
0
 10
517.621195
 20
66.184086
 42
-0.027430
  0
VERTEX
  8
0
 10
519.809634
 20
60.860157
 42
-0.024879
  0
VERTEX
  8
0
 10
521.588468
 20
54.797710
 42
-0.018502
  0
VERTEX
  8
0
 10
522.965390
 20
47.958065
 42
0.034066
  0
VERTEX
  8
0
 10
524.332352
 20
42.113766
 42
0.053277
  0
VERTEX
  8
0
 10
526.362453
 20
37.369446
 42
0.044817
  0
VERTEX
  8
0
 10
529.614237
 20
32.619930
 42
0.017163
  0
VERTEX
  8
0
 10
534.924484
 20
26.617066
 42
0.046585
  0
VERTEX
  8
0
 10
548.343727
 20
14.868381
 42
0.077229
  0
VERTEX
  8
0
 10
561.717435
 20
8.043576
 42
0.062869
  0
VERTEX
  8
0
 10
578.418855
 20
4.794469
 42
0.021811
  0
VERTEX
  8
0
 10
603.000000
 20
4.230149
 42
0.014454
  0
VERTEX
  8
0
 10
622.392899
 20
5.192178
 42
0.047999
  0
VERTEX
  8
0
 10
634.953879
 20
7.405266
 42
0.063178
  0
VERTEX
  8
0
 10
644.932378
 20
11.583125
 42
0.040773
  0
VERTEX
  8
0
 10
655.258126
 20
18.711181
 42
0.017101
  0
VERTEX
  8
0
 10
658.285489
 20
21.365832
 42
0.009647
  0
VERTEX
  8
0
 10
661.780542
 20
24.777932
 42
0.009621
  0
VERTEX
  8
0
 10
665.177807
 20
28.360379
 42
0.015546
  0
VERTEX
  8
0
 10
667.911738
 20
31.550504
 42
0.011317
  0
VERTEX
  8
0
 10
671.216698
 20
35.854747
 42
0.042836
  0
VERTEX
  8
0
 10
672.979677
 20
38.752520
 42
0.051567
  0
VERTEX
  8
0
 10
674.055698
 20
41.629490
 42
0.021845
  0
VERTEX
  8
0
 10
674.920342
 20
45.662853
 42
-0.013312
  0
VERTEX
  8
0
 10
676.414398
 20
53.262690
 42
-0.024382
  0
VERTEX
  8
0
 10
678.094937
 20
59.346942
 42
-0.028346
  0
VERTEX
  8
0
 10
680.148657
 20
64.565549
 42
-0.028854
  0
VERTEX
  8
0
 10
682.768891
 20
69.486388
 42
0.077637
  0
VERTEX
  8
0
 10
685.600174
 20
76.334887
 42
0.089365
  0
VERTEX
  8
0
 10
686.015238
 20
83.385778
 42
0.043137
  0
VERTEX
  8
0
 10
683.882964
 20
93.606246
 42
0.005966
  0
VERTEX
  8
0
 10
677.387026
 20
114.324457
 42
-0.019265
  0
VERTEX
  8
0
 10
672.281085
 20
132.267438
 42
-0.047921
  0
VERTEX
  8
0
 10
670.338794
 20
145.762661
 42
-0.050998
  0
VERTEX
  8
0
 10
671.057313
 20
158.877331
 42
-0.024395
  0
VERTEX
  8
0
 10
674.503014
 20
175.414626
 42
-0.019490
  0
VERTEX
  8
0
 10
677.850917
 20
186.505006
 42
-0.016679
  0
VERTEX
  8
0
 10
682.212571
 20
197.902017
 42
-0.010894
  0
VERTEX
  8
0
 10
688.834551
 20
212.704673
 42
-0.002900
  0
VERTEX
  8
0
 10
700.036813
 20
236.000000
 42
0.003332
  0
VERTEX
  8
0
 10
711.025129
 20
258.901069
 42
0.010086
  0
VERTEX
  8
0
 10
718.084886
 20
274.687068
 42
0.014376
  0
VERTEX
  8
0
 10
722.928890
 20
287.116466
 42
0.019044
  0
VERTEX
  8
0
 10
726.572546
 20
298.699027
 42
0.018831
  0
VERTEX
  8
0
 10
728.551691
 20
307.188494
 42
0.011067
  0
VERTEX
  8
0
 10
730.308048
 20
317.466631
 42
0.011041
  0
VERTEX
  8
0
 10
731.572141
 20
327.523836
 42
0.024886
  0
VERTEX
  8
0
 10
731.980477
 20
335.193296
 42
-0.014421
  0
VERTEX
  8
0
 10
732.080065
 20
338.278392
 42
-0.059773
  0
VERTEX
  8
0
 10
732.414141
 20
340.108951
 42
-0.093605
  0
VERTEX
  8
0
 10
733.082234
 20
341.371870
 42
-0.071756
  0
VERTEX
  8
0
 10
734.222506
 20
342.443296
 42
-0.095566
  0
VERTEX
  8
0
 10
736.868336
 20
343.626306
 42
-0.105536
  0
VERTEX
  8
0
 10
739.668520
 20
343.681227
 42
-0.056532
  0
VERTEX
  8
0
 10
743.499537
 20
342.480915
 42
-0.010702
  0
VERTEX
  8
0
 10
750.141325
 20
339.370521
 42
0.031073
  0
VERTEX
  8
0
 10
774.027316
 20
329.349022
 42
0.045024
  0
VERTEX
  8
0
 10
796.207052
 20
323.800393
 42
0.052174
  0
VERTEX
  8
0
 10
816.119469
 20
322.786079
 42
0.077075
  0
VERTEX
  8
0
 10
833.208289
 20
326.378491
 42
0.012680
  0
VERTEX
  8
0
 10
842.972880
 20
330.351313
 42
0.008273
  0
VERTEX
  8
0
 10
854.040210
 20
335.404413
 42
0.007244
  0
VERTEX
  8
0
 10
864.117928
 20
340.389193
 42
0.039347
  0
VERTEX
  8
0
 10
869.302218
 20
343.585470
 42
0.027451
  0
VERTEX
  8
0
 10
871.360616
 20
345.270638
 42
0.017312
  0
VERTEX
  8
0
 10
873.578864
 20
347.445559
 42
0.017375
  0
VERTEX
  8
0
 10
875.617482
 20
349.742468
 42
0.030335
  0
VERTEX
  8
0
 10
877.117472
 20
351.797611
 42
0.018230
  0
VERTEX
  8
0
 10
878.683817
 20
354.450305
 42
0.057067
  0
VERTEX
  8
0
 10
879.456509
 20
356.368611
 42
0.069086
  0
VERTEX
  8
0
 10
879.698089
 20
358.202849
 42
0.036528
  0
VERTEX
  8
0
 10
879.514275
 20
360.494902
 42
0.086111
  0
VERTEX
  8
0
 10
877.394218
 20
366.790036
 42
0.086530
  0
VERTEX
  8
0
 10
873.279903
 20
371.990951
 42
0.071732
  0
VERTEX
  8
0
 10
866.942473
 20
376.194605
 42
0.038929
  0
VERTEX
  8
0
 10
858.190684
 20
379.535194
 42
-0.003056
  0
VERTEX
  8
0
 10
854.317557
 20
380.703343
 42
-0.001979
  0
VERTEX
  8
0
 10
849.849764
 20
382.100076
 42
-0.001989
  0
VERTEX
  8
0
 10
845.495533
 20
383.499328
 42
-0.003765
  0
VERTEX
  8
0
 10
842.000000
 20
384.667182
 42
-0.037815
  0
VERTEX
  8
0
 10
833.538662
 20
388.300211
 42
-0.030965
  0
VERTEX
  8
0
 10
825.109096
 20
393.388376
 42
-0.027107
  0
VERTEX
  8
0
 10
818.586165
 20
398.442291
 42
-0.453935
  0
VERTEX
  8
0
 10
818.573629
 20
400.865874
 42
-0.080651
  0
VERTEX
  8
0
 10
819.267312
 20
401.303462
 42
-0.004741
  0
VERTEX
  8
0
 10
821.577878
 20
402.259550
 42
-0.007066
  0
VERTEX
  8
0
 10
824.368074
 20
403.337667
 42
-0.005141
  0
VERTEX
  8
0
 10
827.500000
 20
404.460758
 42
0.024667
  0
VERTEX
  8
0
 10
845.999230
 20
411.921613
 42
0.016946
  0
VERTEX
  8
0
 10
866.205839
 20
422.098744
 42
0.015498
  0
VERTEX
  8
0
 10
887.674726
 20
434.719529
 42
0.012416
  0
VERTEX
  8
0
 10
910.000000
 20
449.579501
 42
0.004813
  0
VERTEX
  8
0
 10
916.906700
 20
454.528301
 42
0.001032
  0
VERTEX
  8
0
 10
928.786760
 20
463.252565
 42
0.001078
  0
VERTEX
  8
0
 10
942.505742
 20
473.416654
 42
0.001028
  0
VERTEX
  8
0
 10
956.401735
 20
483.802810
 42
-0.004013
  0
VERTEX
  8
0
 10
989.469835
 20
508.212236
 42
-0.010606
  0
VERTEX
  8
0
 10
1013.636129
 20
524.981941
 42
-0.014133
  0
VERTEX
  8
0
 10
1033.870876
 20
537.588305
 42
-0.016174
  0
VERTEX
  8
0
 10
1053.909281
 20
548.445870
 42
-0.032060
  0
VERTEX
  8
0
 10
1083.767889
 20
561.073832
 42
-0.035842
  0
VERTEX
  8
0
 10
1113.914129
 20
569.234283
 42
-0.036895
  0
VERTEX
  8
0
 10
1144.100894
 20
572.841994
 42
-0.038407
  0
VERTEX
  8
0
 10
1174.081312
 20
571.894738
 42
0.004761
  0
VERTEX
  8
0
 10
1180.271269
 20
571.280920
 42
0.038858
  0
VERTEX
  8
0
 10
1183.111690
 20
571.247854
 42
0.081313
  0
VERTEX
  8
0
 10
1185.010163
 20
571.688978
 42
0.062025
  0
VERTEX
  8
0
 10
1186.870530
 20
572.740528
 42
0.053789
  0
VERTEX
  8
0
 10
1189.910034
 20
575.548552
 42
0.043495
  0
VERTEX
  8
0
 10
1192.530592
 20
579.138545
 42
0.045259
  0
VERTEX
  8
0
 10
1194.355201
 20
582.885491
 42
0.088623
  0
VERTEX
  8
0
 10
1194.966779
 20
586.136986
 42
0.102209
  0
VERTEX
  8
0
 10
1194.209164
 20
589.981393
 42
0.047185
  0
VERTEX
  8
0
 10
1191.787471
 20
594.493471
 42
0.046805
  0
VERTEX
  8
0
 10
1188.485734
 20
598.572884
 42
0.082758
  0
VERTEX
  8
0
 10
1185.000000
 20
601.123421
 42
0.083782
  0
VERTEX
  8
0
 10
1174.288440
 20
604.429586
 42
0.017622
  0
VERTEX
  8
0
 10
1154.713654
 20
606.333575
 42
0.019036
  0
VERTEX
  8
0
 10
1132.916367
 20
606.849284
 42
0.024795
  0
VERTEX
  8
0
 10
1113.000000
 20
605.573052
 42
0.019447
  0
VERTEX
  8
0
 10
1086.328509
 20
601.474885
 42
0.020129
  0
VERTEX
  8
0
 10
1060.364756
 20
595.351760
 42
0.019702
  0
VERTEX
  8
0
 10
1034.469263
 20
587.020974
 42
0.017035
  0
VERTEX
  8
0
 10
1008.000000
 20
576.303819
 42
0.011977
  0
VERTEX
  8
0
 10
986.976027
 20
566.335856
 42
0.010074
  0
VERTEX
  8
0
 10
965.188993
 20
554.803432
 42
0.007298
  0
VERTEX
  8
0
 10
938.212676
 20
539.301435
 42
0.002536
  0
VERTEX
  8
0
 10
899.774197
 20
516.195447
 42
-0.001659
  0
VERTEX
  8
0
 10
875.401557
 20
501.486383
 42
-0.003033
  0
VERTEX
  8
0
 10
855.409907
 20
489.675741
 42
-0.003513
  0
VERTEX
  8
0
 10
839.612839
 20
480.620037
 42
-0.012207
  0
VERTEX
  8
0
 10
829.222510
 20
475.090217
 42
-0.041308
  0
VERTEX
  8
0
 10
812.770530
 20
468.478989
 42
-0.027160
  0
VERTEX
  8
0
 10
792.961886
 20
463.521661
 42
-0.026733
  0
VERTEX
  8
0
 10
772.234889
 20
460.654373
 42
-0.034176
  0
VERTEX
  8
0
 10
752.966272
 20
460.352137
 42
-0.022733
  0
VERTEX
  8
0
 10
738.087976
 20
461.816411
 42
-0.029110
  0
VERTEX
  8
0
 10
724.604848
 20
464.574343
 42
-0.029917
  0
VERTEX
  8
0
 10
711.836925
 20
468.802426
 42
-0.026442
  0
VERTEX
  8
0
 10
699.110738
 20
474.677019
 42
0.009061
  0
VERTEX
  8
0
 10
693.538416
 20
477.488114
 42
0.054224
  0
VERTEX
  8
0
 10
690.478452
 20
478.573146
 42
0.054456
  0
VERTEX
  8
0
 10
687.262044
 20
478.972766
 42
0.009185
  0
VERTEX
  8
0
 10
681.055214
 20
478.950645
 42
-0.010207
  0
VERTEX
  8
0
 10
676.309789
 20
478.943436
 42
-0.021746
  0
VERTEX
  8
0
 10
672.648463
 20
479.172128
 42
-0.027528
  0
VERTEX
  8
0
 10
669.660646
 20
479.657084
 42
-0.036905
  0
VERTEX
  8
0
 10
667.031608
 20
480.440838
 42
0.050820
  0
VERTEX
  8
0
 10
663.300059
 20
481.441301
 42
0.067334
  0
VERTEX
  8
0
 10
659.788573
 20
481.532379
 42
0.064415
  0
VERTEX
  8
0
 10
656.261829
 20
480.679834
 42
0.041826
  0
VERTEX
  8
0
 10
652.479111
 20
478.855174
 42
-0.076273
  0
VERTEX
  8
0
 10
648.008196
 20
477.065314
 42
-0.047651
  0
VERTEX
  8
0
 10
642.406585
 20
476.314080
 42
-0.038993
  0
VERTEX
  8
0
 10
635.633575
 20
476.584197
 42
-0.022596
  0
VERTEX
  8
0
 10
627.590704
 20
477.906831
 42
0.018365
  0
VERTEX
  8
0
 10
619.624160
 20
479.286206
 42
0.026694
  0
VERTEX
  8
0
 10
612.516281
 20
479.865671
 42
0.030661
  0
VERTEX
  8
0
 10
606.619379
 20
479.669033
 42
0.078801
  0
VERTEX
  8
0
 10
602.500000
 20
478.608778
 42
-0.035324
  0
VERTEX
  8
0
 10
600.776437
 20
478.001855
 42
-0.068737
  0
VERTEX
  8
0
 10
599.333142
 20
477.812139
 42
-0.060241
  0
VERTEX
  8
0
 10
597.771315
 20
478.011400
 42
-0.021766
  0
VERTEX
  8
0
 10
595.624273
 20
478.653882
 42
0.057228
  0
VERTEX
  8
0
 10
590.986790
 20
479.690687
 42
0.033884
  0
VERTEX
  8
0
 10
585.315221
 20
479.905629
 42
0.028683
  0
VERTEX
  8
0
 10
578.645411
 20
479.322465
 42
0.018084
  0
VERTEX
  8
0
 10
570.953180
 20
477.916951
 42
-0.022786
  0
VERTEX
  8
0
 10
562.995799
 20
476.540170
 42
-0.041986
  0
VERTEX
  8
0
 10
556.436869
 20
476.265616
 42
-0.050839
  0
VERTEX
  8
0
 10
550.867965
 20
477.071298
 42
-0.061348
  0
VERTEX
  8
0
 10
545.939850
 20
478.970330
 42
0.060438
  0
VERTEX
  8
0
 10
541.639808
 20
480.636298
 42
0.049722
  0
VERTEX
  8
0
 10
536.769613
 20
481.370029
 42
0.052264
  0
VERTEX
  8
0
 10
532.202754
 20
481.121977
 42
0.105728
  0
VERTEX
  8
0
 10
528.860153
 20
479.827938
 42
-0.073381
  0
VERTEX
  8
0
 10
527.185613
 20
479.052773
 42
-0.048290
  0
VERTEX
  8
0
 10
525.097136
 20
478.649960
 42
-0.029856
  0
VERTEX
  8
0
 10
522.119699
 20
478.547687
 42
-0.007900
  0
VERTEX
  8
0
 10
517.362273
 20
478.743599
 42
0.000000
  0
VERTEX
  8
0
 10
508.307267
 20
479.259892
 42
0.000000
  0
VERTEX
  8
0
 10
495.903633
 20
473.128999
 42
-0.045977
  0
VERTEX
  8
0
 10
474.563608
 20
464.921303
 42
-0.045011
  0
VERTEX
  8
0
 10
451.930321
 20
460.678130
 42
-0.042705
  0
VERTEX
  8
0
 10
427.823963
 20
460.436947
 42
-0.034097
  0
VERTEX
  8
0
 10
402.091828
 20
464.155604
 42
-0.033928
  0
VERTEX
  8
0
 10
383.311949
 20
469.546016
 42
-0.031994
  0
VERTEX
  8
0
 10
365.048155
 20
477.512540
 42
-0.015370
  0
VERTEX
  8
0
 10
339.015115
 20
491.938491
 42
-0.001992
  0
VERTEX
  8
0
 10
284.500000
 20
524.671139
 42
0.001969
  0
VERTEX
  8
0
 10
259.466570
 20
539.703557
 42
0.004984
  0
VERTEX
  8
0
 10
241.116936
 20
550.378058
 42
0.006446
  0
VERTEX
  8
0
 10
225.684940
 20
558.889258
 42
0.006735
  0
VERTEX
  8
0
 10
210.261393
 20
566.873035
 42
0.016264
  0
VERTEX
  8
0
 10
180.534054
 20
580.566439
 42
0.021022
  0
VERTEX
  8
0
 10
152.391626
 20
591.066204
 42
0.021713
  0
VERTEX
  8
0
 10
124.239912
 20
598.907204
 42
0.019522
  0
VERTEX
  8
0
 10
94.500000
 20
604.601629
 42
0.025107
  0
VERTEX
  8
0
 10
83.059429
 20
605.748850
 42
0.006411
  0
VERTEX
  8
0
 10
64.443840
 20
606.436390
 42
0.006034
  0
VERTEX
  8
0
 10
45.926123
 20
606.659112
 42
0.031431
  0
SEQEND
  0
ENDSEC
  0
EOF
