  0
SECTION
  2
HEADER
  9
$ACADVER
  1
AC1006
  9
$EXTMIN
 10
0.000000
 20
0.000000
 30
0.000000
  9
$EXTMAX
 10
1200.000000
 20
921.000000
 30
0.000000
  0
ENDSEC
  0
SECTION
  2
ENTITIES
  0
POLYLINE
  8
0
 66
1
 70
1
  0
VERTEX
  8
0
 10
18.000000
 20
865.069026
 42
0.060721
  0
VERTEX
  8
0
 10
19.017886
 20
856.718219
 42
0.023563
  0
VERTEX
  8
0
 10
22.350625
 20
845.537871
 42
0.022466
  0
VERTEX
  8
0
 10
27.231217
 20
833.380092
 42
0.022707
  0
VERTEX
  8
0
 10
33.167445
 20
821.753698
 42
0.050132
  0
VERTEX
  8
0
 10
50.099314
 20
797.919103
 42
0.043970
  0
VERTEX
  8
0
 10
72.138939
 20
776.757938
 42
0.043040
  0
VERTEX
  8
0
 10
98.054691
 20
759.362453
 42
0.043377
  0
VERTEX
  8
0
 10
126.500000
 20
746.713082
 42
0.020982
  0
VERTEX
  8
0
 10
145.783197
 20
740.963501
 42
0.025308
  0
VERTEX
  8
0
 10
164.316549
 20
737.260388
 42
0.023204
  0
VERTEX
  8
0
 10
184.399747
 20
735.241156
 42
0.013698
  0
VERTEX
  8
0
 10
208.500000
 20
734.604459
 42
0.004135
  0
VERTEX
  8
0
 10
223.686608
 20
734.744956
 42
0.010589
  0
VERTEX
  8
0
 10
234.672844
 20
735.170312
 42
0.010324
  0
VERTEX
  8
0
 10
245.789399
 20
736.067371
 42
0.003759
  0
VERTEX
  8
0
 10
261.500000
 20
737.781629
 42
-0.003572
  0
VERTEX
  8
0
 10
285.873886
 20
740.450383
 42
-0.008726
  0
VERTEX
  8
0
 10
303.864985
 20
741.973558
 42
-0.010095
  0
VERTEX
  8
0
 10
320.270758
 20
742.742213
 42
-0.006612
  0
VERTEX
  8
0
 10
339.198784
 20
742.995933
 42
-0.013051
  0
VERTEX
  8
0
 10
361.872028
 20
742.408068
 42
-0.025185
  0
VERTEX
  8
0
 10
379.928688
 20
740.552912
 42
-0.031003
  0
VERTEX
  8
0
 10
394.800724
 20
737.309501
 42
-0.042486
  0
VERTEX
  8
0
 10
407.607310
 20
732.465175
 42
-0.034263
  0
VERTEX
  8
0
 10
413.085013
 20
729.364718
 42
-0.021632
  0
VERTEX
  8
0
 10
419.036674
 20
725.054262
 42
-0.013070
  0
VERTEX
  8
0
 10
424.299057
 20
720.655819
 42
-0.301192
  0
VERTEX
  8
0
 10
424.784767
 20
718.854301
 42
-0.215648
  0
VERTEX
  8
0
 10
424.357013
 20
718.391942
 42
-0.003597
  0
VERTEX
  8
0
 10
421.052403
 20
717.024779
 42
-0.008553
  0
VERTEX
  8
0
 10
417.113103
 20
715.506044
 42
-0.005492
  0
VERTEX
  8
0
 10
412.494416
 20
713.872845
 42
0.017232
  0
VERTEX
  8
0
 10
400.308366
 20
709.239178
 42
0.025579
  0
VERTEX
  8
0
 10
390.022043
 20
704.283415
 42
0.026150
  0
VERTEX
  8
0
 10
380.464086
 20
698.391726
 42
0.019205
  0
VERTEX
  8
0
 10
370.500000
 20
690.924929
 42
0.035904
  0
VERTEX
  8
0
 10
356.243015
 20
677.555529
 42
0.035896
  0
VERTEX
  8
0
 10
344.044158
 20
662.283102
 42
0.030859
  0
VERTEX
  8
0
 10
332.733953
 20
643.437025
 42
0.016794
  0
VERTEX
  8
0
 10
321.104142
 20
619.065738
 42
-0.007291
  0
VERTEX
  8
0
 10
314.549721
 20
604.630929
 42
-0.016234
  0
VERTEX
  8
0
 10
309.049713
 20
593.890823
 42
-0.019269
  0
VERTEX
  8
0
 10
303.511795
 20
584.741167
 42
-0.015957
  0
VERTEX
  8
0
 10
296.942425
 20
575.435706
 42
-0.047015
  0
VERTEX
  8
0
 10
278.456083
 20
555.213859
 42
-0.051854
  0
VERTEX
  8
0
 10
257.075804
 20
539.538953
 42
-0.050802
  0
VERTEX
  8
0
 10
232.533506
 20
528.357628
 42
-0.042152
  0
VERTEX
  8
0
 10
204.652563
 20
521.483726
 42
0.007093
  0
VERTEX
  8
0
 10
202.113656
 20
521.043580
 42
0.187818
  0
VERTEX
  8
0
 10
201.539241
 20
520.685728
 42
0.335631
  0
VERTEX
  8
0
 10
201.542071
 20
520.151372
 42
0.019398
  0
VERTEX
  8
0
 10
202.652563
 20
518.810578
 42
0.040933
  0
VERTEX
  8
0
 10
205.957097
 20
515.679432
 42
0.006127
  0
VERTEX
  8
0
 10
213.165390
 20
510.034185
 42
0.007433
  0
VERTEX
  8
0
 10
220.861976
 20
504.336357
 42
0.015554
  0
VERTEX
  8
0
 10
227.047486
 20
500.183191
 42
0.020164
  0
VERTEX
  8
0
 10
235.165837
 20
495.536355
 42
0.010038
  0
VERTEX
  8
0
 10
245.789002
 20
490.280109
 42
0.010041
  0
VERTEX
  8
0
 10
256.642507
 20
485.442131
 42
0.019653
  0
VERTEX
  8
0
 10
265.500000
 20
482.108808
 42
0.044335
  0
VERTEX
  8
0
 10
292.607556
 20
475.703909
 42
0.039614
  0
VERTEX
  8
0
 10
321.473982
 20
473.847449
 42
0.039068
  0
VERTEX
  8
0
 10
350.682893
 20
476.573461
 42
0.040260
  0
VERTEX
  8
0
 10
378.810198
 20
483.804392
 42
-0.005346
  0
VERTEX
  8
0
 10
383.154777
 20
485.250953
 42
-0.008732
  0
VERTEX
  8
0
 10
386.871651
 20
486.373308
 42
-0.003096
  0
VERTEX
  8
0
 10
390.045982
 20
487.250462
 42
-0.333449
  0
VERTEX
  8
0
 10
390.436014
 20
487.094542
 42
-0.059949
  0
VERTEX
  8
0
 10
390.657435
 20
486.607937
 42
-0.000419
  0
VERTEX
  8
0
 10
392.030484
 20
482.268397
 42
-0.001617
  0
VERTEX
  8
0
 10
393.582615
 20
477.292480
 42
-0.001034
  0
VERTEX
  8
0
 10
395.355809
 20
471.500000
 42
0.011957
  0
VERTEX
  8
0
 10
409.637255
 20
428.246022
 42
0.009958
  0
VERTEX
  8
0
 10
426.817917
 20
382.977510
 42
0.009671
  0
VERTEX
  8
0
 10
446.375497
 20
336.975142
 42
0.009515
  0
VERTEX
  8
0
 10
467.799732
 20
291.509968
 42
0.000000
  0
VERTEX
  8
0
 10
479.172674
 20
268.519936
 42
0.000000
  0
VERTEX
  8
0
 10
477.074901
 20
258.668203
 42
0.017473
  0
VERTEX
  8
0
 10
474.947898
 20
246.628277
 42
0.017744
  0
VERTEX
  8
0
 10
473.679950
 20
234.530879
 42
0.018298
  0
VERTEX
  8
0
 10
473.299374
 20
222.772035
 42
0.022163
  0
VERTEX
  8
0
 10
473.834981
 20
211.750000
 42
0.040098
  0
VERTEX
  8
0
 10
478.248125
 20
186.499607
 42
0.047446
  0
VERTEX
  8
0
 10
486.509292
 20
163.726846
 42
0.047940
  0
VERTEX
  8
0
 10
498.827842
 20
143.112346
 42
0.042404
  0
VERTEX
  8
0
 10
515.313654
 20
124.285200
 42
0.000000
  0
VERTEX
  8
0
 10
523.839048
 20
116.070400
 42
0.000000
  0
VERTEX
  8
0
 10
522.464059
 20
110.176347
 42
-0.019447
  0
VERTEX
  8
0
 10
520.842109
 20
104.271605
 42
-0.012602
  0
VERTEX
  8
0
 10
518.532074
 20
97.574836
 42
-0.012671
  0
VERTEX
  8
0
 10
515.963331
 20
91.193826
 42
-0.025407
  0
VERTEX
  8
0
 10
513.557467
 20
86.323900
 42
0.000000
  0
VERTEX
  8
0
 10
511.193101
 20
82.093589
 42
0.000000
  0
VERTEX
  8
0
 10
515.754897
 20
81.409505
 42
0.041854
  0
VERTEX
  8
0
 10
520.914292
 20
81.072679
 42
0.007596
  0
VERTEX
  8
0
 10
530.510843
 20
81.395807
 42
0.008477
  0
VERTEX
  8
0
 10
540.249128
 20
82.037549
 42
0.026334
  0
VERTEX
  8
0
 10
546.767563
 20
82.925672
 42
0.000000
  0
VERTEX
  8
0
 10
551.035125
 20
83.737875
 42
0.000000
  0
VERTEX
  8
0
 10
555.074202
 20
75.974259
 42
0.073905
  0
VERTEX
  8
0
 10
566.994377
 20
59.531105
 42
0.057877
  0
VERTEX
  8
0
 10
584.145419
 20
45.651351
 42
0.052609
  0
VERTEX
  8
0
 10
605.719863
 20
34.972551
 42
0.041991
  0
VERTEX
  8
0
 10
630.744598
 20
28.031530
 42
0.017697
  0
VERTEX
  8
0
 10
644.364452
 20
25.955797
 42
0.011186
  0
VERTEX
  8
0
 10
660.368067
 20
24.455432
 42
0.004116
  0
VERTEX
  8
0
 10
675.954269
 20
23.474168
 42
0.566784
  0
VERTEX
  8
0
 10
676.816222
 20
24.750000
 42
0.004656
  0
VERTEX
  8
0
 10
676.545682
 20
25.315211
 42
0.000057
  0
VERTEX
  8
0
 10
674.762810
 20
28.951563
 42
0.000169
  0
VERTEX
  8
0
 10
672.699506
 20
33.155077
 42
0.000111
  0
VERTEX
  8
0
 10
670.317996
 20
38.000000
 42
-0.013523
  0
VERTEX
  8
0
 10
665.690182
 20
48.089633
 42
-0.005889
  0
VERTEX
  8
0
 10
660.067781
 20
61.720300
 42
-0.002545
  0
VERTEX
  8
0
 10
654.625263
 20
75.573150
 42
-0.092579
  0
VERTEX
  8
0
 10
654.000000
 20
78.921112
 42
-0.368824
  0
VERTEX
  8
0
 10
654.421438
 20
79.414721
 42
-0.015644
  0
VERTEX
  8
0
 10
656.877936
 20
79.726217
 42
-0.017363
  0
VERTEX
  8
0
 10
660.379074
 20
79.936974
 42
-0.006351
  0
VERTEX
  8
0
 10
665.340996
 20
80.000000
 42
0.012794
  0
VERTEX
  8
0
 10
673.366623
 20
80.205390
 42
0.008776
  0
VERTEX
  8
0
 10
682.454555
 20
80.830936
 42
0.007239
  0
VERTEX
  8
0
 10
690.773487
 20
81.671946
 42
0.049766
  0
VERTEX
  8
0
 10
694.785067
 20
82.546638
 42
0.417404
  0
VERTEX
  8
0
 10
695.079437
 20
83.132189
 42
0.036501
  0
VERTEX
  8
0
 10
694.366237
 20
84.828597
 42
0.026236
  0
VERTEX
  8
0
 10
692.932317
 20
87.313294
 42
0.008835
  0
VERTEX
  8
0
 10
690.591639
 20
90.782540
 42
-0.019108
  0
VERTEX
  8
0
 10
686.390338
 20
97.294111
 42
-0.013796
  0
VERTEX
  8
0
 10
682.192488
 20
104.848518
 42
-0.009814
  0
VERTEX
  8
0
 10
678.677178
 20
111.944137
 42
-0.112293
  0
VERTEX
  8
0
 10
678.010622
 20
114.971788
 42
-0.167277
  0
VERTEX
  8
0
 10
678.344783
 20
115.921173
 42
-0.006436
  0
VERTEX
  8
0
 10
680.732190
 20
118.856671
 42
-0.010891
  0
VERTEX
  8
0
 10
683.719605
 20
122.280423
 42
-0.007399
  0
VERTEX
  8
0
 10
687.260622
 20
126.050922
 42
0.044081
  0
VERTEX
  8
0
 10
703.467579
 20
146.063331
 42
0.049715
  0
VERTEX
  8
0
 10
715.178212
 20
167.847053
 42
0.048828
  0
VERTEX
  8
0
 10
722.509355
 20
191.857959
 42
0.040064
  0
VERTEX
  8
0
 10
725.685949
 20
218.500000
 42
0.017859
  0
VERTEX
  8
0
 10
725.718262
 20
229.746101
 42
0.015582
  0
VERTEX
  8
0
 10
724.965458
 20
241.492138
 42
0.016013
  0
VERTEX
  8
0
 10
723.529908
 20
252.718172
 42
0.024143
  0
VERTEX
  8
0
 10
721.498817
 20
262.366305
 42
0.000000
  0
VERTEX
  8
0
 10
719.964829
 20
268.232610
 42
0.000000
  0
VERTEX
  8
0
 10
724.389470
 20
276.366305
 42
0.011563
  0
VERTEX
  8
0
 10
730.408297
 20
288.067279
 42
0.002613
  0
VERTEX
  8
0
 10
740.067013
 20
308.229975
 42
0.002859
  0
VERTEX
  8
0
 10
750.188070
 20
329.965217
 42
0.004575
  0
VERTEX
  8
0
 10
758.553369
 20
348.651056
 42
0.007167
  0
VERTEX
  8
0
 10
772.617214
 20
382.154167
 42
0.007188
  0
VERTEX
  8
0
 10
785.700841
 20
416.014446
 42
0.007431
  0
VERTEX
  8
0
 10
797.340494
 20
448.972630
 42
0.009433
  0
VERTEX
  8
0
 10
807.055779
 20
479.750000
 42
-0.014335
  0
VERTEX
  8
0
 10
807.962850
 20
482.528378
 42
-0.022018
  0
VERTEX
  8
0
 10
808.920761
 20
484.870312
 42
-0.017949
  0
VERTEX
  8
0
 10
809.826084
 20
486.660598
 42
-0.273186
  0
VERTEX
  8
0
 10
810.400918
 20
487.000000
 42
-0.071120
  0
VERTEX
  8
0
 10
811.234452
 20
486.880835
 42
-0.002573
  0
VERTEX
  8
0
 10
814.321391
 20
485.962511
 42
-0.004676
  0
VERTEX
  8
0
 10
817.963516
 20
484.821295
 42
-0.003257
  0
VERTEX
  8
0
 10
822.053516
 20
483.468121
 42
0.039474
  0
VERTEX
  8
0
 10
849.896925
 20
476.443841
 42
0.038897
  0
VERTEX
  8
0
 10
878.636538
 20
473.836950
 42
0.039339
  0
VERTEX
  8
0
 10
907.110686
 20
475.717096
 42
0.042604
  0
VERTEX
  8
0
 10
934.164361
 20
482.043780
 42
0.020138
  0
VERTEX
  8
0
 10
943.116980
 20
485.364141
 42
0.010503
  0
VERTEX
  8
0
 10
954.003052
 20
490.179043
 42
0.010503
  0
VERTEX
  8
0
 10
964.674574
 20
495.445550
 42
0.020188
  0
VERTEX
  8
0
 10
972.952514
 20
500.183191
 42
0.015554
  0
VERTEX
  8
0
 10
979.138024
 20
504.336357
 42
0.007433
  0
VERTEX
  8
0
 10
986.834610
 20
510.034185
 42
0.006127
  0
VERTEX
  8
0
 10
994.042903
 20
515.679432
 42
0.040933
  0
VERTEX
  8
0
 10
997.347437
 20
518.810578
 42
0.019398
  0
VERTEX
  8
0
 10
998.457929
 20
520.151372
 42
0.335631
  0
VERTEX
  8
0
 10
998.460759
 20
520.685728
 42
0.187818
  0
VERTEX
  8
0
 10
997.886344
 20
521.043580
 42
0.007093
  0
VERTEX
  8
0
 10
995.347437
 20
521.483726
 42
-0.034168
  0
VERTEX
  8
0
 10
971.347422
 20
526.996415
 42
-0.043501
  0
VERTEX
  8
0
 10
950.268697
 20
535.440860
 42
-0.044686
  0
VERTEX
  8
0
 10
931.420344
 20
547.186945
 42
-0.039407
  0
VERTEX
  8
0
 10
914.086841
 20
562.555427
 42
-0.025196
  0
VERTEX
  8
0
 10
903.821569
 20
574.348183
 42
-0.026160
  0
VERTEX
  8
0
 10
894.931393
 20
586.971813
 42
-0.024677
  0
VERTEX
  8
0
 10
886.983063
 20
601.117707
 42
-0.018126
  0
VERTEX
  8
0
 10
879.542488
 20
617.500000
 42
0.025612
  0
VERTEX
  8
0
 10
866.977073
 20
644.101275
 42
0.037408
  0
VERTEX
  8
0
 10
853.058737
 20
665.946010
 42
0.041180
  0
VERTEX
  8
0
 10
837.228450
 20
683.836371
 42
0.043415
  0
VERTEX
  8
0
 10
818.940366
 20
698.544496
 42
0.015103
  0
VERTEX
  8
0
 10
810.857645
 20
703.615829
 42
0.020697
  0
VERTEX
  8
0
 10
803.276545
 20
707.647350
 42
0.019987
  0
VERTEX
  8
0
 10
795.184106
 20
711.139541
 42
0.012750
  0
VERTEX
  8
0
 10
785.526237
 20
714.576851
 42
-0.006953
  0
VERTEX
  8
0
 10
781.681553
 20
715.895189
 42
-0.010651
  0
VERTEX
  8
0
 10
778.391936
 20
717.154262
 42
-0.005428
  0
VERTEX
  8
0
 10
775.675636
 20
718.295328
 42
-0.213271
  0
VERTEX
  8
0
 10
775.244966
 20
718.765103
 42
-0.286472
  0
VERTEX
  8
0
 10
775.584615
 20
720.175935
 42
-0.011886
  0
VERTEX
  8
0
 10
779.541021
 20
723.882288
 42
-0.020247
  0
VERTEX
  8
0
 10
784.052986
 20
727.594955
 42
-0.029494
  0
VERTEX
  8
0
 10
788.334864
 20
730.456092
 42
-0.030675
  0
VERTEX
  8
0
 10
793.346890
 20
732.994221
 42
-0.017024
  0
VERTEX
  8
0
 10
799.730094
 20
735.494924
 42
-0.016203
  0
VERTEX
  8
0
 10
806.786952
 20
737.731615
 42
-0.016801
  0
VERTEX
  8
0
 10
813.889568
 20
739.476770
 42
-0.038183
  0
VERTEX
  8
0
 10
836.952766
 20
742.515583
 42
-0.017869
  0
VERTEX
  8
0
 10
867.083753
 20
743.086444
 42
-0.015605
  0
VERTEX
  8
0
 10
902.718539
 20
741.374733
 42
-0.010715
  0
VERTEX
  8
0
 10
942.982457
 20
737.309078
 42
0.005624
  0
VERTEX
  8
0
 10
955.524271
 20
735.913552
 42
0.011180
  0
VERTEX
  8
0
 10
965.491490
 20
735.142491
 42
0.009938
  0
VERTEX
  8
0
 10
976.205044
 20
734.767679
 42
0.003551
  0
VERTEX
  8
0
 10
991.500000
 20
734.645422
 42
0.002898
  0
VERTEX
  8
0
 10
1006.565015
 20
734.719309
 42
0.010512
  0
VERTEX
  8
0
 10
1016.139526
 20
735.023145
 42
0.014617
  0
VERTEX
  8
0
 10
1023.949654
 20
735.664841
 42
0.010968
  0
VERTEX
  8
0
 10
1032.500000
 20
736.810041
 42
0.023097
  0
VERTEX
  8
0
 10
1056.741665
 20
741.755980
 42
0.028449
  0
VERTEX
  8
0
 10
1078.755856
 20
748.670407
 42
0.029559
  0
VERTEX
  8
0
 10
1099.120102
 20
757.772256
 42
0.028957
  0
VERTEX
  8
0
 10
1118.414975
 20
769.267904
 42
0.032585
  0
VERTEX
  8
0
 10
1128.658861
 20
777.224173
 42
0.015544
  0
VERTEX
  8
0
 10
1140.793604
 20
788.679252
 42
0.015528
  0
VERTEX
  8
0
 10
1152.154478
 20
800.823965
 42
0.033784
  0
VERTEX
  8
0
 10
1159.910059
 20
810.952802
 42
0.022433
  0
VERTEX
  8
0
 10
1168.228602
 20
824.796675
 42
0.025031
  0
VERTEX
  8
0
 10
1174.947305
 20
838.842974
 42
0.027132
  0
VERTEX
  8
0
 10
1179.629895
 20
852.002706
 42
0.051035
  0
VERTEX
  8
0
 10
1181.709831
 20
863.078862
 42
0.000000
  0
VERTEX
  8
0
 10
1182.287382
 20
869.967886
 42
0.000000
  0
VERTEX
  8
0
 10
1174.815026
 20
862.710578
 42
-0.040272
  0
VERTEX
  8
0
 10
1160.055127
 20
850.521264
 42
-0.032045
  0
VERTEX
  8
0
 10
1142.389718
 20
839.793983
 42
-0.030843
  0
VERTEX
  8
0
 10
1122.729918
 20
831.014526
 42
-0.030191
  0
VERTEX
  8
0
 10
1102.000000
 20
824.648167
 42
-0.012827
  0
VERTEX
  8
0
 10
1087.860727
 20
821.605641
 42
-0.019822
  0
VERTEX
  8
0
 10
1075.499208
 20
819.779585
 42
-0.018014
  0
VERTEX
  8
0
 10
1062.209927
 20
818.834469
 42
-0.008484
  0
VERTEX
  8
0
 10
1045.000000
 20
818.524498
 42
-0.017023
  0
VERTEX
  8
0
 10
1018.100523
 20
819.412534
 42
-0.022136
  0
VERTEX
  8
0
 10
993.602916
 20
822.150658
 42
-0.020124
  0
VERTEX
  8
0
 10
967.693780
 20
827.289957
 42
-0.010890
  0
VERTEX
  8
0
 10
936.259804
 20
835.579406
 42
0.007286
  0
VERTEX
  8
0
 10
902.606831
 20
844.713954
 42
0.014510
  0
VERTEX
  8
0
 10
875.674288
 20
850.777826
 42
0.017043
  0
VERTEX
  8
0
 10
851.524004
 20
854.634502
 42
0.016114
  0
VERTEX
  8
0
 10
826.711597
 20
856.924979
 42
0.040862
  0
VERTEX
  8
0
 10
782.473429
 20
855.958137
 42
0.052633
  0
VERTEX
  8
0
 10
742.720193
 20
847.539089
 42
0.055959
  0
VERTEX
  8
0
 10
707.574849
 20
831.604565
 42
0.056712
  0
VERTEX
  8
0
 10
677.010935
 20
808.332457
 42
0.022398
  0
VERTEX
  8
0
 10
663.639684
 20
794.318442
 42
0.023062
  0
VERTEX
  8
0
 10
651.712654
 20
779.295602
 42
0.022568
  0
VERTEX
  8
0
 10
640.994343
 20
762.928241
 42
0.019596
  0
VERTEX
  8
0
 10
631.243236
 20
744.885104
 42
0.000000
  0
VERTEX
  8
0
 10
624.500000
 20
731.146546
 42
0.000000
  0
VERTEX
  8
0
 10
620.000000
 20
731.823273
 42
0.032948
  0
VERTEX
  8
0
 10
613.515483
 20
732.365297
 42
0.004522
  0
VERTEX
  8
0
 10
599.944031
 20
732.480370
 42
0.004473
  0
VERTEX
  8
0
 10
586.367888
 20
732.351263
 42
0.033776
  0
VERTEX
  8
0
 10
579.980310
 20
731.800698
 42
0.000000
  0
VERTEX
  8
0
 10
575.460620
 20
731.101396
 42
0.000000
  0
VERTEX
  8
0
 10
569.991412
 20
742.300698
 42
0.015959
  0
VERTEX
  8
0
 10
560.233258
 20
760.763927
 42
0.023027
  0
VERTEX
  8
0
 10
550.358889
 20
776.369119
 42
0.024004
  0
VERTEX
  8
0
 10
539.429643
 20
790.503600
 42
0.019801
  0
VERTEX
  8
0
 10
526.500000
 20
804.500000
 42
0.011923
  0
VERTEX
  8
0
 10
515.271579
 20
815.205326
 42
0.023684
  0
VERTEX
  8
0
 10
505.794843
 20
823.032389
 42
0.025235
  0
VERTEX
  8
0
 10
496.025629
 20
829.609274
 42
0.015685
  0
VERTEX
  8
0
 10
483.968524
 20
836.364634
 42
0.031640
  0
VERTEX
  8
0
 10
462.332197
 20
845.925149
 42
0.034039
  0
VERTEX
  8
0
 10
440.178806
 20
852.409896
 42
0.032027
  0
VERTEX
  8
0
 10
416.187628
 20
856.101614
 42
0.022782
  0
VERTEX
  8
0
 10
389.000000
 20
857.273913
 42
0.020074
  0
VERTEX
  8
0
 10
361.194356
 20
856.088507
 42
0.021766
  0
VERTEX
  8
0
 10
334.320983
 20
852.676987
 42
0.018289
  0
VERTEX
  8
0
 10
304.185596
 20
846.368093
 42
0.008717
  0
VERTEX
  8
0
 10
265.910482
 20
836.170510
 42
-0.009875
  0
VERTEX
  8
0
 10
232.889482
 20
827.454567
 42
-0.020146
  0
VERTEX
  8
0
 10
206.605985
 20
822.180505
 42
-0.022721
  0
VERTEX
  8
0
 10
182.123610
 20
819.419288
 42
-0.017023
  0
VERTEX
  8
0
 10
155.000000
 20
818.528450
 42
-0.009073
  0
VERTEX
  8
0
 10
137.265551
 20
818.871750
 42
-0.018412
  0
VERTEX
  8
0
 10
123.354718
 20
819.907524
 42
-0.020416
  0
VERTEX
  8
0
 10
110.517548
 20
821.873521
 42
-0.014390
  0
VERTEX
  8
0
 10
96.272324
 20
825.082554
 42
-0.031190
  0
VERTEX
  8
0
 10
75.011006
 20
831.956705
 42
-0.030158
  0
VERTEX
  8
0
 10
54.521250
 20
841.487130
 42
-0.031657
  0
VERTEX
  8
0
 10
36.507829
 20
852.754428
 42
-0.049202
  0
VERTEX
  8
0
 10
22.750000
 20
864.834915
 42
0.000000
  0
VERTEX
  8
0
 10
18.000000
 20
869.914318
 42
0.000000
  0
SEQEND
  0
POLYLINE
  8
0
 66
1
 70
1
  0
VERTEX
  8
0
 10
405.507102
 20
827.960809
 42
-0.056643
  0
VERTEX
  8
0
 10
449.780407
 20
819.253685
 42
-0.073615
  0
VERTEX
  8
0
 10
486.878809
 20
801.135130
 42
-0.072768
  0
VERTEX
  8
0
 10
517.448034
 20
772.852677
 42
-0.053817
  0
VERTEX
  8
0
 10
542.396046
 20
734.052169
 42
-0.007447
  0
VERTEX
  8
0
 10
545.187739
 20
728.258172
 42
-0.004222
  0
VERTEX
  8
0
 10
548.403514
 20
721.165353
 42
-0.004214
  0
VERTEX
  8
0
 10
551.524306
 20
713.961249
 42
-0.006926
  0
VERTEX
  8
0
 10
554.028327
 20
707.808608
 42
0.005323
  0
VERTEX
  8
0
 10
556.132619
 20
702.590264
 42
0.008999
  0
VERTEX
  8
0
 10
558.020331
 20
698.270043
 42
0.003279
  0
VERTEX
  8
0
 10
559.693380
 20
694.683779
 42
0.446965
  0
VERTEX
  8
0
 10
560.102110
 20
694.563108
 42
-0.078561
  0
VERTEX
  8
0
 10
560.666133
 20
694.799431
 42
-0.001797
  0
VERTEX
  8
0
 10
563.501621
 20
695.482457
 42
-0.003975
  0
VERTEX
  8
0
 10
566.839539
 20
696.245853
 42
-0.002677
  0
VERTEX
  8
0
 10
570.661789
 20
697.066663
 42
-0.031856
  0
VERTEX
  8
0
 10
585.817925
 20
699.240968
 42
-0.023401
  0
VERTEX
  8
0
 10
602.789017
 20
699.784309
 42
-0.023568
  0
VERTEX
  8
0
 10
619.539454
 20
698.745855
 42
-0.034927
  0
VERTEX
  8
0
 10
634.008737
 20
696.129776
 42
0.000000
  0
VERTEX
  8
0
 10
640.845398
 20
694.393586
 42
0.000000
  0
VERTEX
  8
0
 10
645.033138
 20
705.446793
 42
-0.069630
  0
VERTEX
  8
0
 10
679.682113
 20
768.691489
 42
-0.108870
  0
VERTEX
  8
0
 10
726.415078
 20
809.159771
 42
-0.104818
  0
VERTEX
  8
0
 10
787.198790
 20
827.160905
 42
-0.061035
  0
VERTEX
  8
0
 10
863.500000
 20
823.887952
 42
-0.008308
  0
VERTEX
  8
0
 10
876.186821
 20
821.560946
 42
-0.008739
  0
VERTEX
  8
0
 10
888.576455
 20
818.848919
 42
-0.007332
  0
VERTEX
  8
0
 10
902.591880
 20
815.305454
 42
-0.003516
  0
VERTEX
  8
0
 10
920.479440
 20
810.367781
 42
0.003832
  0
VERTEX
  8
0
 10
945.903886
 20
803.366904
 42
0.009324
  0
VERTEX
  8
0
 10
964.781562
 20
798.699373
 42
0.011533
  0
VERTEX
  8
0
 10
981.206668
 20
795.358257
 42
0.010118
  0
VERTEX
  8
0
 10
998.500000
 20
792.614008
 42
0.012482
  0
VERTEX
  8
0
 10
1012.173304
 20
791.073712
 42
0.007541
  0
VERTEX
  8
0
 10
1028.433692
 20
789.898777
 42
0.007207
  0
VERTEX
  8
0
 10
1043.797054
 20
789.243345
 42
0.024925
  0
VERTEX
  8
0
 10
1053.750000
 20
789.458548
 42
-0.007767
  0
VERTEX
  8
0
 10
1057.645118
 20
789.676610
 42
-0.018502
  0
VERTEX
  8
0
 10
1060.543691
 20
789.686443
 42
-0.016093
  0
VERTEX
  8
0
 10
1062.636492
 20
789.548557
 42
-0.385800
  0
VERTEX
  8
0
 10
1063.000000
 20
789.147568
 42
-0.338672
  0
VERTEX
  8
0
 10
1062.370324
 20
788.324570
 42
-0.002734
  0
VERTEX
  8
0
 10
1053.938397
 20
786.089285
 42
-0.008998
  0
VERTEX
  8
0
 10
1044.673129
 20
783.864360
 42
-0.008090
  0
VERTEX
  8
0
 10
1035.000000
 20
781.888436
 42
-0.046265
  0
VERTEX
  8
0
 10
1018.355551
 20
780.338504
 42
-0.006422
  0
VERTEX
  8
0
 10
983.641850
 20
780.770931
 42
-0.007947
  0
VERTEX
  8
0
 10
947.531506
 20
782.259310
 42
-0.017443
  0
VERTEX
  8
0
 10
920.000000
 20
784.798549
 42
0.000000
  0
VERTEX
  8
0
 10
914.500000
 20
785.500000
 42
0.000000
  0
VERTEX
  8
0
 10
909.826093
 20
794.500000
 42
0.003336
  0
VERTEX
  8
0
 10
906.900286
 20
800.043159
 42
0.054906
  0
VERTEX
  8
0
 10
905.716140
 20
801.766499
 42
0.372638
  0
VERTEX
  8
0
 10
904.932445
 20
801.881471
 42
0.162918
  0
VERTEX
  8
0
 10
904.219533
 20
801.000000
 42
-0.001614
  0
VERTEX
  8
0
 10
897.700752
 20
783.696986
 42
-0.003889
  0
VERTEX
  8
0
 10
892.736278
 20
770.946763
 42
-0.000837
  0
VERTEX
  8
0
 10
888.619203
 20
760.661561
 42
-0.537816
  0
VERTEX
  8
0
 10
888.109263
 20
760.557403
 42
-0.107742
  0
VERTEX
  8
0
 10
887.777882
 20
761.073561
 42
-0.001038
  0
VERTEX
  8
0
 10
886.225627
 20
765.273625
 42
-0.003391
  0
VERTEX
  8
0
 10
884.477292
 20
770.136243
 42
-0.002182
  0
VERTEX
  8
0
 10
882.513194
 20
775.796316
 42
0.000000
  0
VERTEX
  8
0
 10
877.498437
 20
790.453917
 42
0.000000
  0
VERTEX
  8
0
 10
872.628662
 20
791.270343
 42
0.007501
  0
VERTEX
  8
0
 10
870.035585
 20
791.665180
 42
0.002047
  0
VERTEX
  8
0
 10
865.930446
 20
792.210275
 42
0.002069
  0
VERTEX
  8
0
 10
861.269273
 20
792.790197
 42
0.002153
  0
VERTEX
  8
0
 10
856.664633
 20
793.323642
 42
0.000000
  0
VERTEX
  8
0
 10
845.570380
 20
794.560515
 42
0.000000
  0
VERTEX
  8
0
 10
839.079483
 20
805.741217
 42
0.002984
  0
VERTEX
  8
0
 10
836.568749
 20
810.007175
 42
0.005038
  0
VERTEX
  8
0
 10
834.406864
 20
813.549165
 42
0.001055
  0
VERTEX
  8
0
 10
832.494793
 20
816.597695
 42
0.481175
  0
VERTEX
  8
0
 10
832.287573
 20
816.620907
 42
0.145348
  0
VERTEX
  8
0
 10
832.130949
 20
816.331961
 42
0.000148
  0
VERTEX
  8
0
 10
830.610181
 20
809.117473
 42
0.001424
  0
VERTEX
  8
0
 10
828.933514
 20
801.037607
 42
0.000872
  0
VERTEX
  8
0
 10
827.000000
 20
791.500000
 42
-0.000879
  0
VERTEX
  8
0
 10
825.066314
 20
781.962229
 42
-0.001436
  0
VERTEX
  8
0
 10
823.389112
 20
773.881821
 42
-0.000150
  0
VERTEX
  8
0
 10
821.867880
 20
766.667883
 42
-0.145328
  0
VERTEX
  8
0
 10
821.710021
 20
766.376688
 42
-0.503788
  0
VERTEX
  8
0
 10
821.510022
 20
766.406495
 42
-0.000721
  0
VERTEX
  8
0
 10
819.455506
 20
770.276387
 42
-0.004120
  0
VERTEX
  8
0
 10
817.146385
 20
774.729429
 42
-0.002438
  0
VERTEX
  8
0
 10
814.461151
 20
780.078336
 42
0.000000
  0
VERTEX
  8
0
 10
807.515699
 20
794.083403
 42
0.000000
  0
VERTEX
  8
0
 10
802.007850
 20
793.419908
 42
0.021956
  0
VERTEX
  8
0
 10
796.995710
 20
792.591546
 42
0.005421
  0
VERTEX
  8
0
 10
788.855879
 20
790.783819
 42
0.004707
  0
VERTEX
  8
0
 10
780.794282
 20
788.821319
 42
0.033755
  0
VERTEX
  8
0
 10
776.987158
 20
787.577859
 42
-0.219108
  0
VERTEX
  8
0
 10
775.881955
 20
787.631198
 42
-0.014063
  0
VERTEX
  8
0
 10
772.987835
 20
789.241496
 42
-0.016440
  0
VERTEX
  8
0
 10
769.257966
 20
791.625636
 42
-0.007546
  0
VERTEX
  8
0
 10
764.549930
 20
794.963456
 42
0.002151
  0
VERTEX
  8
0
 10
760.345804
 20
798.012720
 42
0.003572
  0
VERTEX
  8
0
 10
756.772105
 20
800.542826
 42
0.000517
  0
VERTEX
  8
0
 10
753.600149
 20
802.749785
 42
0.373581
  0
VERTEX
  8
0
 10
753.412851
 20
802.729439
 42
0.247648
  0
VERTEX
  8
0
 10
753.354615
 20
802.512285
 42
0.000092
  0
VERTEX
  8
0
 10
755.246706
 20
794.195523
 42
0.001374
  0
VERTEX
  8
0
 10
757.379949
 20
784.944216
 42
0.000831
  0
VERTEX
  8
0
 10
759.954438
 20
774.000000
 42
-0.001402
  0
VERTEX
  8
0
 10
762.518740
 20
763.042980
 42
-0.002300
  0
VERTEX
  8
0
 10
764.621143
 20
753.750066
 42
-0.000265
  0
VERTEX
  8
0
 10
766.450854
 20
745.465291
 42
-0.234454
  0
VERTEX
  8
0
 10
766.356358
 20
745.085333
 42
-0.434621
  0
VERTEX
  8
0
 10
766.064764
 20
745.071773
 42
-0.001012
  0
VERTEX
  8
0
 10
762.667112
 20
748.403077
 42
-0.005005
  0
VERTEX
  8
0
 10
758.808408
 20
752.278605
 42
-0.002987
  0
VERTEX
  8
0
 10
754.292023
 20
756.962082
 42
0.000000
  0
VERTEX
  8
0
 10
742.580049
 20
769.253498
 42
0.000000
  0
VERTEX
  8
0
 10
735.934267
 20
762.284286
 42
0.043591
  0
VERTEX
  8
0
 10
723.938223
 20
747.282462
 42
0.045105
  0
VERTEX
  8
0
 10
714.880149
 20
730.592636
 42
0.038887
  0
VERTEX
  8
0
 10
708.002425
 20
710.471154
 42
0.021187
  0
VERTEX
  8
0
 10
702.576276
 20
684.920216
 42
0.000000
  0
VERTEX
  8
0
 10
701.973239
 20
681.340431
 42
0.000000
  0
VERTEX
  8
0
 10
712.236620
 20
683.805073
 42
-0.014731
  0
VERTEX
  8
0
 10
718.603874
 20
685.137048
 42
-0.022934
  0
VERTEX
  8
0
 10
724.161683
 20
685.868742
 42
-0.016048
  0
VERTEX
  8
0
 10
731.017473
 20
686.232070
 42
-0.003774
  0
VERTEX
  8
0
 10
742.500000
 20
686.384857
 42
-0.013090
  0
VERTEX
  8
0
 10
758.345315
 20
686.061230
 42
-0.036448
  0
VERTEX
  8
0
 10
769.387923
 20
684.735724
 42
-0.042422
  0
VERTEX
  8
0
 10
779.146130
 20
681.960090
 42
-0.023594
  0
VERTEX
  8
0
 10
790.500000
 20
677.037557
 42
-0.024161
  0
VERTEX
  8
0
 10
799.124795
 20
672.274325
 42
-0.031009
  0
VERTEX
  8
0
 10
806.527453
 20
667.046333
 42
-0.031213
  0
VERTEX
  8
0
 10
813.188719
 20
660.972555
 42
-0.025011
  0
VERTEX
  8
0
 10
819.583658
 20
653.667739
 42
-0.021111
  0
VERTEX
  8
0
 10
824.092888
 20
647.442147
 42
-0.022100
  0
VERTEX
  8
0
 10
827.988028
 20
640.950635
 42
-0.010841
  0
VERTEX
  8
0
 10
833.053948
 20
631.089595
 42
-0.001398
  0
VERTEX
  8
0
 10
843.379442
 20
609.719335
 42
0.012556
  0
VERTEX
  8
0
 10
853.310012
 20
590.285781
 42
0.018296
  0
VERTEX
  8
0
 10
863.102315
 20
573.729376
 42
0.019858
  0
VERTEX
  8
0
 10
873.388679
 20
559.024656
 42
0.019945
  0
VERTEX
  8
0
 10
884.794932
 20
545.204666
 42
0.020264
  0
VERTEX
  8
0
 10
891.144050
 20
538.662346
 42
0.013711
  0
VERTEX
  8
0
 10
898.871900
 20
531.712510
 42
0.013830
  0
VERTEX
  8
0
 10
906.732106
 20
525.390482
 42
0.026358
  0
VERTEX
  8
0
 10
913.437298
 20
520.832682
 42
-0.008112
  0
VERTEX
  8
0
 10
915.549438
 20
519.506948
 42
-0.012366
  0
VERTEX
  8
0
 10
917.334226
 20
518.282044
 42
-0.006972
  0
VERTEX
  8
0
 10
918.773960
 20
517.209768
 42
-0.222156
  0
VERTEX
  8
0
 10
918.971638
 20
516.829594
 42
-0.395280
  0
VERTEX
  8
0
 10
918.205057
 20
515.938778
 42
-0.005942
  0
VERTEX
  8
0
 10
910.770567
 20
515.226832
 42
-0.013260
  0
VERTEX
  8
0
 10
902.209129
 20
514.737703
 42
-0.010710
  0
VERTEX
  8
0
 10
893.000000
 20
514.653606
 42
-0.049580
  0
VERTEX
  8
0
 10
867.857850
 20
517.465256
 42
-0.050683
  0
VERTEX
  8
0
 10
843.955541
 20
525.167321
 42
-0.049417
  0
VERTEX
  8
0
 10
821.571427
 20
537.739776
 42
-0.042997
  0
VERTEX
  8
0
 10
800.934171
 20
554.997501
 42
-0.018098
  0
VERTEX
  8
0
 10
790.157130
 20
566.514665
 42
-0.021718
  0
VERTEX
  8
0
 10
780.911291
 20
578.123049
 42
-0.020229
  0
VERTEX
  8
0
 10
772.205031
 20
591.162489
 42
-0.012649
  0
VERTEX
  8
0
 10
763.034758
 20
607.069316
 42
0.023486
  0
VERTEX
  8
0
 10
754.552031
 20
621.073278
 42
0.039570
  0
VERTEX
  8
0
 10
746.019542
 20
631.827917
 42
0.045755
  0
VERTEX
  8
0
 10
736.921421
 20
639.962813
 42
0.050150
  0
VERTEX
  8
0
 10
726.758337
 20
646.025905
 42
0.036291
  0
VERTEX
  8
0
 10
719.063366
 20
648.967516
 42
0.027701
  0
VERTEX
  8
0
 10
710.296761
 20
651.086824
 42
0.106797
  0
VERTEX
  8
0
 10
706.669430
 20
650.974417
 42
0.681461
  0
VERTEX
  8
0
 10
706.508330
 20
649.748652
 42
-0.061773
  0
VERTEX
  8
0
 10
710.404735
 20
646.916588
 42
-0.017152
  0
VERTEX
  8
0
 10
715.752127
 20
641.560585
 42
-0.017753
  0
VERTEX
  8
0
 10
720.792778
 20
635.752665
 42
-0.047917
  0
VERTEX
  8
0
 10
723.798959
 20
631.199363
 42
-0.027102
  0
VERTEX
  8
0
 10
727.008262
 20
624.267126
 42
-0.042579
  0
VERTEX
  8
0
 10
728.910938
 20
617.989207
 42
-0.040583
  0
VERTEX
  8
0
 10
729.776675
 20
611.265045
 42
-0.022029
  0
VERTEX
  8
0
 10
729.800631
 20
602.925917
 42
0.000000
  0
VERTEX
  8
0
 10
729.358635
 20
592.198268
 42
0.000000
  0
VERTEX
  8
0
 10
732.929317
 20
591.613654
 42
-0.087240
  0
VERTEX
  8
0
 10
742.732914
 20
588.186244
 42
-0.055695
  0
VERTEX
  8
0
 10
752.573384
 20
581.136661
 42
-0.055288
  0
VERTEX
  8
0
 10
760.702420
 20
572.005752
 42
-0.081177
  0
VERTEX
  8
0
 10
765.416279
 20
562.369517
 42
-0.059130
  0
VERTEX
  8
0
 10
765.629421
 20
561.162861
 42
-0.318300
  0
VERTEX
  8
0
 10
765.295054
 20
560.629071
 42
-0.119504
  0
VERTEX
  8
0
 10
764.337734
 20
560.477538
 42
-0.007837
  0
VERTEX
  8
0
 10
761.529284
 20
560.749589
 42
0.078616
  0
VERTEX
  8
0
 10
752.784264
 20
560.358710
 42
0.038246
  0
VERTEX
  8
0
 10
742.005876
 20
557.282309
 42
0.034894
  0
VERTEX
  8
0
 10
730.446502
 20
552.061257
 42
0.031041
  0
VERTEX
  8
0
 10
719.243508
 20
545.098795
 42
0.031739
  0
VERTEX
  8
0
 10
707.950785
 20
535.937168
 42
0.014028
  0
VERTEX
  8
0
 10
694.193403
 20
522.514219
 42
0.014006
  0
VERTEX
  8
0
 10
680.689726
 20
507.773771
 42
0.021850
  0
VERTEX
  8
0
 10
670.000000
 20
494.279148
 42
-0.007510
  0
VERTEX
  8
0
 10
668.218769
 20
491.893058
 42
-0.011373
  0
VERTEX
  8
0
 10
666.591794
 20
489.877110
 42
-0.006245
  0
VERTEX
  8
0
 10
665.178407
 20
488.246840
 42
-0.204493
  0
VERTEX
  8
0
 10
664.716745
 20
488.029148
 42
-0.290962
  0
VERTEX
  8
0
 10
663.892076
 20
488.511329
 42
-0.001833
  0
VERTEX
  8
0
 10
659.830050
 20
496.473429
 42
-0.006754
  0
VERTEX
  8
0
 10
656.214102
 20
503.872361
 42
-0.034891
  0
VERTEX
  8
0
 10
654.561900
 20
508.115548
 42
0.675931
  0
VERTEX
  8
0
 10
653.456911
 20
508.204642
 42
0.085936
  0
VERTEX
  8
0
 10
652.464686
 20
504.891990
 42
0.022078
  0
VERTEX
  8
0
 10
651.799879
 20
496.094181
 42
0.007881
  0
VERTEX
  8
0
 10
651.604506
 20
483.500000
 42
0.011811
  0
VERTEX
  8
0
 10
651.939533
 20
469.467530
 42
0.033071
  0
VERTEX
  8
0
 10
653.054040
 20
459.699732
 42
0.040284
  0
VERTEX
  8
0
 10
655.290365
 20
451.301648
 42
0.026026
  0
VERTEX
  8
0
 10
659.144502
 20
442.000000
 42
0.000000
  0
VERTEX
  8
0
 10
662.243223
 20
435.500000
 42
0.000000
  0
VERTEX
  8
0
 10
663.545572
 20
441.000000
 42
-0.012951
  0
VERTEX
  8
0
 10
664.198063
 20
443.468582
 42
-0.007868
  0
VERTEX
  8
0
 10
665.090497
 20
446.353125
 42
-0.007882
  0
VERTEX
  8
0
 10
666.066555
 20
449.188434
 42
-0.013775
  0
VERTEX
  8
0
 10
666.976061
 20
451.500000
 42
-0.019285
  0
VERTEX
  8
0
 10
669.535877
 20
456.923765
 42
-0.009355
  0
VERTEX
  8
0
 10
673.200511
 20
463.659960
 42
-0.002827
  0
VERTEX
  8
0
 10
677.115377
 20
470.456292
 42
-0.266701
  0
VERTEX
  8
0
 10
678.062196
 20
471.000000
 42
-0.266832
  0
VERTEX
  8
0
 10
678.427853
 20
470.789903
 42
-0.009877
  0
VERTEX
  8
0
 10
679.231838
 20
469.345851
 42
-0.015614
  0
VERTEX
  8
0
 10
680.126249
 20
467.527075
 42
-0.010065
  0
VERTEX
  8
0
 10
681.053228
 20
465.368854
 42
0.030915
  0
VERTEX
  8
0
 10
683.543752
 20
460.178231
 42
0.011497
  0
VERTEX
  8
0
 10
687.652850
 20
453.199912
 42
0.007480
  0
VERTEX
  8
0
 10
691.972049
 20
446.463225
 42
0.108456
  0
VERTEX
  8
0
 10
693.994849
 20
444.503183
 42
0.372136
  0
VERTEX
  8
0
 10
697.746756
 20
445.104587
 42
0.012665
  0
VERTEX
  8
0
 10
707.800752
 20
457.690885
 42
0.021027
  0
VERTEX
  8
0
 10
717.044867
 20
471.012427
 42
0.069162
  0
VERTEX
  8
0
 10
721.461459
 20
480.732668
 42
0.000000
  0
VERTEX
  8
0
 10
722.123773
 20
482.965335
 42
0.000000
  0
VERTEX
  8
0
 10
716.811887
 20
480.492437
 42
-0.067548
  0
VERTEX
  8
0
 10
709.020919
 20
478.075484
 42
-0.112132
  0
VERTEX
  8
0
 10
702.184837
 20
478.468388
 42
-0.123119
  0
VERTEX
  8
0
 10
696.622846
 20
481.695560
 42
-0.092075
  0
VERTEX
  8
0
 10
692.510365
 20
487.500000
 42
-0.073290
  0
VERTEX
  8
0
 10
691.920404
 20
489.502836
 42
-0.164808
  0
VERTEX
  8
0
 10
692.210507
 20
491.039959
 42
-0.062287
  0
VERTEX
  8
0
 10
693.623386
 20
492.947017
 42
-0.004325
  0
VERTEX
  8
0
 10
698.287170
 20
497.750000
 42
-0.005053
  0
VERTEX
  8
0
 10
701.088444
 20
500.528649
 42
-0.007774
  0
VERTEX
  8
0
 10
703.573544
 20
502.870313
 42
-0.003315
  0
VERTEX
  8
0
 10
705.725970
 20
504.810212
 42
-0.183747
  0
VERTEX
  8
0
 10
706.224972
 20
505.000000
 42
-0.279346
  0
VERTEX
  8
0
 10
706.524255
 20
504.818641
 42
-0.051351
  0
VERTEX
  8
0
 10
706.773434
 20
504.192187
 42
-0.042031
  0
VERTEX
  8
0
 10
706.946095
 20
503.303747
 42
-0.026651
  0
VERTEX
  8
0
 10
707.003738
 20
502.250000
 42
0.053772
  0
VERTEX
  8
0
 10
707.143933
 20
500.966541
 42
0.025550
  0
VERTEX
  8
0
 10
707.583668
 20
499.361008
 42
0.024977
  0
VERTEX
  8
0
 10
708.219995
 20
497.712420
 42
0.032319
  0
VERTEX
  8
0
 10
708.972719
 20
496.276837
 42
0.109324
  0
VERTEX
  8
0
 10
711.872610
 20
493.258109
 42
0.138375
  0
VERTEX
  8
0
 10
715.538781
 20
492.072858
 42
0.124962
  0
VERTEX
  8
0
 10
719.571744
 20
492.936460
 42
0.080442
  0
VERTEX
  8
0
 10
723.483379
 20
495.729743
 42
0.095879
  0
VERTEX
  8
0
 10
727.373344
 20
501.428390
 42
0.080857
  0
VERTEX
  8
0
 10
729.157614
 20
508.521878
 42
0.080068
  0
VERTEX
  8
0
 10
728.606690
 20
515.879927
 42
0.090996
  0
VERTEX
  8
0
 10
725.752388
 20
522.340413
 42
-0.157181
  0
VERTEX
  8
0
 10
725.387139
 20
523.583859
 42
-0.142649
  0
VERTEX
  8
0
 10
725.795894
 20
524.862141
 42
-0.053132
  0
VERTEX
  8
0
 10
727.280009
 20
526.627567
 42
-0.006521
  0
VERTEX
  8
0
 10
730.966414
 20
530.079394
 42
-0.009706
  0
VERTEX
  8
0
 10
733.900829
 20
532.653568
 42
-0.030530
  0
VERTEX
  8
0
 10
736.001876
 20
534.216721
 42
-0.048199
  0
VERTEX
  8
0
 10
737.447847
 20
534.973700
 42
-0.382884
  0
VERTEX
  8
0
 10
738.100211
 20
534.738981
 42
-0.071784
  0
VERTEX
  8
0
 10
739.522738
 20
530.851224
 42
-0.015370
  0
VERTEX
  8
0
 10
740.789212
 20
523.758913
 42
-0.016473
  0
VERTEX
  8
0
 10
741.697859
 20
515.753998
 42
-0.020024
  0
VERTEX
  8
0
 10
742.000000
 20
508.212557
 42
-0.024161
  0
VERTEX
  8
0
 10
741.553694
 20
498.981928
 42
-0.030361
  0
VERTEX
  8
0
 10
740.212340
 20
490.526631
 42
-0.031479
  0
VERTEX
  8
0
 10
737.911498
 20
482.554338
 42
-0.029711
  0
VERTEX
  8
0
 10
734.591398
 20
474.773495
 42
0.000000
  0
VERTEX
  8
0
 10
731.221356
 20
468.017686
 42
0.000000
  0
VERTEX
  8
0
 10
734.348725
 20
469.758843
 42
0.069470
  0
VERTEX
  8
0
 10
741.109195
 20
474.863346
 42
0.019282
  0
VERTEX
  8
0
 10
750.156380
 20
484.637469
 42
0.019195
  0
VERTEX
  8
0
 10
758.415187
 20
495.065140
 42
0.071239
  0
VERTEX
  8
0
 10
762.345722
 20
502.447879
 42
-0.656282
  0
VERTEX
  8
0
 10
763.673443
 20
502.530636
 42
-0.038739
  0
VERTEX
  8
0
 10
765.779412
 20
497.465725
 42
-0.026597
  0
VERTEX
  8
0
 10
767.880263
 20
489.676045
 42
-0.024581
  0
VERTEX
  8
0
 10
769.208904
 20
481.500000
 42
-0.011010
  0
VERTEX
  8
0
 10
769.731323
 20
475.706127
 42
-0.048839
  0
VERTEX
  8
0
 10
769.629876
 20
472.290942
 42
-0.041728
  0
VERTEX
  8
0
 10
768.866889
 20
468.723568
 42
-0.006616
  0
VERTEX
  8
0
 10
766.699814
 20
461.896005
 42
-0.018156
  0
VERTEX
  8
0
 10
760.265287
 20
444.638205
 42
-0.014620
  0
VERTEX
  8
0
 10
752.147263
 20
426.577545
 42
-0.013704
  0
VERTEX
  8
0
 10
742.402417
 20
407.816910
 42
-0.011468
  0
VERTEX
  8
0
 10
731.071585
 20
388.452240
 42
-0.006513
  0
VERTEX
  8
0
 10
724.121748
 20
377.498321
 42
-0.004395
  0
VERTEX
  8
0
 10
715.921459
 20
365.176162
 42
-0.001337
  0
VERTEX
  8
0
 10
707.683579
 20
353.099965
 42
-0.104351
  0
VERTEX
  8
0
 10
706.015159
 20
351.509369
 42
-0.346228
  0
VERTEX
  8
0
 10
705.564016
 20
351.560587
 42
-0.003694
  0
VERTEX
  8
0
 10
703.205392
 20
353.927036
 42
-0.009599
  0
VERTEX
  8
0
 10
700.481494
 20
356.809304
 42
-0.005860
  0
VERTEX
  8
0
 10
697.372445
 20
360.309832
 42
0.026536
  0
VERTEX
  8
0
 10
686.640937
 20
371.430798
 42
0.023187
  0
VERTEX
  8
0
 10
674.315128
 20
381.892845
 42
0.024081
  0
VERTEX
  8
0
 10
661.961570
 20
390.513634
 42
0.047042
  0
VERTEX
  8
0
 10
651.250000
 20
395.915828
 42
0.007828
  0
VERTEX
  8
0
 10
649.236346
 20
396.667886
 42
0.013662
  0
VERTEX
  8
0
 10
647.542187
 20
397.218910
 42
0.007886
  0
VERTEX
  8
0
 10
646.173118
 20
397.599820
 42
0.491217
  0
VERTEX
  8
0
 10
646.000000
 20
397.466126
 42
0.171377
  0
VERTEX
  8
0
 10
646.122144
 20
397.120232
 42
0.001228
  0
VERTEX
  8
0
 10
648.091339
 20
394.691915
 42
0.004489
  0
VERTEX
  8
0
 10
650.390386
 20
391.922184
 42
0.002837
  0
VERTEX
  8
0
 10
653.119453
 20
388.730718
 42
-0.022410
  0
VERTEX
  8
0
 10
663.316653
 20
375.815032
 42
-0.018294
  0
VERTEX
  8
0
 10
673.069708
 20
361.151193
 42
-0.018678
  0
VERTEX
  8
0
 10
681.435050
 20
346.300298
 42
-0.028943
  0
VERTEX
  8
0
 10
687.403414
 20
332.854874
 42
-0.026132
  0
VERTEX
  8
0
 10
691.311127
 20
320.556063
 42
-0.023192
  0
VERTEX
  8
0
 10
694.097755
 20
307.418589
 42
-0.023996
  0
VERTEX
  8
0
 10
695.560659
 20
294.715553
 42
-0.038057
  0
VERTEX
  8
0
 10
695.457726
 20
283.769591
 42
-0.004304
  0
VERTEX
  8
0
 10
694.996289
 20
278.879840
 42
-0.070833
  0
VERTEX
  8
0
 10
694.600623
 20
277.291432
 42
-0.307310
  0
VERTEX
  8
0
 10
693.915371
 20
276.833669
 42
-0.121603
  0
VERTEX
  8
0
 10
692.761875
 20
277.127441
 42
0.082448
  0
VERTEX
  8
0
 10
691.591608
 20
277.524201
 42
0.019296
  0
VERTEX
  8
0
 10
689.529712
 20
277.780694
 42
0.019377
  0
VERTEX
  8
0
 10
687.104123
 20
277.893382
 42
0.017952
  0
VERTEX
  8
0
 10
684.614222
 20
277.823087
 42
0.052079
  0
VERTEX
  8
0
 10
678.927691
 20
276.857559
 42
0.034056
  0
VERTEX
  8
0
 10
672.652409
 20
274.635376
 42
0.028726
  0
VERTEX
  8
0
 10
665.678330
 20
271.129021
 42
0.017513
  0
VERTEX
  8
0
 10
657.856681
 20
266.243533
 42
-0.026212
  0
VERTEX
  8
0
 10
645.744635
 20
258.967916
 42
-0.048484
  0
VERTEX
  8
0
 10
635.145020
 20
254.590751
 42
-0.062421
  0
VERTEX
  8
0
 10
626.100077
 20
253.037634
 42
-0.111905
  0
VERTEX
  8
0
 10
618.717881
 20
254.361984
 42
-0.051111
  0
VERTEX
  8
0
 10
615.488202
 20
256.136964
 42
-0.089020
  0
VERTEX
  8
0
 10
613.326382
 20
258.285124
 42
-0.094051
  0
VERTEX
  8
0
 10
612.119788
 20
260.962215
 42
-0.062835
  0
VERTEX
  8
0
 10
611.748427
 20
264.312647
 42
-0.081140
  0
VERTEX
  8
0
 10
612.923211
 20
270.878780
 42
-0.072552
  0
VERTEX
  8
0
 10
616.146387
 20
277.012629
 42
-0.068619
  0
VERTEX
  8
0
 10
621.184361
 20
282.253180
 42
-0.060497
  0
VERTEX
  8
0
 10
627.662439
 20
286.200315
 42
-0.000519
  0
VERTEX
  8
0
 10
630.368275
 20
287.426076
 42
-0.000279
  0
VERTEX
  8
0
 10
633.708505
 20
288.932806
 42
-0.000277
  0
VERTEX
  8
0
 10
637.116175
 20
290.465397
 42
-0.000435
  0
VERTEX
  8
0
 10
640.047367
 20
291.778672
 42
0.042191
  0
VERTEX
  8
0
 10
647.477044
 20
295.882786
 42
0.067647
  0
VERTEX
  8
0
 10
652.894109
 20
300.673358
 42
0.068453
  0
VERTEX
  8
0
 10
656.793900
 20
306.692240
 42
0.044328
  0
VERTEX
  8
0
 10
659.640646
 20
314.500000
 42
0.019926
  0
VERTEX
  8
0
 10
660.153577
 20
316.781107
 42
0.012041
  0
VERTEX
  8
0
 10
660.587411
 20
319.517125
 42
0.012054
  0
VERTEX
  8
0
 10
660.887724
 20
322.259664
 42
0.020656
  0
VERTEX
  8
0
 10
660.988131
 20
324.558299
 42
0.000000
  0
VERTEX
  8
0
 10
661.000000
 20
329.616598
 42
0.000000
  0
VERTEX
  8
0
 10
653.250000
 20
325.791485
 42
-0.069929
  0
VERTEX
  8
0
 10
629.148270
 20
317.835051
 42
-0.044779
  0
VERTEX
  8
0
 10
599.741066
 20
315.189323
 42
-0.044697
  0
VERTEX
  8
0
 10
570.246047
 20
317.824450
 42
-0.068367
  0
VERTEX
  8
0
 10
545.868415
 20
325.766827
 42
0.000000
  0
VERTEX
  8
0
 10
538.000000
 20
329.582095
 42
0.000000
  0
VERTEX
  8
0
 10
538.015621
 20
325.041048
 42
0.036097
  0
VERTEX
  8
0
 10
538.403567
 20
319.919398
 42
0.026923
  0
VERTEX
  8
0
 10
539.538349
 20
314.366887
 42
0.027218
  0
VERTEX
  8
0
 10
541.236075
 20
309.064203
 42
0.041478
  0
VERTEX
  8
0
 10
543.325266
 20
304.707949
 42
0.045138
  0
VERTEX
  8
0
 10
546.741403
 20
299.925915
 42
0.066820
  0
VERTEX
  8
0
 10
550.586735
 20
296.506500
 42
0.036752
  0
VERTEX
  8
0
 10
556.676459
 20
293.020366
 42
0.005470
  0
VERTEX
  8
0
 10
569.500000
 20
287.053455
 42
-0.034047
  0
VERTEX
  8
0
 10
575.430445
 20
283.870102
 42
-0.050753
  0
VERTEX
  8
0
 10
580.070253
 20
280.253314
 42
-0.056050
  0
VERTEX
  8
0
 10
583.548804
 20
276.083581
 42
-0.056376
  0
VERTEX
  8
0
 10
586.006434
 20
271.253257
 42
-0.013787
  0
VERTEX
  8
0
 10
587.453587
 20
267.034517
 42
-0.067304
  0
VERTEX
  8
0
 10
587.875915
 20
264.551519
 42
-0.087304
  0
VERTEX
  8
0
 10
587.566823
 20
262.359667
 42
-0.032212
  0
VERTEX
  8
0
 10
586.408773
 20
259.448997
 42
-0.048734
  0
VERTEX
  8
0
 10
585.415773
 20
257.794136
 42
-0.058807
  0
VERTEX
  8
0
 10
584.173929
 20
256.475261
 42
-0.052971
  0
VERTEX
  8
0
 10
582.551101
 20
255.383627
 42
-0.030384
  0
VERTEX
  8
0
 10
580.400435
 20
254.408826
 42
-0.093854
  0
VERTEX
  8
0
 10
573.436395
 20
253.158486
 42
-0.060861
  0
VERTEX
  8
0
 10
565.300812
 20
254.231068
 42
-0.050337
  0
VERTEX
  8
0
 10
556.187444
 20
257.591240
 42
-0.031490
  0
VERTEX
  8
0
 10
546.292739
 20
263.214470
 42
0.004284
  0
VERTEX
  8
0
 10
538.326708
 20
268.333723
 42
0.013299
  0
VERTEX
  8
0
 10
532.836085
 20
271.595310
 42
0.018571
  0
VERTEX
  8
0
 10
528.307543
 20
273.908680
 42
0.019283
  0
VERTEX
  8
0
 10
523.675516
 20
275.848447
 42
0.039473
  0
VERTEX
  8
0
 10
518.941563
 20
277.205193
 42
0.033143
  0
VERTEX
  8
0
 10
513.766647
 20
277.902552
 42
0.033778
  0
VERTEX
  8
0
 10
509.081561
 20
277.903300
 42
0.106406
  0
VERTEX
  8
0
 10
506.077489
 20
277.041471
 42
-0.164358
  0
VERTEX
  8
0
 10
505.106803
 20
276.879246
 42
-0.267083
  0
VERTEX
  8
0
 10
504.475903
 20
277.391721
 42
-0.065209
  0
VERTEX
  8
0
 10
504.086727
 20
279.007283
 42
-0.005472
  0
VERTEX
  8
0
 10
503.677595
 20
283.291471
 42
-0.066711
  0
VERTEX
  8
0
 10
504.878796
 20
307.805918
 42
-0.048294
  0
VERTEX
  8
0
 10
512.410682
 20
334.127837
 42
-0.044070
  0
VERTEX
  8
0
 10
525.797102
 20
360.924429
 42
-0.036364
  0
VERTEX
  8
0
 10
544.466893
 20
386.852046
 42
0.003857
  0
VERTEX
  8
0
 10
547.759946
 20
390.849707
 42
0.006391
  0
VERTEX
  8
0
 10
550.468811
 20
394.279043
 42
0.001642
  0
VERTEX
  8
0
 10
552.756978
 20
397.273451
 42
0.374865
  0
VERTEX
  8
0
 10
552.734808
 20
397.598526
 42
0.302647
  0
VERTEX
  8
0
 10
552.389936
 20
397.667584
 42
0.002728
  0
VERTEX
  8
0
 10
549.835934
 20
396.601016
 42
0.008059
  0
VERTEX
  8
0
 10
546.868382
 20
395.285864
 42
0.004977
  0
VERTEX
  8
0
 10
543.420187
 20
393.648863
 42
0.032394
  0
VERTEX
  8
0
 10
532.675942
 20
387.526259
 42
0.024024
  0
VERTEX
  8
0
 10
521.636335
 20
379.464295
 42
0.023007
  0
VERTEX
  8
0
 10
510.883244
 20
369.941352
 42
0.022655
  0
VERTEX
  8
0
 10
500.992486
 20
359.423595
 42
-0.007537
  0
VERTEX
  8
0
 10
498.171239
 20
356.235688
 42
-0.012279
  0
VERTEX
  8
0
 10
495.671756
 20
353.627336
 42
-0.005959
  0
VERTEX
  8
0
 10
493.526770
 20
351.546432
 42
-0.340262
  0
VERTEX
  8
0
 10
493.010660
 20
351.493412
 42
-0.108298
  0
VERTEX
  8
0
 10
491.126231
 20
353.318233
 42
-0.000916
  0
VERTEX
  8
0
 10
479.869252
 20
370.355439
 42
-0.003639
  0
VERTEX
  8
0
 10
469.386482
 20
386.539549
 42
-0.009792
  0
VERTEX
  8
0
 10
462.244576
 20
398.243160
 42
-0.011988
  0
VERTEX
  8
0
 10
452.144649
 20
416.541297
 42
-0.012686
  0
VERTEX
  8
0
 10
443.131520
 20
434.963924
 42
-0.013536
  0
VERTEX
  8
0
 10
435.837694
 20
452.092967
 42
-0.025487
  0
VERTEX
  8
0
 10
431.046018
 20
466.336002
 42
-0.013441
  0
VERTEX
  8
0
 10
429.913242
 20
470.834473
 42
-0.038294
  0
VERTEX
  8
0
 10
429.452426
 20
474.029235
 42
-0.036391
  0
VERTEX
  8
0
 10
429.472485
 20
477.345484
 42
-0.011208
  0
VERTEX
  8
0
 10
429.978044
 20
482.323309
 42
-0.019582
  0
VERTEX
  8
0
 10
430.922539
 20
488.073867
 42
-0.014811
  0
VERTEX
  8
0
 10
432.391012
 20
494.301449
 42
-0.013922
  0
VERTEX
  8
0
 10
434.047013
 20
499.870446
 42
-0.059244
  0
VERTEX
  8
0
 10
435.508604
 20
503.013922
 42
-0.486694
  0
VERTEX
  8
0
 10
435.918730
 20
503.059771
 42
-0.031703
  0
VERTEX
  8
0
 10
436.821233
 20
502.015800
 42
-0.027103
  0
VERTEX
  8
0
 10
437.928835
 20
500.380274
 42
-0.014352
  0
VERTEX
  8
0
 10
439.129829
 20
498.245104
 42
0.034939
  0
VERTEX
  8
0
 10
444.118729
 20
490.171993
 42
0.028053
  0
VERTEX
  8
0
 10
450.537276
 20
482.226060
 42
0.028379
  0
VERTEX
  8
0
 10
457.695880
 20
475.165578
 42
0.039349
  0
VERTEX
  8
0
 10
464.905480
 20
469.762909
 42
0.000000
  0
VERTEX
  8
0
 10
468.002983
 20
467.801709
 42
0.000000
  0
VERTEX
  8
0
 10
463.998425
 20
476.150854
 42
-0.027197
  0
VERTEX
  8
0
 10
460.429130
 20
484.764385
 42
-0.038570
  0
VERTEX
  8
0
 10
458.286747
 20
492.773926
 42
-0.036081
  0
VERTEX
  8
0
 10
457.314036
 20
501.412519
 42
-0.020146
  0
VERTEX
  8
0
 10
457.317093
 20
512.000000
 42
-0.017333
  0
VERTEX
  8
0
 10
457.948085
 20
520.370806
 42
-0.019906
  0
VERTEX
  8
0
 10
459.143577
 20
528.296608
 42
-0.012615
  0
VERTEX
  8
0
 10
460.597178
 20
534.961318
 42
-0.345552
  0
VERTEX
  8
0
 10
461.920650
 20
536.000000
 42
-0.183482
  0
VERTEX
  8
0
 10
462.333960
 20
535.843046
 42
-0.003335
  0
VERTEX
  8
0
 10
464.111667
 20
534.244042
 42
-0.007794
  0
VERTEX
  8
0
 10
466.164405
 20
532.313302
 42
-0.005068
  0
VERTEX
  8
0
 10
468.477961
 20
530.022271
 42
0.000000
  0
VERTEX
  8
0
 10
474.393316
 20
524.044542
 42
0.000000
  0
VERTEX
  8
0
 10
472.196658
 20
520.136116
 42
0.131251
  0
VERTEX
  8
0
 10
469.789934
 20
510.750698
 42
0.110043
  0
VERTEX
  8
0
 10
472.131463
 20
500.713727
 42
0.130344
  0
VERTEX
  8
0
 10
478.072797
 20
493.768063
 42
0.215719
  0
VERTEX
  8
0
 10
485.531019
 20
492.418429
 42
0.127778
  0
VERTEX
  8
0
 10
487.754488
 20
493.633355
 42
0.058776
  0
VERTEX
  8
0
 10
489.893865
 20
496.177869
 42
0.057125
  0
VERTEX
  8
0
 10
491.465751
 20
499.291024
 42
0.088250
  0
VERTEX
  8
0
 10
491.996262
 20
502.250000
 42
-0.026651
  0
VERTEX
  8
0
 10
492.053905
 20
503.303747
 42
-0.042031
  0
VERTEX
  8
0
 10
492.226566
 20
504.192187
 42
-0.051351
  0
VERTEX
  8
0
 10
492.475745
 20
504.818641
 42
-0.279346
  0
VERTEX
  8
0
 10
492.775028
 20
505.000000
 42
-0.183183
  0
VERTEX
  8
0
 10
493.274719
 20
504.810574
 42
-0.003278
  0
VERTEX
  8
0
 10
495.442098
 20
502.866051
 42
-0.007718
  0
VERTEX
  8
0
 10
497.944395
 20
500.519705
 42
-0.005016
  0
VERTEX
  8
0
 10
500.766079
 20
497.735492
 42
0.000000
  0
VERTEX
  8
0
 10
507.982104
 20
490.470984
 42
0.000000
  0
VERTEX
  8
0
 10
505.831172
 20
486.123565
 42
-0.104319
  0
VERTEX
  8
0
 10
501.881890
 20
481.111296
 42
-0.115956
  0
VERTEX
  8
0
 10
496.383144
 20
478.354710
 42
-0.101974
  0
VERTEX
  8
0
 10
489.653221
 20
478.148906
 42
-0.065852
  0
VERTEX
  8
0
 10
482.188113
 20
480.492437
 42
0.000000
  0
VERTEX
  8
0
 10
476.876227
 20
482.965335
 42
0.000000
  0
VERTEX
  8
0
 10
477.538541
 20
480.732668
 42
0.053941
  0
VERTEX
  8
0
 10
480.105057
 20
474.596618
 42
0.018552
  0
VERTEX
  8
0
 10
485.068616
 20
466.335487
 42
0.017818
  0
VERTEX
  8
0
 10
491.385873
 20
457.368912
 42
0.017313
  0
VERTEX
  8
0
 10
498.383792
 20
448.785931
 42
0.008515
  0
VERTEX
  8
0
 10
501.130277
 20
445.751731
 42
0.052818
  0
VERTEX
  8
0
 10
502.717588
 20
444.380308
 42
0.132360
  0
VERTEX
  8
0
 10
503.858343
 20
443.971854
 42
0.194163
  0
VERTEX
  8
0
 10
504.863301
 20
444.285931
 42
0.072870
  0
VERTEX
  8
0
 10
507.289444
 20
446.949150
 42
0.009490
  0
VERTEX
  8
0
 10
511.473204
 20
453.413787
 42
0.011794
  0
VERTEX
  8
0
 10
515.485997
 20
460.234019
 42
0.030679
  0
VERTEX
  8
0
 10
517.946772
 20
465.368854
 42
-0.010065
  0
VERTEX
  8
0
 10
518.873751
 20
467.527075
 42
-0.015614
  0
VERTEX
  8
0
 10
519.768162
 20
469.345851
 42
-0.009877
  0
VERTEX
  8
0
 10
520.572147
 20
470.789903
 42
-0.266832
  0
VERTEX
  8
0
 10
520.937804
 20
471.000000
 42
-0.268437
  0
VERTEX
  8
0
 10
522.014020
 20
470.377340
 42
-0.003452
  0
VERTEX
  8
0
 10
526.016387
 20
463.303225
 42
-0.010400
  0
VERTEX
  8
0
 10
529.784268
 20
456.190803
 42
-0.020128
  0
VERTEX
  8
0
 10
532.444364
 20
450.330719
 42
-0.011936
  0
VERTEX
  8
0
 10
533.451550
 20
447.671041
 42
-0.009739
  0
VERTEX
  8
0
 10
534.405186
 20
444.780293
 42
-0.009868
  0
VERTEX
  8
0
 10
535.178827
 20
442.084175
 42
-0.025290
  0
VERTEX
  8
0
 10
535.600177
 20
440.098896
 42
0.021139
  0
VERTEX
  8
0
 10
535.909852
 20
438.577740
 42
0.039235
  0
VERTEX
  8
0
 10
536.307672
 20
437.383428
 42
0.054855
  0
VERTEX
  8
0
 10
536.726305
 20
436.634250
 42
0.395130
  0
VERTEX
  8
0
 10
537.096429
 20
436.559597
 42
0.146817
  0
VERTEX
  8
0
 10
538.278684
 20
437.892236
 42
0.009915
  0
VERTEX
  8
0
 10
540.346369
 20
442.594260
 42
0.013567
  0
VERTEX
  8
0
 10
542.581446
 20
448.402727
 42
0.009750
  0
VERTEX
  8
0
 10
544.772845
 20
455.000000
 42
0.018248
  0
VERTEX
  8
0
 10
546.272689
 20
460.532998
 42
0.033604
  0
VERTEX
  8
0
 10
547.020232
 20
465.134853
 42
0.020404
  0
VERTEX
  8
0
 10
547.337143
 20
471.102836
 42
0.003125
  0
VERTEX
  8
0
 10
547.408518
 20
483.000000
 42
0.007622
  0
VERTEX
  8
0
 10
547.208791
 20
495.889925
 42
0.021750
  0
VERTEX
  8
0
 10
546.543645
 20
504.834094
 42
0.084865
  0
VERTEX
  8
0
 10
545.549512
 20
508.201749
 42
0.678155
  0
VERTEX
  8
0
 10
544.438100
 20
508.115548
 42
-0.034905
  0
VERTEX
  8
0
 10
542.775195
 20
503.845237
 42
-0.006895
  0
VERTEX
  8
0
 10
539.163304
 20
496.460972
 42
-0.001861
  0
VERTEX
  8
0
 10
535.104461
 20
488.518431
 42
-0.301499
  0
VERTEX
  8
0
 10
534.283255
 20
488.060180
 42
-0.201880
  0
VERTEX
  8
0
 10
533.796609
 20
488.310502
 42
-0.002239
  0
VERTEX
  8
0
 10
531.380081
 20
491.221624
 42
-0.006515
  0
VERTEX
  8
0
 10
528.623032
 20
494.663837
 42
-0.004145
  0
VERTEX
  8
0
 10
525.500000
 20
498.738036
 42
0.022041
  0
VERTEX
  8
0
 10
516.324190
 20
509.860523
 42
0.010585
  0
VERTEX
  8
0
 10
503.644252
 20
523.334938
 42
0.010340
  0
VERTEX
  8
0
 10
490.749683
 20
535.936745
 42
0.030235
  0
VERTEX
  8
0
 10
481.185886
 20
543.874964
 42
0.028819
  0
VERTEX
  8
0
 10
469.641997
 20
551.351202
 42
0.035464
  0
VERTEX
  8
0
 10
458.068241
 20
556.887714
 42
0.039639
  0
VERTEX
  8
0
 10
447.312445
 20
560.168476
 42
0.075030
  0
VERTEX
  8
0
 10
438.290811
 20
560.774210
 42
-0.006516
  0
VERTEX
  8
0
 10
434.978304
 20
560.542930
 42
-0.098658
  0
VERTEX
  8
0
 10
433.842474
 20
560.702999
 42
-0.312424
  0
VERTEX
  8
0
 10
433.441047
 20
561.255328
 42
-0.079034
  0
VERTEX
  8
0
 10
433.598639
 20
562.416522
 42
-0.078341
  0
VERTEX
  8
0
 10
438.051264
 20
571.657906
 42
-0.054714
  0
VERTEX
  8
0
 10
445.646301
 20
580.411102
 42
-0.054618
  0
VERTEX
  8
0
 10
454.978183
 20
587.325462
 42
-0.077124
  0
VERTEX
  8
0
 10
464.591878
 20
591.105297
 42
0.000000
  0
VERTEX
  8
0
 10
469.683756
 20
592.247487
 42
0.000000
  0
VERTEX
  8
0
 10
469.220005
 20
601.878198
 42
-0.021863
  0
VERTEX
  8
0
 10
469.184673
 20
609.913598
 42
-0.035796
  0
VERTEX
  8
0
 10
469.937663
 20
616.676605
 42
-0.038622
  0
VERTEX
  8
0
 10
471.587230
 20
622.886259
 42
-0.031548
  0
VERTEX
  8
0
 10
474.264346
 20
629.219476
 42
-0.044912
  0
VERTEX
  8
0
 10
477.309954
 20
634.156246
 42
-0.019665
  0
VERTEX
  8
0
 10
482.160462
 20
640.131693
 42
-0.019652
  0
VERTEX
  8
0
 10
487.458602
 20
645.700668
 42
-0.045548
  0
VERTEX
  8
0
 10
491.939668
 20
649.324211
 42
0.065878
  0
VERTEX
  8
0
 10
493.591079
 20
650.774118
 42
0.575697
  0
VERTEX
  8
0
 10
493.342207
 20
651.510292
 42
0.092343
  0
VERTEX
  8
0
 10
491.143222
 20
651.545296
 42
0.008931
  0
VERTEX
  8
0
 10
485.876873
 20
650.553711
 42
0.035993
  0
VERTEX
  8
0
 10
478.014308
 20
648.327451
 42
0.034663
  0
VERTEX
  8
0
 10
470.448747
 20
644.974453
 42
0.034243
  0
VERTEX
  8
0
 10
463.332064
 20
640.562689
 42
0.033227
  0
VERTEX
  8
0
 10
456.807876
 20
635.179949
 42
0.021835
  0
VERTEX
  8
0
 10
450.932369
 20
629.131286
 42
0.025395
  0
VERTEX
  8
0
 10
445.913332
 20
622.879231
 42
0.021491
  0
VERTEX
  8
0
 10
440.940406
 20
615.333110
 42
0.010057
  0
VERTEX
  8
0
 10
435.129636
 20
605.174699
 42
-0.039628
  0
VERTEX
  8
0
 10
412.953594
 20
571.229887
 42
-0.055930
  0
VERTEX
  8
0
 10
387.833827
 20
545.306127
 42
-0.060899
  0
VERTEX
  8
0
 10
359.428821
 20
527.189197
 42
-0.060925
  0
VERTEX
  8
0
 10
327.500000
 20
516.451856
 42
-0.039507
  0
VERTEX
  8
0
 10
316.028267
 20
515.025091
 42
-0.013182
  0
VERTEX
  8
0
 10
299.102262
 20
514.713586
 42
-0.005149
  0
VERTEX
  8
0
 10
281.672876
 20
515.031845
 42
-0.427295
  0
VERTEX
  8
0
 10
280.049033
 20
516.829594
 42
-0.220593
  0
VERTEX
  8
0
 10
280.269669
 20
517.226605
 42
-0.003173
  0
VERTEX
  8
0
 10
282.523588
 20
518.845847
 42
-0.008057
  0
VERTEX
  8
0
 10
285.216907
 20
520.690488
 42
-0.005142
  0
VERTEX
  8
0
 10
288.404193
 20
522.752011
 42
0.055752
  0
VERTEX
  8
0
 10
307.738011
 20
538.234379
 42
0.036121
  0
VERTEX
  8
0
 10
326.476813
 20
559.948743
 42
0.031651
  0
VERTEX
  8
0
 10
344.313891
 20
587.383833
 42
0.022363
  0
VERTEX
  8
0
 10
360.916795
 20
620.191826
 42
-0.005376
  0
VERTEX
  8
0
 10
366.938920
 20
633.167645
 42
-0.017602
  0
VERTEX
  8
0
 10
371.309782
 20
641.553586
 42
-0.023439
  0
VERTEX
  8
0
 10
375.531195
 20
648.248950
 42
-0.017261
  0
VERTEX
  8
0
 10
380.795677
 20
655.261974
 42
-0.049457
  0
VERTEX
  8
0
 10
391.408573
 20
666.048508
 42
-0.046142
  0
VERTEX
  8
0
 10
404.170714
 20
674.825721
 42
-0.044514
  0
VERTEX
  8
0
 10
418.780724
 20
681.372452
 42
-0.039753
  0
VERTEX
  8
0
 10
434.880990
 20
685.532226
 42
-0.035901
  0
VERTEX
  8
0
 10
447.872767
 20
686.856786
 42
-0.021045
  0
VERTEX
  8
0
 10
463.511353
 20
686.665169
 42
-0.021045
  0
VERTEX
  8
0
 10
479.080209
 20
685.159349
 42
-0.035865
  0
VERTEX
  8
0
 10
491.857485
 20
682.433252
 42
0.006831
  0
VERTEX
  8
0
 10
493.934739
 20
681.862283
 42
0.010693
  0
VERTEX
  8
0
 10
495.737809
 20
681.434024
 42
0.005068
  0
VERTEX
  8
0
 10
497.258354
 20
681.123141
 42
0.249209
  0
VERTEX
  8
0
 10
497.543820
 20
681.210487
 42
0.252924
  0
VERTEX
  8
0
 10
497.979095
 20
682.669432
 42
0.001552
  0
VERTEX
  8
0
 10
495.023407
 20
696.631106
 42
0.006602
  0
VERTEX
  8
0
 10
492.045529
 20
709.646380
 42
0.019610
  0
VERTEX
  8
0
 10
489.539497
 20
718.449300
 42
0.028556
  0
VERTEX
  8
0
 10
484.307004
 20
731.794910
 42
0.027957
  0
VERTEX
  8
0
 10
477.555386
 20
744.555571
 42
0.029196
  0
VERTEX
  8
0
 10
469.806371
 20
755.859747
 42
0.041719
  0
VERTEX
  8
0
 10
461.586151
 20
764.813824
 42
0.000000
  0
VERTEX
  8
0
 10
457.032093
 20
769.011608
 42
0.000000
  0
VERTEX
  8
0
 10
445.276559
 20
756.578625
 42
-0.001999
  0
VERTEX
  8
0
 10
440.750331
 20
751.829729
 42
-0.003336
  0
VERTEX
  8
0
 10
436.898380
 20
747.873664
 42
-0.000448
  0
VERTEX
  8
0
 10
433.468786
 20
744.404297
 42
-0.415640
  0
VERTEX
  8
0
 10
433.262871
 20
744.403796
 42
-0.258660
  0
VERTEX
  8
0
 10
433.139436
 20
744.834394
 42
-0.000035
  0
VERTEX
  8
0
 10
439.453736
 20
772.155867
 42
-0.000290
  0
VERTEX
  8
0
 10
445.429763
 20
797.937074
 42
-0.024859
  0
VERTEX
  8
0
 10
446.530296
 20
801.792375
 42
0.694818
  0
VERTEX
  8
0
 10
446.149504
 20
802.102891
 42
0.011909
  0
VERTEX
  8
0
 10
442.940734
 20
800.116956
 42
0.008956
  0
VERTEX
  8
0
 10
437.703384
 20
796.565055
 42
0.001792
  0
VERTEX
  8
0
 10
428.500000
 20
790.030329
 42
0.000000
  0
VERTEX
  8
0
 10
424.500000
 20
787.168575
 42
0.000000
  0
VERTEX
  8
0
 10
413.500000
 20
789.955328
 42
0.004830
  0
VERTEX
  8
0
 10
408.919955
 20
791.068672
 42
0.004631
  0
VERTEX
  8
0
 10
404.254811
 20
792.109625
 42
0.004590
  0
VERTEX
  8
0
 10
400.122967
 20
792.951899
 42
0.016625
  0
VERTEX
  8
0
 10
397.473826
 20
793.375792
 42
0.000000
  0
VERTEX
  8
0
 10
392.447652
 20
794.009502
 42
0.000000
  0
VERTEX
  8
0
 10
385.507628
 20
780.015382
 42
-0.006546
  0
VERTEX
  8
0
 10
382.766833
 20
774.665860
 42
-0.012377
  0
VERTEX
  8
0
 10
380.395707
 20
770.439947
 42
-0.007777
  0
VERTEX
  8
0
 10
378.425300
 20
767.237824
 42
-0.578974
  0
VERTEX
  8
0
 10
377.929994
 20
767.260631
 42
-0.065744
  0
VERTEX
  8
0
 10
377.575874
 20
768.249576
 42
-0.000719
  0
VERTEX
  8
0
 10
376.072546
 20
775.264319
 42
-0.002241
  0
VERTEX
  8
0
 10
374.384190
 20
783.376517
 42
-0.001455
  0
VERTEX
  8
0
 10
372.502135
 20
792.766838
 42
0.001996
  0
VERTEX
  8
0
 10
369.873537
 20
805.808785
 42
0.014246
  0
VERTEX
  8
0
 10
368.397270
 20
812.075148
 42
0.033178
  0
VERTEX
  8
0
 10
367.345762
 20
815.183615
 42
0.597949
  0
VERTEX
  8
0
 10
366.520092
 20
815.266838
 42
0.012449
  0
VERTEX
  8
0
 10
365.786521
 20
814.118663
 42
0.001124
  0
VERTEX
  8
0
 10
364.030347
 20
811.198127
 42
0.001460
  0
VERTEX
  8
0
 10
361.953583
 20
807.703686
 42
0.001140
  0
VERTEX
  8
0
 10
359.717949
 20
803.897000
 42
0.000000
  0
VERTEX
  8
0
 10
354.107602
 20
794.293999
 42
0.000000
  0
VERTEX
  8
0
 10
342.303801
 20
793.071396
 42
0.002020
  0
VERTEX
  8
0
 10
337.491387
 20
792.553277
 42
0.002164
  0
VERTEX
  8
0
 10
332.792366
 20
792.007549
 42
0.002050
  0
VERTEX
  8
0
 10
328.758593
 20
791.504593
 42
0.010193
  0
VERTEX
  8
0
 10
326.500000
 20
791.166637
 42
0.000000
  0
VERTEX
  8
0
 10
322.500000
 20
790.484481
 42
0.000000
  0
VERTEX
  8
0
 10
318.751479
 20
779.492241
 42
-0.001496
  0
VERTEX
  8
0
 10
314.662701
 20
767.618627
 42
-0.016635
  0
VERTEX
  8
0
 10
312.860399
 20
762.942769
 42
-0.063158
  0
VERTEX
  8
0
 10
311.762065
 20
761.056621
 42
-0.539236
  0
VERTEX
  8
0
 10
310.956214
 20
761.114540
 42
-0.034291
  0
VERTEX
  8
0
 10
310.458556
 20
762.167773
 42
-0.000709
  0
VERTEX
  8
0
 10
308.345979
 20
767.591317
 42
-0.001656
  0
VERTEX
  8
0
 10
305.905782
 20
773.944622
 42
-0.001113
  0
VERTEX
  8
0
 10
303.158473
 20
781.217605
 42
0.001236
  0
VERTEX
  8
0
 10
300.405110
 20
788.501210
 42
0.001816
  0
VERTEX
  8
0
 10
297.945974
 20
794.888324
 42
0.000844
  0
VERTEX
  8
0
 10
295.822146
 20
800.318193
 42
0.033931
  0
VERTEX
  8
0
 10
295.275649
 20
801.471926
 42
0.431927
  0
VERTEX
  8
0
 10
294.607038
 20
801.639197
 42
0.096077
  0
VERTEX
  8
0
 10
293.650691
 20
800.726829
 42
0.033739
  0
VERTEX
  8
0
 10
292.244535
 20
798.432865
 42
0.006679
  0
VERTEX
  8
0
 10
290.064494
 20
794.131579
 42
0.000000
  0
VERTEX
  8
0
 10
285.713330
 20
785.254515
 42
0.000000
  0
VERTEX
  8
0
 10
274.106665
 20
784.114007
 42
-0.003584
  0
VERTEX
  8
0
 10
254.018344
 20
782.285343
 42
-0.008681
  0
VERTEX
  8
0
 10
239.151690
 20
781.298956
 42
-0.008558
  0
VERTEX
  8
0
 10
224.136372
 20
780.821693
 42
-0.003393
  0
VERTEX
  8
0
 10
203.500000
 20
780.659253
 42
-0.001654
  0
VERTEX
  8
0
 10
183.687270
 20
780.703308
 42
-0.011223
  0
VERTEX
  8
0
 10
173.896294
 20
780.977301
 42
-0.020868
  0
VERTEX
  8
0
 10
166.901300
 20
781.623738
 42
-0.017108
  0
VERTEX
  8
0
 10
159.500000
 20
782.879714
 42
-0.005201
  0
VERTEX
  8
0
 10
150.028056
 20
784.925434
 42
-0.012036
  0
VERTEX
  8
0
 10
142.973853
 20
786.705514
 42
-0.007131
  0
VERTEX
  8
0
 10
137.638374
 20
788.271669
 42
-0.328899
  0
VERTEX
  8
0
 10
137.000000
 20
789.137159
 42
-0.398938
  0
VERTEX
  8
0
 10
137.289388
 20
789.442133
 42
-0.007315
  0
VERTEX
  8
0
 10
139.717187
 20
789.533954
 42
-0.013676
  0
VERTEX
  8
0
 10
142.703140
 20
789.521480
 42
-0.008174
  0
VERTEX
  8
0
 10
146.250000
 20
789.351544
 42
0.015884
  0
VERTEX
  8
0
 10
150.980617
 20
789.197948
 42
0.005266
  0
VERTEX
  8
0
 10
157.923438
 20
789.266271
 42
0.005237
  0
VERTEX
  8
0
 10
165.621670
 20
789.503821
 42
0.005931
  0
VERTEX
  8
0
 10
173.000000
 20
789.896607
 42
0.014391
  0
VERTEX
  8
0
 10
197.535757
 20
792.205513
 42
0.015625
  0
VERTEX
  8
0
 10
221.229520
 20
795.879947
 42
0.014456
  0
VERTEX
  8
0
 10
246.187421
 20
801.304274
 42
0.009477
  0
VERTEX
  8
0
 10
274.612826
 20
808.923115
 42
-0.012193
  0
VERTEX
  8
0
 10
314.664614
 20
819.425349
 42
-0.021910
  0
VERTEX
  8
0
 10
348.034136
 20
825.782229
 42
-0.025872
  0
VERTEX
  8
0
 10
377.503518
 20
828.521808
 42
-0.030507
  0
SEQEND
  0
POLYLINE
  8
0
 66
1
 70
1
  0
VERTEX
  8
0
 10
513.121037
 20
225.750674
 42
0.051569
  0
VERTEX
  8
0
 10
519.356292
 20
216.100331
 42
0.031980
  0
VERTEX
  8
0
 10
528.467612
 20
206.134327
 42
0.027780
  0
VERTEX
  8
0
 10
540.270893
 20
195.975013
 42
0.018995
  0
VERTEX
  8
0
 10
554.700052
 20
185.735813
 42
-0.011722
  0
VERTEX
  8
0
 10
564.093335
 20
179.273474
 42
-0.014852
  0
VERTEX
  8
0
 10
572.442894
 20
172.849954
 42
-0.016423
  0
VERTEX
  8
0
 10
579.313361
 20
166.844735
 42
-0.035725
  0
VERTEX
  8
0
 10
584.075716
 20
161.714582
 42
-0.029947
  0
VERTEX
  8
0
 10
587.642319
 20
156.686248
 42
-0.023653
  0
VERTEX
  8
0
 10
590.897846
 20
150.862965
 42
-0.022759
  0
VERTEX
  8
0
 10
593.328680
 20
145.374890
 42
-0.093056
  0
VERTEX
  8
0
 10
593.999211
 20
141.809017
 42
0.027652
  0
VERTEX
  8
0
 10
594.058559
 20
140.742395
 42
0.034110
  0
VERTEX
  8
0
 10
594.235917
 20
139.762563
 42
0.036402
  0
VERTEX
  8
0
 10
594.493160
 20
138.986393
 42
0.157385
  0
VERTEX
  8
0
 10
594.803909
 20
138.621191
 42
0.280865
  0
VERTEX
  8
0
 10
596.393254
 20
138.611730
 42
0.001916
  0
VERTEX
  8
0
 10
608.576852
 20
146.006356
 42
0.007746
  0
VERTEX
  8
0
 10
620.528780
 20
153.580186
 42
0.012377
  0
VERTEX
  8
0
 10
630.470088
 20
160.455628
 42
0.026248
  0
VERTEX
  8
0
 10
651.815750
 20
177.798597
 42
0.038069
  0
VERTEX
  8
0
 10
668.535477
 20
195.393288
 42
0.043491
  0
VERTEX
  8
0
 10
680.596042
 20
213.140868
 42
0.059976
  0
VERTEX
  8
0
 10
687.917792
 20
230.945901
 42
-0.004467
  0
VERTEX
  8
0
 10
688.735095
 20
233.796040
 42
-0.006578
  0
VERTEX
  8
0
 10
689.508108
 20
236.283031
 42
-0.003355
  0
VERTEX
  8
0
 10
690.202576
 20
238.370113
 42
-0.114868
  0
VERTEX
  8
0
 10
690.475760
 20
238.809093
 42
-0.674825
  0
VERTEX
  8
0
 10
691.251471
 20
238.479425
 42
-0.002939
  0
VERTEX
  8
0
 10
690.953730
 20
226.179278
 42
-0.007983
  0
VERTEX
  8
0
 10
690.407985
 20
214.335418
 42
-0.027666
  0
VERTEX
  8
0
 10
689.510210
 20
206.718892
 42
-0.044150
  0
VERTEX
  8
0
 10
684.964574
 20
189.692552
 42
-0.045743
  0
VERTEX
  8
0
 10
677.538384
 20
173.941139
 42
-0.045835
  0
VERTEX
  8
0
 10
667.387893
 20
159.830245
 42
-0.044684
  0
VERTEX
  8
0
 10
654.756748
 20
147.672682
 42
0.009583
  0
VERTEX
  8
0
 10
648.923204
 20
142.797392
 42
0.031993
  0
VERTEX
  8
0
 10
645.375250
 20
139.292562
 42
0.039110
  0
VERTEX
  8
0
 10
642.687762
 20
135.752703
 42
0.020373
  0
VERTEX
  8
0
 10
639.882212
 20
130.969319
 42
0.033476
  0
VERTEX
  8
0
 10
638.625164
 20
128.175342
 42
0.047686
  0
VERTEX
  8
0
 10
637.924525
 20
125.547452
 42
0.033070
  0
VERTEX
  8
0
 10
637.590965
 20
122.193946
 42
0.008256
  0
VERTEX
  8
0
 10
637.500000
 20
116.685484
 42
0.000000
  0
VERTEX
  8
0
 10
637.500000
 20
106.870968
 42
0.000000
  0
VERTEX
  8
0
 10
634.046513
 20
107.518972
 42
-0.048038
  0
VERTEX
  8
0
 10
629.575047
 20
108.811939
 42
-0.046240
  0
VERTEX
  8
0
 10
625.371382
 20
110.946714
 42
-0.043947
  0
VERTEX
  8
0
 10
621.446567
 20
113.931297
 42
-0.035854
  0
VERTEX
  8
0
 10
617.805222
 20
117.753798
 42
0.029454
  0
VERTEX
  8
0
 10
615.801449
 20
119.911853
 42
0.379412
  0
VERTEX
  8
0
 10
614.787995
 20
119.950684
 42
0.152256
  0
VERTEX
  8
0
 10
613.966474
 20
118.701237
 42
0.006160
  0
VERTEX
  8
0
 10
612.521025
 20
113.419412
 42
0.054941
  0
VERTEX
  8
0
 10
611.134725
 20
103.928022
 42
0.039455
  0
VERTEX
  8
0
 10
611.602278
 20
93.213377
 42
0.038873
  0
VERTEX
  8
0
 10
613.775715
 20
82.501725
 42
0.047819
  0
VERTEX
  8
0
 10
617.495332
 20
73.009212
 42
0.000000
  0
VERTEX
  8
0
 10
620.121534
 20
67.826651
 42
0.000000
  0
VERTEX
  8
0
 10
617.810767
 20
68.501524
 42
-0.029636
  0
VERTEX
  8
0
 10
616.419390
 20
68.999048
 42
-0.003508
  0
VERTEX
  8
0
 10
613.407987
 20
70.306751
 42
-0.004184
  0
VERTEX
  8
0
 10
609.848436
 20
71.918022
 42
-0.003420
  0
VERTEX
  8
0
 10
606.067488
 20
73.699282
 42
-0.041769
  0
VERTEX
  8
0
 10
596.783269
 20
79.146592
 42
-0.041394
  0
VERTEX
  8
0
 10
588.503385
 20
86.075967
 42
-0.041214
  0
VERTEX
  8
0
 10
581.445998
 20
94.306041
 42
-0.040629
  0
VERTEX
  8
0
 10
575.796246
 20
103.620123
 42
-0.015539
  0
VERTEX
  8
0
 10
573.916487
 20
107.687069
 42
-0.010876
  0
VERTEX
  8
0
 10
572.042994
 20
112.375923
 42
-0.010986
  0
VERTEX
  8
0
 10
570.443003
 20
116.951251
 42
-0.022380
  0
VERTEX
  8
0
 10
569.428859
 20
120.620123
 42
0.002043
  0
VERTEX
  8
0
 10
568.718609
 20
123.667000
 42
0.003155
  0
VERTEX
  8
0
 10
568.077403
 20
126.293876
 42
0.001016
  0
VERTEX
  8
0
 10
567.503808
 20
128.561487
 42
0.093742
  0
VERTEX
  8
0
 10
567.359954
 20
128.869669
 42
0.389351
  0
VERTEX
  8
0
 10
567.119035
 20
128.919648
 42
0.005271
  0
VERTEX
  8
0
 10
565.718705
 20
128.063841
 42
0.011571
  0
VERTEX
  8
0
 10
564.062472
 20
126.973377
 42
0.006957
  0
VERTEX
  8
0
 10
562.146197
 20
125.607318
 42
-0.024850
  0
VERTEX
  8
0
 10
557.957353
 20
122.841694
 42
-0.018985
  0
VERTEX
  8
0
 10
553.126203
 20
120.228198
 42
-0.010516
  0
VERTEX
  8
0
 10
548.550350
 20
118.091367
 42
-0.309679
  0
VERTEX
  8
0
 10
547.351166
 20
118.315501
 42
-0.221108
  0
VERTEX
  8
0
 10
547.212033
 20
118.696440
 42
-0.013797
  0
VERTEX
  8
0
 10
547.350297
 20
119.918930
 42
-0.018302
  0
VERTEX
  8
0
 10
547.617501
 20
121.414374
 42
-0.012406
  0
VERTEX
  8
0
 10
548.025922
 20
123.096267
 42
0.033658
  0
VERTEX
  8
0
 10
548.469607
 20
125.333919
 42
0.010797
  0
VERTEX
  8
0
 10
548.831095
 20
128.703887
 42
0.010717
  0
VERTEX
  8
0
 10
549.072644
 20
132.482829
 42
0.011788
  0
VERTEX
  8
0
 10
549.141690
 20
136.150335
 42
0.047635
  0
VERTEX
  8
0
 10
548.179677
 20
145.743228
 42
0.033654
  0
VERTEX
  8
0
 10
545.368199
 20
156.209336
 42
0.032298
  0
VERTEX
  8
0
 10
540.997470
 20
166.713973
 42
0.033499
  0
VERTEX
  8
0
 10
535.356017
 20
176.434999
 42
0.044149
  0
VERTEX
  8
0
 10
534.541609
 20
177.439947
 42
0.363275
  0
VERTEX
  8
0
 10
533.998215
 20
177.496996
 42
0.137633
  0
VERTEX
  8
0
 10
533.455326
 20
176.858890
 42
0.007577
  0
VERTEX
  8
0
 10
532.383775
 20
174.434999
 42
0.041600
  0
VERTEX
  8
0
 10
531.693426
 20
172.337362
 42
0.020172
  0
VERTEX
  8
0
 10
531.147435
 20
169.565023
 42
0.018712
  0
VERTEX
  8
0
 10
530.778384
 20
166.416930
 42
0.016913
  0
VERTEX
  8
0
 10
530.629416
 20
163.141923
 42
0.000000
  0
VERTEX
  8
0
 10
530.543823
 20
155.783846
 42
0.000000
  0
VERTEX
  8
0
 10
527.686119
 20
159.141923
 42
-0.030695
  0
VERTEX
  8
0
 10
520.839513
 20
168.266945
 42
-0.027124
  0
VERTEX
  8
0
 10
514.848397
 20
178.536950
 42
-0.027473
  0
VERTEX
  8
0
 10
510.084195
 20
189.236140
 42
-0.034239
  0
VERTEX
  8
0
 10
506.915469
 20
199.643829
 42
-0.012660
  0
VERTEX
  8
0
 10
505.796221
 20
205.115344
 42
-0.024962
  0
VERTEX
  8
0
 10
505.236371
 20
209.515884
 42
-0.022588
  0
VERTEX
  8
0
 10
505.088194
 20
214.224395
 42
-0.008559
  0
VERTEX
  8
0
 10
505.291006
 20
220.801404
 42
-0.007731
  0
VERTEX
  8
0
 10
505.593995
 20
225.573525
 42
-0.008213
  0
VERTEX
  8
0
 10
506.039894
 20
230.238537
 42
-0.007892
  0
VERTEX
  8
0
 10
506.552612
 20
234.237903
 42
-0.037052
  0
VERTEX
  8
0
 10
507.052190
 20
236.500000
 42
0.000000
  0
VERTEX
  8
0
 10
508.252065
 20
240.500000
 42
0.000000
  0
VERTEX
  8
0
 10
509.605365
 20
235.250674
 42
0.015473
  0
VERTEX
  8
0
 10
510.280489
 20
232.931293
 42
0.010062
  0
VERTEX
  8
0
 10
511.196330
 20
230.294702
 42
0.010120
  0
VERTEX
  8
0
 10
512.194965
 20
227.755320
 42
0.018920
  0
SEQEND
  0
POLYLINE
  8
0
 66
1
 70
1
  0
VERTEX
  8
0
 10
548.092268
 20
236.259314
 42
0.072430
  0
VERTEX
  8
0
 10
571.388161
 20
229.067283
 42
0.040852
  0
VERTEX
  8
0
 10
600.943186
 20
226.900676
 42
0.040891
  0
VERTEX
  8
0
 10
630.381582
 20
229.563790
 42
0.074016
  0
VERTEX
  8
0
 10
653.300441
 20
237.151662
 42
-0.002832
  0
VERTEX
  8
0
 10
657.267006
 20
239.125864
 42
-0.082939
  0
VERTEX
  8
0
 10
658.345645
 20
239.448508
 42
-0.466519
  0
VERTEX
  8
0
 10
658.727117
 20
239.094653
 42
-0.056866
  0
VERTEX
  8
0
 10
658.514555
 20
237.807649
 42
-0.059460
  0
VERTEX
  8
0
 10
654.878044
 20
229.111401
 42
-0.040988
  0
VERTEX
  8
0
 10
648.871471
 20
220.270674
 42
-0.040125
  0
VERTEX
  8
0
 10
641.312463
 20
212.300327
 42
-0.048639
  0
VERTEX
  8
0
 10
633.019397
 20
206.196738
 42
-0.029737
  0
VERTEX
  8
0
 10
625.964416
 20
202.543405
 42
-0.020178
  0
VERTEX
  8
0
 10
617.553426
 20
199.203345
 42
-0.020378
  0
VERTEX
  8
0
 10
609.186011
 20
196.643311
 42
-0.039953
  0
VERTEX
  8
0
 10
602.332456
 20
195.422385
 42
-0.080950
  0
VERTEX
  8
0
 10
591.563835
 20
196.124577
 42
-0.039781
  0
VERTEX
  8
0
 10
578.433168
 20
200.275495
 42
-0.039096
  0
VERTEX
  8
0
 10
565.598115
 20
206.696365
 42
-0.057358
  0
VERTEX
  8
0
 10
555.610731
 20
214.393336
 42
-0.014521
  0
VERTEX
  8
0
 10
553.002841
 20
217.079756
 42
-0.011789
  0
VERTEX
  8
0
 10
550.362220
 20
220.102980
 42
-0.011963
  0
VERTEX
  8
0
 10
548.059719
 20
223.006582
 42
-0.030084
  0
VERTEX
  8
0
 10
546.565995
 20
225.255105
 42
-0.021248
  0
VERTEX
  8
0
 10
544.267513
 20
229.630130
 42
-0.014696
  0
VERTEX
  8
0
 10
542.028829
 20
234.754922
 42
-0.009615
  0
VERTEX
  8
0
 10
540.266073
 20
239.392589
 42
-0.678234
  0
VERTEX
  8
0
 10
540.718411
 20
239.791614
 42
0.005358
  0
VERTEX
  8
0
 10
541.265344
 20
239.521753
 42
0.000228
  0
VERTEX
  8
0
 10
543.206887
 20
238.590605
 42
0.000392
  0
VERTEX
  8
0
 10
545.509944
 20
237.489588
 42
0.000279
  0
SEQEND
  0
ENDSEC
  0
EOF
