  0
SECTION
  2
HEADER
  9
$ACADVER
  1
AC1006
  9
$EXTMIN
 10
0.000000
 20
0.000000
 30
0.000000
  9
$EXTMAX
 10
1000.000000
 20
888.000000
 30
0.000000
  0
ENDSEC
  0
SECTION
  2
ENTITIES
  0
POLYLINE
  8
0
 66
1
 70
1
  0
VERTEX
  8
0
 10
238.000000
 20
885.490292
 42
0.011832
  0
VERTEX
  8
0
 10
219.845925
 20
881.991100
 42
0.013230
  0
VERTEX
  8
0
 10
202.547064
 20
877.747954
 42
0.014069
  0
VERTEX
  8
0
 10
186.633010
 20
872.909937
 42
0.019390
  0
VERTEX
  8
0
 10
172.662655
 20
867.618852
 42
0.029442
  0
VERTEX
  8
0
 10
140.471732
 20
851.682470
 42
0.029921
  0
VERTEX
  8
0
 10
110.556023
 20
832.151912
 42
0.030946
  0
VERTEX
  8
0
 10
84.192152
 20
809.942597
 42
0.037848
  0
VERTEX
  8
0
 10
62.627573
 20
786.000000
 42
0.002229
  0
VERTEX
  8
0
 10
52.769571
 20
773.114732
 42
0.010450
  0
VERTEX
  8
0
 10
47.288231
 20
765.560681
 42
0.013748
  0
VERTEX
  8
0
 10
42.846386
 20
758.770886
 42
0.005939
  0
VERTEX
  8
0
 10
37.289816
 20
749.500000
 42
0.023609
  0
VERTEX
  8
0
 10
25.862404
 20
727.595982
 42
0.025135
  0
VERTEX
  8
0
 10
16.812173
 20
705.158239
 42
0.023776
  0
VERTEX
  8
0
 10
9.669390
 20
680.831068
 42
0.017317
  0
VERTEX
  8
0
 10
3.973642
 20
653.217597
 42
0.000000
  0
VERTEX
  8
0
 10
-0.164199
 20
628.935195
 42
0.000000
  0
VERTEX
  8
0
 10
0.227907
 20
601.217597
 42
0.002782
  0
VERTEX
  8
0
 10
0.569700
 20
583.879068
 42
0.014638
  0
VERTEX
  8
0
 10
1.088924
 20
574.370026
 42
0.017270
  0
VERTEX
  8
0
 10
2.132290
 20
565.595995
 42
0.004869
  0
VERTEX
  8
0
 10
4.363164
 20
552.000000
 42
0.007446
  0
VERTEX
  8
0
 10
8.126275
 20
532.140227
 42
0.012328
  0
VERTEX
  8
0
 10
11.962286
 20
515.518424
 42
0.012735
  0
VERTEX
  8
0
 10
16.517806
 20
499.491279
 42
0.008673
  0
VERTEX
  8
0
 10
22.474896
 20
481.500000
 42
0.004035
  0
VERTEX
  8
0
 10
28.228371
 20
465.498473
 42
0.010961
  0
VERTEX
  8
0
 10
32.643092
 20
454.288097
 42
0.010136
  0
VERTEX
  8
0
 10
37.734432
 20
442.805516
 42
0.003036
  0
VERTEX
  8
0
 10
45.950633
 20
425.519140
 42
0.005309
  0
VERTEX
  8
0
 10
53.765983
 20
409.760038
 42
0.011391
  0
VERTEX
  8
0
 10
60.196067
 20
397.813937
 42
0.010453
  0
VERTEX
  8
0
 10
67.500199
 20
385.558607
 42
0.003809
  0
VERTEX
  8
0
 10
78.338065
 20
368.500000
 42
0.005648
  0
VERTEX
  8
0
 10
90.680990
 20
349.860929
 42
0.009565
  0
VERTEX
  8
0
 10
101.487849
 20
334.573016
 42
0.009168
  0
VERTEX
  8
0
 10
113.187367
 20
319.272138
 42
0.004700
  0
VERTEX
  8
0
 10
128.384278
 20
300.500000
 42
0.007720
  0
VERTEX
  8
0
 10
156.009043
 20
268.058178
 42
0.011302
  0
VERTEX
  8
0
 10
181.388704
 20
240.452760
 42
0.011496
  0
VERTEX
  8
0
 10
207.654214
 20
214.376259
 42
0.008409
  0
VERTEX
  8
0
 10
237.946436
 20
186.606664
 42
0.006066
  0
VERTEX
  8
0
 10
260.382189
 20
167.204028
 42
0.003631
  0
VERTEX
  8
0
 10
287.488933
 20
144.665734
 42
0.003638
  0
VERTEX
  8
0
 10
314.497891
 20
122.864993
 42
0.007006
  0
VERTEX
  8
0
 10
336.500000
 20
105.866215
 42
0.007889
  0
VERTEX
  8
0
 10
360.806686
 20
88.217528
 42
0.003755
  0
VERTEX
  8
0
 10
392.609389
 20
66.238505
 42
0.003692
  0
VERTEX
  8
0
 10
426.615320
 20
43.477604
 42
0.004787
  0
VERTEX
  8
0
 10
458.141898
 20
23.141710
 42
0.001005
  0
VERTEX
  8
0
 10
481.796699
 20
8.268584
 42
0.013643
  0
VERTEX
  8
0
 10
490.580766
 20
3.098177
 42
0.039477
  0
VERTEX
  8
0
 10
495.762633
 20
0.747909
 42
0.086942
  0
VERTEX
  8
0
 10
500.031329
 20
-0.000000
 42
0.087995
  0
VERTEX
  8
0
 10
504.312632
 20
0.759346
 42
0.039740
  0
VERTEX
  8
0
 10
509.511001
 20
3.146656
 42
0.013577
  0
VERTEX
  8
0
 10
518.347057
 20
8.408510
 42
0.000977
  0
VERTEX
  8
0
 10
542.389431
 20
23.690623
 42
0.003861
  0
VERTEX
  8
0
 10
573.301394
 20
43.761804
 42
0.003427
  0
VERTEX
  8
0
 10
605.157650
 20
65.112565
 42
0.003550
  0
VERTEX
  8
0
 10
634.631047
 20
85.468011
 42
0.006753
  0
VERTEX
  8
0
 10
658.000000
 20
102.329128
 42
0.006869
  0
VERTEX
  8
0
 10
678.743019
 20
118.172394
 42
0.003301
  0
VERTEX
  8
0
 10
704.929908
 20
139.030479
 42
0.003305
  0
VERTEX
  8
0
 10
731.010470
 20
160.373146
 42
0.006425
  0
VERTEX
  8
0
 10
751.500000
 20
177.817059
 42
0.010920
  0
VERTEX
  8
0
 10
771.439785
 20
196.022751
 42
0.003599
  0
VERTEX
  8
0
 10
799.964659
 20
223.627461
 42
0.003531
  0
VERTEX
  8
0
 10
827.910110
 20
251.453962
 42
0.012273
  0
VERTEX
  8
0
 10
845.393880
 20
270.000000
 42
0.008537
  0
VERTEX
  8
0
 10
857.184879
 20
283.599149
 42
0.003406
  0
VERTEX
  8
0
 10
872.896557
 20
302.619684
 42
0.003406
  0
VERTEX
  8
0
 10
888.349083
 20
321.854303
 42
0.008527
  0
VERTEX
  8
0
 10
899.289744
 20
336.158978
 42
0.014312
  0
VERTEX
  8
0
 10
912.556165
 20
355.251942
 42
0.008184
  0
VERTEX
  8
0
 10
927.521362
 20
379.002296
 42
0.008182
  0
VERTEX
  8
0
 10
941.720548
 20
403.262462
 42
0.014137
  0
VERTEX
  8
0
 10
952.617110
 20
423.944933
 42
0.004255
  0
VERTEX
  8
0
 10
961.350178
 20
442.111219
 42
0.010866
  0
VERTEX
  8
0
 10
967.277977
 20
455.461488
 42
0.011799
  0
VERTEX
  8
0
 10
972.336477
 20
468.405751
 42
0.005896
  0
VERTEX
  8
0
 10
978.153391
 20
485.000000
 42
0.015376
  0
VERTEX
  8
0
 10
986.564283
 20
512.718108
 42
0.015617
  0
VERTEX
  8
0
 10
993.207573
 20
540.758078
 42
0.016456
  0
VERTEX
  8
0
 10
997.725447
 20
567.317386
 42
0.025457
  0
VERTEX
  8
0
 10
999.693265
 20
590.500000
 42
0.018311
  0
VERTEX
  8
0
 10
999.630491
 20
612.601031
 42
0.014648
  0
VERTEX
  8
0
 10
997.994586
 20
636.357539
 42
0.014903
  0
VERTEX
  8
0
 10
995.041165
 20
659.332029
 42
0.022764
  0
VERTEX
  8
0
 10
990.987171
 20
679.009943
 42
0.020730
  0
VERTEX
  8
0
 10
985.584421
 20
697.105012
 42
0.017298
  0
VERTEX
  8
0
 10
978.400932
 20
715.836717
 42
0.016825
  0
VERTEX
  8
0
 10
969.698849
 20
734.591224
 42
0.016721
  0
VERTEX
  8
0
 10
959.738591
 20
752.757649
 42
0.022216
  0
VERTEX
  8
0
 10
942.225146
 20
779.524768
 42
0.033506
  0
VERTEX
  8
0
 10
924.474289
 20
800.997274
 42
0.032772
  0
VERTEX
  8
0
 10
903.714598
 20
820.239816
 42
0.020076
  0
VERTEX
  8
0
 10
876.969812
 20
840.228337
 42
0.028781
  0
VERTEX
  8
0
 10
850.496901
 20
856.245946
 42
0.028841
  0
VERTEX
  8
0
 10
822.377681
 20
869.105181
 42
0.028316
  0
VERTEX
  8
0
 10
792.468353
 20
878.839025
 42
0.025635
  0
VERTEX
  8
0
 10
760.644123
 20
885.514349
 42
0.022091
  0
VERTEX
  8
0
 10
742.929562
 20
887.494596
 42
0.016664
  0
VERTEX
  8
0
 10
723.351993
 20
888.157017
 42
0.016656
  0
VERTEX
  8
0
 10
703.759737
 20
887.513916
 42
0.021970
  0
VERTEX
  8
0
 10
686.000000
 20
885.551443
 42
0.010622
  0
VERTEX
  8
0
 10
665.114096
 20
881.853683
 42
0.017072
  0
VERTEX
  8
0
 10
647.510443
 20
877.720534
 42
0.018019
  0
VERTEX
  8
0
 10
630.930528
 20
872.577466
 42
0.013850
  0
VERTEX
  8
0
 10
613.219795
 20
865.819527
 42
0.006897
  0
VERTEX
  8
0
 10
602.710350
 20
861.301518
 42
0.020202
  0
VERTEX
  8
0
 10
595.647793
 20
857.800577
 42
0.017717
  0
VERTEX
  8
0
 10
588.410251
 20
853.501109
 42
0.004348
  0
VERTEX
  8
0
 10
576.827199
 20
845.909630
 42
0.014832
  0
VERTEX
  8
0
 10
556.263834
 20
831.275274
 42
0.038857
  0
VERTEX
  8
0
 10
542.719223
 20
819.254737
 42
0.034888
  0
VERTEX
  8
0
 10
530.399793
 20
804.554772
 42
0.010089
  0
VERTEX
  8
0
 10
513.482339
 20
780.225209
 42
-0.003242
  0
VERTEX
  8
0
 10
508.505634
 20
772.854747
 42
-0.005333
  0
VERTEX
  8
0
 10
504.189480
 20
766.693107
 42
-0.001177
  0
VERTEX
  8
0
 10
500.363500
 20
761.379801
 42
-0.332243
  0
VERTEX
  8
0
 10
499.868713
 20
761.225209
 42
-0.153820
  0
VERTEX
  8
0
 10
499.370118
 20
761.599507
 42
-0.000471
  0
VERTEX
  8
0
 10
494.668931
 20
768.175530
 42
-0.002625
  0
VERTEX
  8
0
 10
489.386033
 20
775.662814
 42
-0.001632
  0
VERTEX
  8
0
 10
483.262697
 20
784.500000
 42
0.003710
  0
VERTEX
  8
0
 10
473.850472
 20
797.963809
 42
0.015679
  0
VERTEX
  8
0
 10
467.901232
 20
805.807848
 42
0.020367
  0
VERTEX
  8
0
 10
462.248007
 20
812.240900
 42
0.009625
  0
VERTEX
  8
0
 10
454.468359
 20
820.090152
 42
0.007402
  0
VERTEX
  8
0
 10
444.458362
 20
829.524443
 42
0.018583
  0
VERTEX
  8
0
 10
436.813166
 20
836.014166
 42
0.018014
  0
VERTEX
  8
0
 10
428.570002
 20
842.032556
 42
0.006584
  0
VERTEX
  8
0
 10
416.500000
 20
849.965562
 42
0.019465
  0
VERTEX
  8
0
 10
406.238934
 20
855.968895
 42
0.011165
  0
VERTEX
  8
0
 10
393.441698
 20
862.439019
 42
0.011072
  0
VERTEX
  8
0
 10
380.079210
 20
868.464714
 42
0.016135
  0
VERTEX
  8
0
 10
368.030205
 20
873.127349
 42
0.021976
  0
VERTEX
  8
0
 10
358.648085
 20
875.957911
 42
0.005846
  0
VERTEX
  8
0
 10
343.459248
 20
879.632674
 42
0.006214
  0
VERTEX
  8
0
 10
327.350918
 20
883.120935
 42
0.011063
  0
VERTEX
  8
0
 10
314.000000
 20
885.532520
 42
0.008513
  0
VERTEX
  8
0
 10
304.707900
 20
886.837742
 42
0.015661
  0
VERTEX
  8
0
 10
297.103096
 20
887.533296
 42
0.012515
  0
VERTEX
  8
0
 10
288.422660
 20
887.836028
 42
0.003612
  0
VERTEX
  8
0
 10
275.000000
 20
887.871032
 42
0.003670
  0
VERTEX
  8
0
 10
262.119706
 20
887.717022
 42
0.011240
  0
VERTEX
  8
0
 10
253.395730
 20
887.352355
 42
0.014630
  0
VERTEX
  8
0
 10
246.041787
 20
886.662644
 42
0.010995
  0
SEQEND
  0
POLYLINE
  8
0
 66
1
 70
1
  0
VERTEX
  8
0
 10
310.169853
 20
884.925949
 42
-0.012338
  0
VERTEX
  8
0
 10
322.335000
 20
882.857627
 42
-0.005622
  0
VERTEX
  8
0
 10
338.128032
 20
879.584992
 42
-0.005547
  0
VERTEX
  8
0
 10
353.601846
 20
876.016288
 42
-0.014890
  0
VERTEX
  8
0
 10
364.500000
 20
873.029028
 42
-0.024123
  0
VERTEX
  8
0
 10
375.857365
 20
868.940443
 42
-0.011247
  0
VERTEX
  8
0
 10
390.173081
 20
862.611176
 42
-0.011270
  0
VERTEX
  8
0
 10
404.361118
 20
855.558493
 42
-0.021335
  0
VERTEX
  8
0
 10
415.398099
 20
849.143284
 42
-0.006945
  0
VERTEX
  8
0
 10
426.828860
 20
841.603975
 42
-0.016364
  0
VERTEX
  8
0
 10
435.083932
 20
835.589094
 42
-0.016136
  0
VERTEX
  8
0
 10
442.995781
 20
828.996711
 42
-0.006579
  0
VERTEX
  8
0
 10
453.338196
 20
819.551182
 42
-0.009704
  0
VERTEX
  8
0
 10
461.248306
 20
811.839917
 42
-0.023904
  0
VERTEX
  8
0
 10
466.661232
 20
805.802582
 42
-0.017474
  0
VERTEX
  8
0
 10
472.366864
 20
798.268724
 42
-0.003251
  0
VERTEX
  8
0
 10
482.265872
 20
784.006352
 42
-0.002974
  0
VERTEX
  8
0
 10
488.463305
 20
774.835481
 42
-0.004450
  0
VERTEX
  8
0
 10
493.757995
 20
766.744053
 42
-0.001941
  0
VERTEX
  8
0
 10
498.184413
 20
759.787057
 42
-0.092795
  0
VERTEX
  8
0
 10
498.794254
 20
758.250000
 42
0.061627
  0
VERTEX
  8
0
 10
499.307501
 20
756.678872
 42
0.234674
  0
VERTEX
  8
0
 10
500.092256
 20
756.055936
 42
0.373132
  0
VERTEX
  8
0
 10
500.758657
 20
756.423742
 42
0.088281
  0
VERTEX
  8
0
 10
501.000000
 20
757.779997
 42
-0.145770
  0
VERTEX
  8
0
 10
501.711333
 20
760.168067
 42
-0.000929
  0
VERTEX
  8
0
 10
514.014389
 20
778.911362
 42
-0.003984
  0
VERTEX
  8
0
 10
525.532876
 20
796.089069
 42
-0.015164
  0
VERTEX
  8
0
 10
533.128002
 20
806.528336
 42
-0.027772
  0
VERTEX
  8
0
 10
541.061101
 20
815.668124
 42
-0.022132
  0
VERTEX
  8
0
 10
550.560208
 20
824.627604
 42
-0.019133
  0
VERTEX
  8
0
 10
562.159164
 20
833.886090
 42
-0.011683
  0
VERTEX
  8
0
 10
576.500000
 20
843.952480
 42
-0.004899
  0
VERTEX
  8
0
 10
590.246860
 20
852.936663
 42
-0.020524
  0
VERTEX
  8
0
 10
598.776639
 20
857.911763
 42
-0.020816
  0
VERTEX
  8
0
 10
607.629913
 20
862.137743
 42
-0.005141
  0
VERTEX
  8
0
 10
622.500000
 20
868.310117
 42
-0.021160
  0
VERTEX
  8
0
 10
635.780078
 20
873.020468
 42
-0.013582
  0
VERTEX
  8
0
 10
651.536257
 20
877.404443
 42
-0.012570
  0
VERTEX
  8
0
 10
669.024625
 20
881.298195
 42
-0.010827
  0
VERTEX
  8
0
 10
687.577249
 20
884.526491
 42
-0.019995
  0
VERTEX
  8
0
 10
705.087207
 20
886.471792
 42
-0.017467
  0
VERTEX
  8
0
 10
723.506705
 20
887.130152
 42
-0.017555
  0
VERTEX
  8
0
 10
741.817690
 20
886.501652
 42
-0.020884
  0
VERTEX
  8
0
 10
759.000000
 20
884.583412
 42
-0.029667
  0
VERTEX
  8
0
 10
796.455450
 20
876.511555
 42
-0.034897
  0
VERTEX
  8
0
 10
830.649781
 20
864.364103
 42
-0.034039
  0
VERTEX
  8
0
 10
863.515228
 20
847.289109
 42
-0.025979
  0
VERTEX
  8
0
 10
897.000000
 20
824.422392
 42
-0.023884
  0
VERTEX
  8
0
 10
907.371592
 20
815.706668
 42
-0.012314
  0
VERTEX
  8
0
 10
919.530972
 20
803.886597
 42
-0.012297
  0
VERTEX
  8
0
 10
931.249810
 20
791.315541
 42
-0.021083
  0
VERTEX
  8
0
 10
940.300091
 20
780.205291
 42
-0.017998
  0
VERTEX
  8
0
 10
949.363325
 20
767.110457
 42
-0.010015
  0
VERTEX
  8
0
 10
959.499277
 20
750.555909
 42
-0.010013
  0
VERTEX
  8
0
 10
968.847161
 20
733.818309
 42
-0.020301
  0
VERTEX
  8
0
 10
975.389547
 20
720.230229
 42
-0.022406
  0
VERTEX
  8
0
 10
984.874964
 20
695.281649
 42
-0.026234
  0
VERTEX
  8
0
 10
991.532369
 20
670.852543
 42
-0.025077
  0
VERTEX
  8
0
 10
995.805386
 20
644.944446
 42
-0.017661
  0
VERTEX
  8
0
 10
998.106649
 20
615.500000
 42
-0.005397
  0
VERTEX
  8
0
 10
998.688360
 20
597.263257
 42
-0.020430
  0
VERTEX
  8
0
 10
998.462872
 20
585.853639
 42
-0.019674
  0
VERTEX
  8
0
 10
997.303654
 20
574.295184
 42
-0.004743
  0
VERTEX
  8
0
 10
994.451031
 20
555.264426
 42
-0.009830
  0
VERTEX
  8
0
 10
991.098075
 20
536.619786
 42
-0.012103
  0
VERTEX
  8
0
 10
987.210524
 20
519.380530
 42
-0.011982
  0
VERTEX
  8
0
 10
982.458339
 20
502.207175
 42
-0.009306
  0
VERTEX
  8
0
 10
976.496469
 20
483.756633
 42
-0.004986
  0
VERTEX
  8
0
 10
970.653472
 20
467.297390
 42
-0.012285
  0
VERTEX
  8
0
 10
965.949398
 20
455.369972
 42
-0.010829
  0
VERTEX
  8
0
 10
960.329263
 20
442.848496
 42
-0.003140
  0
VERTEX
  8
0
 10
951.123387
 20
423.782388
 42
-0.013726
  0
VERTEX
  8
0
 10
940.076416
 20
402.746094
 42
-0.008995
  0
VERTEX
  8
0
 10
926.257890
 20
379.107276
 42
-0.008980
  0
VERTEX
  8
0
 10
911.545635
 20
355.896703
 42
-0.013322
  0
VERTEX
  8
0
 10
897.762429
 20
336.156887
 42
-0.010507
  0
VERTEX
  8
0
 10
876.827048
 20
309.025500
 42
-0.009633
  0
VERTEX
  8
0
 10
854.169658
 20
281.987661
 42
-0.009365
  0
VERTEX
  8
0
 10
829.824905
 20
255.082198
 42
-0.008627
  0
VERTEX
  8
0
 10
803.825883
 20
228.348061
 42
-0.006871
  0
VERTEX
  8
0
 10
780.794438
 20
206.089225
 42
-0.007176
  0
VERTEX
  8
0
 10
757.486244
 20
184.796232
 42
-0.006824
  0
VERTEX
  8
0
 10
732.526537
 20
163.244951
 42
-0.005125
  0
VERTEX
  8
0
 10
704.500000
 20
140.191291
 42
-0.007446
  0
VERTEX
  8
0
 10
666.934621
 20
110.842948
 42
-0.007875
  0
VERTEX
  8
0
 10
629.199766
 20
83.181135
 42
-0.007333
  0
VERTEX
  8
0
 10
588.279855
 20
55.056664
 42
-0.005009
  0
VERTEX
  8
0
 10
541.010527
 20
24.257775
 42
-0.001168
  0
VERTEX
  8
0
 10
518.776648
 20
10.159218
 42
-0.011805
  0
VERTEX
  8
0
 10
509.369970
 20
4.531153
 42
-0.028151
  0
VERTEX
  8
0
 10
503.820884
 20
1.786864
 42
-0.101090
  0
VERTEX
  8
0
 10
499.968747
 20
1.000000
 42
-0.102752
  0
VERTEX
  8
0
 10
496.061850
 20
1.811447
 42
-0.026482
  0
VERTEX
  8
0
 10
490.267916
 20
4.700255
 42
-0.011224
  0
VERTEX
  8
0
 10
480.391967
 20
10.592300
 42
-0.001103
  0
VERTEX
  8
0
 10
456.958221
 20
25.368245
 42
-0.004471
  0
VERTEX
  8
0
 10
424.526151
 20
46.326946
 42
-0.003840
  0
VERTEX
  8
0
 10
390.775811
 20
68.941589
 42
-0.003958
  0
VERTEX
  8
0
 10
359.617488
 20
90.531027
 42
-0.008009
  0
VERTEX
  8
0
 10
335.500000
 20
108.110784
 42
-0.011158
  0
VERTEX
  8
0
 10
286.268384
 20
146.971175
 42
-0.010224
  0
VERTEX
  8
0
 10
237.336346
 20
189.112042
 42
-0.010629
  0
VERTEX
  8
0
 10
192.986734
 20
230.649743
 42
-0.018000
  0
VERTEX
  8
0
 10
157.900640
 20
267.500374
 42
-0.006159
  0
VERTEX
  8
0
 10
143.754125
 20
283.873844
 42
-0.003539
  0
VERTEX
  8
0
 10
127.088727
 20
303.936474
 42
-0.003416
  0
VERTEX
  8
0
 10
111.480389
 20
323.267412
 42
-0.010871
  0
VERTEX
  8
0
 10
101.424002
 20
336.477249
 42
-0.009740
  0
VERTEX
  8
0
 10
93.147080
 20
348.333333
 42
-0.002994
  0
VERTEX
  8
0
 10
81.117176
 20
366.535939
 42
-0.002935
  0
VERTEX
  8
0
 10
69.367117
 20
384.781835
 42
-0.010850
  0
VERTEX
  8
0
 10
62.269994
 20
396.500000
 42
-0.014522
  0
VERTEX
  8
0
 10
52.252254
 20
415.109686
 42
-0.009708
  0
VERTEX
  8
0
 10
41.830659
 20
436.941868
 42
-0.009599
  0
VERTEX
  8
0
 10
32.077498
 20
459.582892
 42
-0.012501
  0
VERTEX
  8
0
 10
24.073301
 20
480.684377
 42
-0.007201
  0
VERTEX
  8
0
 10
17.811351
 20
499.382986
 42
-0.013528
  0
VERTEX
  8
0
 10
13.382578
 20
514.686873
 42
-0.013105
  0
VERTEX
  8
0
 10
9.700240
 20
530.525699
 42
-0.006307
  0
VERTEX
  8
0
 10
5.770945
 20
551.000000
 42
-0.004363
  0
VERTEX
  8
0
 10
3.343034
 20
565.292288
 42
-0.017368
  0
VERTEX
  8
0
 10
2.236008
 20
574.115715
 42
-0.015444
  0
VERTEX
  8
0
 10
1.681925
 20
583.465138
 42
-0.002943
  0
VERTEX
  8
0
 10
1.299875
 20
600.500000
 42
0.000000
  0
VERTEX
  8
0
 10
0.853289
 20
627.500000
 42
0.000000
  0
VERTEX
  8
0
 10
4.951796
 20
652.000000
 42
-0.017933
  0
VERTEX
  8
0
 10
10.668878
 20
679.971483
 42
-0.024206
  0
VERTEX
  8
0
 10
17.950301
 20
704.744223
 42
-0.025471
  0
VERTEX
  8
0
 10
27.243323
 20
727.663384
 42
-0.023857
  0
VERTEX
  8
0
 10
39.002628
 20
750.040201
 42
-0.003968
  0
VERTEX
  8
0
 10
44.421459
 20
759.090670
 42
-0.015065
  0
VERTEX
  8
0
 10
48.019782
 20
764.612339
 42
-0.010583
  0
VERTEX
  8
0
 10
52.483213
 20
770.748965
 42
-0.001247
  0
VERTEX
  8
0
 10
62.736577
 20
784.166831
 42
-0.020540
  0
VERTEX
  8
0
 10
74.277713
 20
797.978806
 42
-0.020114
  0
VERTEX
  8
0
 10
86.990998
 20
810.898037
 42
-0.019351
  0
VERTEX
  8
0
 10
101.178575
 20
823.204466
 42
-0.016133
  0
VERTEX
  8
0
 10
117.144091
 20
835.179942
 42
-0.025248
  0
VERTEX
  8
0
 10
146.185933
 20
853.420309
 42
-0.031768
  0
VERTEX
  8
0
 10
174.824353
 20
867.141539
 42
-0.031454
  0
VERTEX
  8
0
 10
205.205890
 20
877.223225
 42
-0.023971
  0
VERTEX
  8
0
 10
239.500000
 20
884.517756
 42
-0.023970
  0
VERTEX
  8
0
 10
255.574806
 20
886.353669
 42
-0.015004
  0
VERTEX
  8
0
 10
274.503697
 20
887.031269
 42
-0.014951
  0
VERTEX
  8
0
 10
293.590061
 20
886.570728
 42
-0.022431
  0
SEQEND
  0
ENDSEC
  0
EOF
