  0
SECTION
  2
HEADER
  9
$ACADVER
  1
AC1006
  9
$EXTMIN
 10
0.000000
 20
0.000000
 30
0.000000
  9
$EXTMAX
 10
900.000000
 20
900.000000
 30
0.000000
  0
ENDSEC
  0
SECTION
  2
ENTITIES
  0
POLYLINE
  8
0
 66
1
 70
1
  0
VERTEX
  8
0
 10
0.000000
 20
450.000000
 42
0.000000
  0
VERTEX
  8
0
 10
0.000000
 20
0.000000
 42
0.000000
  0
VERTEX
  8
0
 10
450.000000
 20
0.000000
 42
0.000000
  0
VERTEX
  8
0
 10
900.000000
 20
0.000000
 42
0.000000
  0
VERTEX
  8
0
 10
900.000000
 20
450.000000
 42
0.000000
  0
VERTEX
  8
0
 10
900.000000
 20
900.000000
 42
0.000000
  0
VERTEX
  8
0
 10
450.000000
 20
900.000000
 42
0.000000
  0
VERTEX
  8
0
 10
0.000000
 20
900.000000
 42
0.000000
  0
SEQEND
  0
POLYLINE
  8
0
 66
1
 70
1
  0
VERTEX
  8
0
 10
531.000000
 20
636.159809
 42
-0.030261
  0
VERTEX
  8
0
 10
546.484790
 20
631.796071
 42
-0.034406
  0
VERTEX
  8
0
 10
560.655567
 20
625.738281
 42
-0.036034
  0
VERTEX
  8
0
 10
573.264244
 20
618.097832
 42
-0.040879
  0
VERTEX
  8
0
 10
584.086683
 20
609.009091
 42
-0.038387
  0
VERTEX
  8
0
 10
594.535639
 20
596.945563
 42
-0.044111
  0
VERTEX
  8
0
 10
602.483206
 20
583.950702
 42
-0.041842
  0
VERTEX
  8
0
 10
608.333033
 20
569.180386
 42
-0.029346
  0
VERTEX
  8
0
 10
612.497062
 20
551.772176
 42
-0.031642
  0
VERTEX
  8
0
 10
613.568438
 20
542.318583
 42
-0.015200
  0
VERTEX
  8
0
 10
613.802691
 20
530.110937
 42
-0.015211
  0
VERTEX
  8
0
 10
613.292376
 20
517.860224
 42
-0.030326
  0
VERTEX
  8
0
 10
612.009027
 20
508.244924
 42
0.000000
  0
VERTEX
  8
0
 10
610.784513
 20
501.989848
 42
0.000000
  0
VERTEX
  8
0
 10
601.642257
 20
496.623033
 42
-0.004004
  0
VERTEX
  8
0
 10
592.008376
 20
491.070861
 42
-0.000749
  0
VERTEX
  8
0
 10
574.254068
 20
481.062329
 42
-0.000563
  0
VERTEX
  8
0
 10
548.165465
 20
466.445609
 42
-0.000162
  0
VERTEX
  8
0
 10
507.765710
 20
443.887645
 42
0.000000
  0
VERTEX
  8
0
 10
474.031420
 20
425.065796
 42
0.000000
  0
VERTEX
  8
0
 10
462.765710
 20
424.773163
 42
0.000000
  0
VERTEX
  8
0
 10
451.500000
 20
424.480530
 42
0.000000
  0
VERTEX
  8
0
 10
456.750000
 20
422.041797
 42
-0.011443
  0
VERTEX
  8
0
 10
458.761885
 20
421.050645
 42
-0.017382
  0
VERTEX
  8
0
 10
460.457812
 20
420.089962
 42
-0.012205
  0
VERTEX
  8
0
 10
461.783588
 20
419.231614
 42
-0.247851
  0
VERTEX
  8
0
 10
462.000000
 20
418.821856
 42
-0.228338
  0
VERTEX
  8
0
 10
461.803565
 20
418.414140
 42
-0.016225
  0
VERTEX
  8
0
 10
460.764273
 20
417.639706
 42
-0.020291
  0
VERTEX
  8
0
 10
459.405069
 20
416.773534
 42
-0.013763
  0
VERTEX
  8
0
 10
457.793268
 20
415.894533
 42
0.013462
  0
VERTEX
  8
0
 10
440.470569
 20
406.461067
 42
0.001241
  0
VERTEX
  8
0
 10
398.250674
 20
381.832930
 42
0.001692
  0
VERTEX
  8
0
 10
356.007788
 20
356.858049
 42
0.005737
  0
VERTEX
  8
0
 10
328.689677
 20
340.154306
 42
-0.001887
  0
VERTEX
  8
0
 10
324.897303
 20
337.795135
 42
-0.002999
  0
VERTEX
  8
0
 10
321.631981
 20
335.807827
 42
-0.000678
  0
VERTEX
  8
0
 10
318.758706
 20
334.087953
 42
-0.135321
  0
VERTEX
  8
0
 10
318.439677
 20
334.000000
 42
-0.410410
  0
VERTEX
  8
0
 10
318.259203
 20
334.178142
 42
-0.000151
  0
VERTEX
  8
0
 10
318.129155
 20
344.417709
 42
-0.001938
  0
VERTEX
  8
0
 10
318.031595
 20
355.865651
 42
-0.001162
  0
VERTEX
  8
0
 10
318.000000
 20
369.464542
 42
-0.004386
  0
VERTEX
  8
0
 10
318.218565
 20
394.378475
 42
-0.020094
  0
VERTEX
  8
0
 10
319.052962
 20
408.816587
 42
-0.031719
  0
VERTEX
  8
0
 10
320.827805
 20
419.722645
 42
-0.026551
  0
VERTEX
  8
0
 10
324.044193
 20
431.000000
 42
-0.070314
  0
VERTEX
  8
0
 10
335.728956
 20
453.928166
 42
-0.076059
  0
VERTEX
  8
0
 10
353.055370
 20
472.029106
 42
-0.069908
  0
VERTEX
  8
0
 10
376.307411
 20
485.214297
 42
-0.047921
  0
VERTEX
  8
0
 10
405.500000
 20
493.624114
 42
-0.027660
  0
VERTEX
  8
0
 10
412.393831
 20
494.521272
 42
-0.009037
  0
VERTEX
  8
0
 10
422.634545
 20
495.095697
 42
-0.005404
  0
VERTEX
  8
0
 10
438.309723
 20
495.521442
 42
-0.001160
  0
VERTEX
  8
0
 10
465.500000
 20
495.902871
 42
0.000000
  0
VERTEX
  8
0
 10
516.500000
 20
496.500000
 42
0.000000
  0
VERTEX
  8
0
 10
522.155384
 20
499.151360
 42
0.060729
  0
VERTEX
  8
0
 10
529.007491
 20
503.444458
 42
0.058130
  0
VERTEX
  8
0
 10
534.741541
 20
509.314803
 42
0.056241
  0
VERTEX
  8
0
 10
539.123053
 20
516.539465
 42
0.050392
  0
VERTEX
  8
0
 10
541.981549
 20
524.828083
 42
0.097628
  0
VERTEX
  8
0
 10
542.399327
 20
536.188532
 42
0.078405
  0
VERTEX
  8
0
 10
538.609763
 20
547.843157
 42
0.076542
  0
VERTEX
  8
0
 10
531.293861
 20
558.012158
 42
0.085409
  0
VERTEX
  8
0
 10
521.500000
 20
565.062770
 42
0.000000
  0
VERTEX
  8
0
 10
516.500000
 20
567.500000
 42
0.000000
  0
VERTEX
  8
0
 10
417.250000
 20
567.768900
 42
0.000000
  0
VERTEX
  8
0
 10
318.000000
 20
568.037800
 42
0.000000
  0
VERTEX
  8
0
 10
318.000000
 20
603.563251
 42
0.000000
  0
VERTEX
  8
0
 10
318.000000
 20
639.088703
 42
0.000000
  0
VERTEX
  8
0
 10
419.250000
 20
638.766222
 42
-0.000297
  0
VERTEX
  8
0
 10
486.368013
 20
638.512601
 42
-0.004737
  0
VERTEX
  8
0
 10
509.113893
 20
638.197644
 42
-0.014336
  0
VERTEX
  8
0
 10
521.680586
 20
637.543719
 42
-0.033393
  0
SEQEND
  0
POLYLINE
  8
0
 66
1
 70
1
  0
VERTEX
  8
0
 10
600.000000
 20
475.430175
 42
-0.160587
  0
VERTEX
  8
0
 10
599.391233
 20
473.583611
 42
-0.007950
  0
VERTEX
  8
0
 10
595.452027
 20
468.431947
 42
-0.013018
  0
VERTEX
  8
0
 10
590.714434
 20
462.746887
 42
-0.012289
  0
VERTEX
  8
0
 10
585.597876
 20
457.203206
 42
-0.035684
  0
VERTEX
  8
0
 10
575.399734
 20
448.085353
 42
-0.033405
  0
VERTEX
  8
0
 10
563.789587
 20
440.288043
 42
-0.032995
  0
VERTEX
  8
0
 10
551.095184
 20
434.019845
 42
-0.032812
  0
VERTEX
  8
0
 10
537.663245
 20
429.462696
 42
-0.019545
  0
VERTEX
  8
0
 10
529.715413
 20
427.665318
 42
-0.012161
  0
VERTEX
  8
0
 10
520.277575
 20
426.151916
 42
-0.011343
  0
VERTEX
  8
0
 10
511.408466
 20
425.154447
 42
-0.046135
  0
VERTEX
  8
0
 10
505.984195
 20
425.170153
 42
-0.130690
  0
VERTEX
  8
0
 10
504.745397
 20
425.629392
 42
-0.504072
  0
VERTEX
  8
0
 10
504.730146
 20
426.319895
 42
-0.044141
  0
VERTEX
  8
0
 10
506.813945
 20
427.658064
 42
-0.002214
  0
VERTEX
  8
0
 10
514.013124
 20
431.389625
 42
0.001318
  0
VERTEX
  8
0
 10
518.486988
 20
433.698403
 42
0.001917
  0
VERTEX
  8
0
 10
522.419480
 20
435.760123
 42
0.000947
  0
VERTEX
  8
0
 10
525.749760
 20
437.530513
 42
0.033083
  0
VERTEX
  8
0
 10
526.500000
 20
437.997378
 42
-0.034581
  0
VERTEX
  8
0
 10
527.304564
 20
438.494716
 42
-0.000277
  0
VERTEX
  8
0
 10
533.962500
 20
441.994551
 42
-0.001005
  0
VERTEX
  8
0
 10
541.612070
 20
445.990644
 42
-0.000646
  0
VERTEX
  8
0
 10
550.500000
 20
450.596340
 42
0.000526
  0
VERTEX
  8
0
 10
560.222245
 20
455.631414
 42
0.000455
  0
VERTEX
  8
0
 10
570.415625
 20
460.935889
 42
0.000458
  0
VERTEX
  8
0
 10
579.644182
 20
465.759728
 42
0.001338
  0
VERTEX
  8
0
 10
586.000000
 20
469.111079
 42
-0.001333
  0
VERTEX
  8
0
 10
594.358856
 20
473.518697
 42
-0.014649
  0
VERTEX
  8
0
 10
597.767475
 20
475.179077
 42
-0.040517
  0
VERTEX
  8
0
 10
599.514207
 20
475.802857
 42
-0.493210
  0
SEQEND
  0
POLYLINE
  8
0
 66
1
 70
1
  0
VERTEX
  8
0
 10
485.612462
 20
409.127109
 42
-0.003440
  0
VERTEX
  8
0
 10
490.250376
 20
407.155003
 42
-0.000198
  0
VERTEX
  8
0
 10
504.429911
 20
401.003460
 42
-0.000302
  0
VERTEX
  8
0
 10
521.303489
 20
393.663090
 42
-0.000222
  0
VERTEX
  8
0
 10
540.000000
 20
385.506403
 42
0.000027
  0
VERTEX
  8
0
 10
580.019939
 20
368.028379
 42
0.000128
  0
VERTEX
  8
0
 10
602.802427
 20
358.086887
 42
0.000056
  0
VERTEX
  8
0
 10
618.618365
 20
351.192284
 42
0.006168
  0
VERTEX
  8
0
 10
620.750000
 20
350.294453
 42
-0.292233
  0
VERTEX
  8
0
 10
621.438286
 20
349.321850
 42
-0.003959
  0
VERTEX
  8
0
 10
621.738814
 20
341.680270
 42
-0.006504
  0
VERTEX
  8
0
 10
621.946530
 20
330.381461
 42
-0.001344
  0
VERTEX
  8
0
 10
622.000000
 20
310.484511
 42
0.000000
  0
VERTEX
  8
0
 10
622.000000
 20
271.182999
 42
0.000000
  0
VERTEX
  8
0
 10
600.750000
 20
280.675241
 42
0.000094
  0
VERTEX
  8
0
 10
564.539640
 20
296.841990
 42
0.000028
  0
VERTEX
  8
0
 10
509.119029
 20
321.569247
 42
0.000023
  0
VERTEX
  8
0
 10
454.309151
 20
346.017269
 42
0.000170
  0
VERTEX
  8
0
 10
428.000000
 20
357.740297
 42
-0.001244
  0
VERTEX
  8
0
 10
418.936687
 20
361.802142
 42
-0.001958
  0
VERTEX
  8
0
 10
411.177800
 20
365.339231
 42
-0.000471
  0
VERTEX
  8
0
 10
404.401489
 20
368.468237
 42
-0.079539
  0
VERTEX
  8
0
 10
403.732937
 20
368.918074
 42
-0.499083
  0
VERTEX
  8
0
 10
403.785652
 20
369.413289
 42
-0.000827
  0
VERTEX
  8
0
 10
412.375899
 20
374.530660
 42
-0.004423
  0
VERTEX
  8
0
 10
422.297631
 20
380.300951
 42
-0.002617
  0
VERTEX
  8
0
 10
434.232937
 20
387.019230
 42
0.000372
  0
VERTEX
  8
0
 10
446.681572
 20
393.953058
 42
0.000466
  0
VERTEX
  8
0
 10
458.224675
 20
400.407876
 42
0.000374
  0
VERTEX
  8
0
 10
467.904841
 20
405.842318
 42
0.003612
  0
VERTEX
  8
0
 10
472.000000
 20
408.184474
 42
-0.000514
  0
VERTEX
  8
0
 10
474.500192
 20
409.635051
 42
-0.000839
  0
VERTEX
  8
0
 10
476.623661
 20
410.859395
 42
-0.000078
  0
VERTEX
  8
0
 10
478.527203
 20
411.952288
 42
-0.091500
  0
VERTEX
  8
0
 10
478.612462
 20
411.982307
 42
-0.136556
  0
VERTEX
  8
0
 10
478.700408
 20
411.972114
 42
-0.000115
  0
VERTEX
  8
0
 10
480.715103
 20
411.150891
 42
-0.001224
  0
VERTEX
  8
0
 10
482.963663
 20
410.227312
 42
-0.000748
  0
SEQEND
  0
POLYLINE
  8
0
 66
1
 70
1
  0
VERTEX
  8
0
 10
389.000000
 20
320.000000
 42
0.000000
  0
VERTEX
  8
0
 10
389.000000
 20
279.000000
 42
0.000000
  0
VERTEX
  8
0
 10
353.480112
 20
279.000000
 42
0.000000
  0
VERTEX
  8
0
 10
317.960225
 20
279.000000
 42
0.000000
  0
VERTEX
  8
0
 10
318.230112
 20
300.248860
 42
0.000000
  0
VERTEX
  8
0
 10
318.500000
 20
321.497721
 42
0.000000
  0
VERTEX
  8
0
 10
339.000000
 20
333.380968
 42
-0.001368
  0
VERTEX
  8
0
 10
357.510025
 20
344.043141
 42
-0.002263
  0
VERTEX
  8
0
 10
373.199911
 20
352.929728
 42
-0.000436
  0
VERTEX
  8
0
 10
386.974657
 20
360.633664
 42
-0.121843
  0
VERTEX
  8
0
 10
388.250000
 20
360.981931
 42
-0.415523
  0
VERTEX
  8
0
 10
388.557146
 20
360.687924
 42
-0.000330
  0
VERTEX
  8
0
 10
388.779688
 20
348.950942
 42
-0.002861
  0
VERTEX
  8
0
 10
388.946107
 20
335.720207
 42
-0.001714
  0
SEQEND
  0
ENDSEC
  0
EOF
