  0
SECTION
  2
HEADER
  9
$ACADVER
  1
AC1006
  9
$EXTMIN
 10
0.000000
 20
0.000000
 30
0.000000
  9
$EXTMAX
 10
289.000000
 20
238.000000
 30
0.000000
  0
ENDSEC
  0
SECTION
  2
ENTITIES
  0
POLYLINE
  8
0
 66
1
 70
1
  0
VERTEX
  8
0
 10
121.234854
 20
229.558110
 42
0.036345
  0
VERTEX
  8
0
 10
104.554820
 20
225.132035
 42
0.038910
  0
VERTEX
  8
0
 10
89.083948
 20
218.411361
 42
0.039020
  0
VERTEX
  8
0
 10
74.879652
 20
209.394924
 42
0.036970
  0
VERTEX
  8
0
 10
61.972014
 20
198.131045
 42
0.046262
  0
VERTEX
  8
0
 10
48.337113
 20
181.507078
 42
0.048739
  0
VERTEX
  8
0
 10
38.262588
 20
162.936909
 42
0.049462
  0
VERTEX
  8
0
 10
32.086328
 20
143.029271
 42
0.050539
  0
VERTEX
  8
0
 10
30.000000
 20
122.441369
 42
0.026805
  0
VERTEX
  8
0
 10
30.749643
 20
108.468128
 42
0.030929
  0
VERTEX
  8
0
 10
32.993685
 20
95.319043
 42
0.030789
  0
VERTEX
  8
0
 10
36.854111
 20
82.496366
 42
0.026125
  0
VERTEX
  8
0
 10
42.444568
 20
69.500000
 42
0.040067
  0
VERTEX
  8
0
 10
51.599745
 20
54.176828
 42
0.045300
  0
VERTEX
  8
0
 10
62.754807
 20
41.177398
 42
0.043928
  0
VERTEX
  8
0
 10
76.379628
 20
30.085646
 42
0.034059
  0
VERTEX
  8
0
 10
92.915555
 20
20.455100
 42
0.058137
  0
VERTEX
  8
0
 10
116.612345
 20
11.988773
 42
0.057390
  0
VERTEX
  8
0
 10
141.726781
 20
9.155321
 42
0.057380
  0
VERTEX
  8
0
 10
166.831598
 20
12.104588
 42
0.058082
  0
VERTEX
  8
0
 10
190.500000
 20
20.680222
 42
0.038457
  0
VERTEX
  8
0
 10
202.465326
 20
27.861092
 42
0.027813
  0
VERTEX
  8
0
 10
214.631595
 20
37.559651
 42
0.027686
  0
VERTEX
  8
0
 10
225.722284
 20
48.618958
 42
0.036559
  0
VERTEX
  8
0
 10
234.451818
 20
59.904716
 42
0.046003
  0
VERTEX
  8
0
 10
243.065546
 20
75.924467
 42
0.042918
  0
VERTEX
  8
0
 10
248.844535
 20
93.622194
 42
0.042203
  0
VERTEX
  8
0
 10
251.587468
 20
112.342874
 42
0.041271
  0
VERTEX
  8
0
 10
251.180174
 20
131.401273
 42
0.034610
  0
VERTEX
  8
0
 10
247.714493
 20
151.227388
 42
0.048599
  0
VERTEX
  8
0
 10
241.737999
 20
168.156608
 42
0.049509
  0
VERTEX
  8
0
 10
232.707278
 20
183.379449
 42
0.037835
  0
VERTEX
  8
0
 10
220.077633
 20
198.073038
 42
0.028891
  0
VERTEX
  8
0
 10
208.503281
 20
208.376888
 42
0.033645
  0
VERTEX
  8
0
 10
196.368984
 20
216.720534
 42
0.034308
  0
VERTEX
  8
0
 10
183.441914
 20
223.230350
 42
0.032403
  0
VERTEX
  8
0
 10
169.500000
 20
228.054681
 42
0.044282
  0
VERTEX
  8
0
 10
159.919812
 20
229.796437
 42
0.015051
  0
VERTEX
  8
0
 10
145.781532
 20
230.663322
 42
0.015238
  0
VERTEX
  8
0
 10
131.491224
 20
230.672841
 42
0.039247
  0
SEQEND
  0
POLYLINE
  8
0
 66
1
 70
1
  0
VERTEX
  8
0
 10
162.000000
 20
224.807681
 42
-0.025263
  0
VERTEX
  8
0
 10
167.245247
 20
223.531624
 42
-0.007897
  0
VERTEX
  8
0
 10
174.968394
 20
221.100612
 42
-0.007518
  0
VERTEX
  8
0
 10
182.530895
 20
218.461339
 42
-0.032205
  0
VERTEX
  8
0
 10
186.898069
 20
216.536159
 42
-0.183075
  0
VERTEX
  8
0
 10
187.763131
 20
215.567701
 42
-0.294650
  0
VERTEX
  8
0
 10
187.544378
 20
214.521673
 42
-0.049561
  0
VERTEX
  8
0
 10
185.580822
 20
212.892754
 42
-0.002706
  0
VERTEX
  8
0
 10
178.898069
 20
208.436997
 42
0.029175
  0
VERTEX
  8
0
 10
166.974638
 20
199.541222
 42
0.037776
  0
VERTEX
  8
0
 10
157.227280
 20
189.997671
 42
0.039690
  0
VERTEX
  8
0
 10
149.405735
 20
179.516790
 42
0.038443
  0
VERTEX
  8
0
 10
143.244175
 20
167.822404
 42
0.024520
  0
VERTEX
  8
0
 10
140.059896
 20
159.338019
 42
0.034926
  0
VERTEX
  8
0
 10
138.145582
 20
151.521881
 42
0.033218
  0
VERTEX
  8
0
 10
137.279887
 20
143.224227
 42
0.019488
  0
VERTEX
  8
0
 10
137.294162
 20
133.236208
 42
0.000000
  0
VERTEX
  8
0
 10
137.789889
 20
120.972417
 42
0.000000
  0
VERTEX
  8
0
 10
134.144945
 20
117.967736
 42
-0.039927
  0
VERTEX
  8
0
 10
128.928780
 20
114.325196
 42
-0.020228
  0
VERTEX
  8
0
 10
121.853638
 20
110.557452
 42
-0.019997
  0
VERTEX
  8
0
 10
114.219073
 20
107.249266
 42
-0.028827
  0
VERTEX
  8
0
 10
107.213265
 20
104.995319
 42
-0.012491
  0
VERTEX
  8
0
 10
99.072032
 20
103.100706
 42
-0.175651
  0
VERTEX
  8
0
 10
96.149064
 20
103.524808
 42
-0.216372
  0
VERTEX
  8
0
 10
94.490259
 20
105.694311
 42
-0.020024
  0
VERTEX
  8
0
 10
93.205628
 20
112.500000
 42
-0.018199
  0
VERTEX
  8
0
 10
92.653808
 20
117.490578
 42
-0.009879
  0
VERTEX
  8
0
 10
92.320804
 20
123.654372
 42
-0.008640
  0
VERTEX
  8
0
 10
92.199027
 20
130.843563
 42
-0.005929
  0
VERTEX
  8
0
 10
92.298543
 20
139.000000
 42
-0.004937
  0
VERTEX
  8
0
 10
92.627937
 20
148.703724
 42
-0.016441
  0
VERTEX
  8
0
 10
93.116499
 20
155.062273
 42
-0.021839
  0
VERTEX
  8
0
 10
93.934172
 20
160.356488
 42
-0.015519
  0
VERTEX
  8
0
 10
95.291554
 20
166.207927
 42
-0.045845
  0
VERTEX
  8
0
 10
101.702546
 20
183.738012
 42
-0.052617
  0
VERTEX
  8
0
 10
110.977113
 20
198.954948
 42
-0.053075
  0
VERTEX
  8
0
 10
123.145841
 20
211.795149
 42
-0.048036
  0
VERTEX
  8
0
 10
138.138375
 20
222.278024
 42
-0.020507
  0
VERTEX
  8
0
 10
144.191125
 20
225.376928
 42
-0.081822
  0
VERTEX
  8
0
 10
148.195858
 20
226.480528
 42
-0.064036
  0
VERTEX
  8
0
 10
152.806417
 20
226.377795
 42
-0.009488
  0
SEQEND
  0
POLYLINE
  8
0
 66
1
 70
1
  0
VERTEX
  8
0
 10
131.450000
 20
225.118503
 42
-0.012529
  0
VERTEX
  8
0
 10
130.764819
 20
224.513960
 42
-0.000460
  0
VERTEX
  8
0
 10
128.110959
 20
222.292313
 42
-0.000839
  0
VERTEX
  8
0
 10
124.965979
 20
219.673403
 42
-0.000589
  0
VERTEX
  8
0
 10
121.417093
 20
216.735277
 42
0.060219
  0
VERTEX
  8
0
 10
106.408941
 20
200.949697
 42
0.060467
  0
VERTEX
  8
0
 10
95.618614
 20
182.063573
 42
0.056652
  0
VERTEX
  8
0
 10
89.162539
 20
160.036109
 42
0.043008
  0
VERTEX
  8
0
 10
87.000000
 20
134.941369
 42
0.011240
  0
VERTEX
  8
0
 10
87.197129
 20
126.173151
 42
0.010640
  0
VERTEX
  8
0
 10
87.788335
 20
117.260371
 42
0.010473
  0
VERTEX
  8
0
 10
88.640780
 20
109.431623
 42
0.039708
  0
VERTEX
  8
0
 10
89.660439
 20
104.618877
 42
-0.181797
  0
VERTEX
  8
0
 10
89.589581
 20
103.629713
 42
-0.245687
  0
VERTEX
  8
0
 10
88.892182
 20
103.090924
 42
-0.054855
  0
VERTEX
  8
0
 10
87.029718
 20
102.967152
 42
-0.003949
  0
VERTEX
  8
0
 10
81.859004
 20
103.231804
 42
-0.036441
  0
VERTEX
  8
0
 10
73.764987
 20
104.305515
 42
-0.021878
  0
VERTEX
  8
0
 10
64.364217
 20
106.690756
 42
-0.015030
  0
VERTEX
  8
0
 10
55.780512
 20
109.557158
 42
-0.211091
  0
VERTEX
  8
0
 10
53.496979
 20
111.764457
 42
-0.076026
  0
VERTEX
  8
0
 10
53.198106
 20
113.015311
 42
-0.003260
  0
VERTEX
  8
0
 10
52.852134
 20
117.543309
 42
-0.005512
  0
VERTEX
  8
0
 10
52.535160
 20
122.935647
 42
-0.003892
  0
VERTEX
  8
0
 10
52.293030
 20
129.000000
 42
-0.005663
  0
VERTEX
  8
0
 10
52.110346
 20
137.783983
 42
-0.018412
  0
VERTEX
  8
0
 10
52.269605
 20
143.605055
 42
-0.022566
  0
VERTEX
  8
0
 10
52.833660
 20
148.745288
 42
-0.012401
  0
VERTEX
  8
0
 10
53.962166
 20
154.974443
 42
-0.029824
  0
VERTEX
  8
0
 10
57.938599
 20
169.705396
 42
-0.031644
  0
VERTEX
  8
0
 10
63.578059
 20
183.560627
 42
-0.033747
  0
VERTEX
  8
0
 10
70.442204
 20
195.624937
 42
-0.051165
  0
VERTEX
  8
0
 10
78.092101
 20
204.950681
 42
-0.043162
  0
VERTEX
  8
0
 10
83.465149
 20
209.433224
 42
-0.021354
  0
VERTEX
  8
0
 10
90.967921
 20
214.203356
 42
-0.021164
  0
VERTEX
  8
0
 10
99.129495
 20
218.465770
 42
-0.031629
  0
VERTEX
  8
0
 10
106.612978
 20
221.417801
 42
-0.021575
  0
VERTEX
  8
0
 10
115.134096
 20
223.770158
 42
-0.019577
  0
VERTEX
  8
0
 10
124.106113
 20
225.468325
 42
-0.021609
  0
VERTEX
  8
0
 10
130.990224
 20
226.191733
 42
-0.704541
  0
SEQEND
  0
POLYLINE
  8
0
 66
1
 70
1
  0
VERTEX
  8
0
 10
201.054219
 20
208.164297
 42
-0.039453
  0
VERTEX
  8
0
 10
211.040624
 20
200.625320
 42
-0.032724
  0
VERTEX
  8
0
 10
220.408466
 20
191.153191
 42
-0.031709
  0
VERTEX
  8
0
 10
228.753338
 20
180.199759
 42
-0.031310
  0
VERTEX
  8
0
 10
235.684946
 20
168.233886
 42
-0.004830
  0
VERTEX
  8
0
 10
237.803190
 20
163.879814
 42
-0.007835
  0
VERTEX
  8
0
 10
239.509139
 20
160.134974
 42
-0.002573
  0
VERTEX
  8
0
 10
240.899237
 20
156.907010
 42
-0.305749
  0
VERTEX
  8
0
 10
240.816954
 20
156.483620
 42
-0.429371
  0
VERTEX
  8
0
 10
240.486956
 20
156.492115
 42
-0.009458
  0
VERTEX
  8
0
 10
239.324578
 20
157.830828
 42
-0.015468
  0
VERTEX
  8
0
 10
237.953035
 20
159.579334
 42
-0.009078
  0
VERTEX
  8
0
 10
236.416401
 20
161.749734
 42
0.042371
  0
VERTEX
  8
0
 10
227.914450
 20
172.207446
 42
0.026614
  0
VERTEX
  8
0
 10
216.381598
 20
182.957449
 42
0.026043
  0
VERTEX
  8
0
 10
203.344106
 20
192.765910
 42
0.032435
  0
VERTEX
  8
0
 10
190.250000
 20
200.404013
 42
-0.004470
  0
VERTEX
  8
0
 10
187.470654
 20
201.823391
 42
-0.007183
  0
VERTEX
  8
0
 10
185.129687
 20
203.088524
 42
-0.002293
  0
VERTEX
  8
0
 10
183.143051
 20
204.211321
 42
-0.269181
  0
VERTEX
  8
0
 10
183.000000
 20
204.457782
 42
-0.253514
  0
VERTEX
  8
0
 10
183.643428
 20
205.645242
 42
-0.011567
  0
VERTEX
  8
0
 10
187.705278
 20
208.160975
 42
-0.016352
  0
VERTEX
  8
0
 10
191.828966
 20
210.406785
 42
-0.112608
  0
VERTEX
  8
0
 10
194.054219
 20
210.955413
 42
-0.075480
  0
VERTEX
  8
0
 10
195.335151
 20
210.783750
 42
-0.023884
  0
VERTEX
  8
0
 10
197.164085
 20
210.153915
 42
-0.023240
  0
VERTEX
  8
0
 10
199.164623
 20
209.246376
 42
-0.023861
  0
SEQEND
  0
POLYLINE
  8
0
 66
1
 70
1
  0
VERTEX
  8
0
 10
188.572580
 20
195.614383
 42
-0.041513
  0
VERTEX
  8
0
 10
205.299080
 20
185.597025
 42
-0.040339
  0
VERTEX
  8
0
 10
220.314239
 20
172.867117
 42
-0.040833
  0
VERTEX
  8
0
 10
232.921036
 20
158.060491
 42
-0.045115
  0
VERTEX
  8
0
 10
242.485700
 20
141.867689
 42
-0.065975
  0
VERTEX
  8
0
 10
246.120108
 20
130.584178
 42
-0.045349
  0
VERTEX
  8
0
 10
247.319139
 20
117.179502
 42
-0.042033
  0
VERTEX
  8
0
 10
246.074631
 20
102.649138
 42
-0.037834
  0
VERTEX
  8
0
 10
242.408971
 20
87.993329
 42
-0.005825
  0
VERTEX
  8
0
 10
240.922604
 20
83.687218
 42
-0.007494
  0
VERTEX
  8
0
 10
239.451290
 20
79.766568
 42
-0.005900
  0
VERTEX
  8
0
 10
238.134971
 20
76.525614
 42
-0.062896
  0
VERTEX
  8
0
 10
237.425602
 20
75.295890
 42
-0.054882
  0
VERTEX
  8
0
 10
236.681855
 20
74.511028
 42
-0.494834
  0
VERTEX
  8
0
 10
236.285342
 20
74.598190
 42
-0.102087
  0
VERTEX
  8
0
 10
236.081492
 20
75.461285
 42
-0.005457
  0
VERTEX
  8
0
 10
236.031803
 20
78.292158
 42
0.022052
  0
VERTEX
  8
0
 10
235.911456
 20
80.662312
 42
0.008466
  0
VERTEX
  8
0
 10
235.543516
 20
83.940799
 42
0.008364
  0
VERTEX
  8
0
 10
235.023735
 20
87.489933
 42
0.010190
  0
VERTEX
  8
0
 10
234.414209
 20
90.792158
 42
0.072976
  0
VERTEX
  8
0
 10
225.471442
 20
115.397903
 42
0.063976
  0
VERTEX
  8
0
 10
209.519856
 20
137.644333
 42
0.060738
  0
VERTEX
  8
0
 10
187.580195
 20
156.109648
 42
0.054379
  0
VERTEX
  8
0
 10
161.037417
 20
169.580570
 42
-0.007718
  0
VERTEX
  8
0
 10
157.772379
 20
170.871159
 42
-0.011612
  0
VERTEX
  8
0
 10
154.971172
 20
172.105625
 42
-0.006578
  0
VERTEX
  8
0
 10
152.680411
 20
173.216331
 42
-0.198659
  0
VERTEX
  8
0
 10
152.269998
 20
173.690006
 42
-0.232181
  0
VERTEX
  8
0
 10
152.542884
 20
175.706240
 42
-0.014198
  0
VERTEX
  8
0
 10
156.168452
 20
180.793321
 42
-0.019781
  0
VERTEX
  8
0
 10
160.877849
 20
186.532587
 42
-0.016513
  0
VERTEX
  8
0
 10
166.309042
 20
192.250000
 42
-0.008384
  0
VERTEX
  8
0
 10
170.289339
 20
196.042755
 42
-0.028311
  0
VERTEX
  8
0
 10
173.064005
 20
198.323013
 42
-0.044231
  0
VERTEX
  8
0
 10
175.180923
 20
199.600284
 42
-0.114113
  0
VERTEX
  8
0
 10
176.909526
 20
200.000000
 42
-0.078073
  0
VERTEX
  8
0
 10
178.477220
 20
199.753711
 42
-0.012004
  0
VERTEX
  8
0
 10
181.463997
 20
198.711725
 42
-0.013157
  0
VERTEX
  8
0
 10
184.954035
 20
197.293494
 42
-0.011083
  0
SEQEND
  0
POLYLINE
  8
0
 66
1
 70
1
  0
VERTEX
  8
0
 10
56.664277
 20
180.818533
 42
0.023433
  0
VERTEX
  8
0
 10
52.042723
 20
167.487149
 42
0.028010
  0
VERTEX
  8
0
 10
49.001498
 20
154.547329
 42
0.027833
  0
VERTEX
  8
0
 10
47.412574
 20
141.278637
 42
0.022625
  0
VERTEX
  8
0
 10
47.150634
 20
126.958489
 42
-0.004186
  0
VERTEX
  8
0
 10
47.242973
 20
121.989294
 42
-0.006986
  0
VERTEX
  8
0
 10
47.227232
 20
117.806099
 42
-0.001953
  0
VERTEX
  8
0
 10
47.149671
 20
114.222537
 42
-0.406957
  0
VERTEX
  8
0
 10
46.920794
 20
113.999591
 42
-0.138799
  0
VERTEX
  8
0
 10
46.531710
 20
114.110018
 42
-0.003314
  0
VERTEX
  8
0
 10
44.919372
 20
115.118640
 42
-0.007023
  0
VERTEX
  8
0
 10
43.040066
 20
116.349040
 42
-0.004683
  0
VERTEX
  8
0
 10
40.920794
 20
117.808546
 42
0.000000
  0
VERTEX
  8
0
 10
35.500000
 20
121.617092
 42
0.000000
  0
VERTEX
  8
0
 10
35.674663
 20
130.558546
 42
-0.028652
  0
VERTEX
  8
0
 10
36.303912
 20
138.733552
 42
-0.027783
  0
VERTEX
  8
0
 10
37.865681
 20
146.869057
 42
-0.026550
  0
VERTEX
  8
0
 10
40.402725
 20
155.120235
 42
-0.021713
  0
VERTEX
  8
0
 10
43.954074
 20
163.643070
 42
-0.019959
  0
VERTEX
  8
0
 10
47.504739
 20
170.494362
 42
-0.009819
  0
VERTEX
  8
0
 10
52.533086
 20
178.927054
 42
-0.002819
  0
VERTEX
  8
0
 10
57.882772
 20
187.403987
 42
-0.479235
  0
VERTEX
  8
0
 10
58.826632
 20
187.506701
 42
-0.276664
  0
VERTEX
  8
0
 10
58.906049
 20
187.189836
 42
-0.004613
  0
VERTEX
  8
0
 10
58.342684
 20
185.390809
 42
-0.010414
  0
VERTEX
  8
0
 10
57.607261
 20
183.268212
 42
-0.006551
  0
SEQEND
  0
POLYLINE
  8
0
 66
1
 70
1
  0
VERTEX
  8
0
 10
161.453436
 20
164.120730
 42
-0.040096
  0
VERTEX
  8
0
 10
181.774352
 20
153.646190
 42
-0.042751
  0
VERTEX
  8
0
 10
199.700976
 20
140.256221
 42
-0.045209
  0
VERTEX
  8
0
 10
214.155053
 20
124.847941
 42
-0.059421
  0
VERTEX
  8
0
 10
224.132894
 20
108.367181
 42
-0.028307
  0
VERTEX
  8
0
 10
226.955202
 20
101.071107
 42
-0.031481
  0
VERTEX
  8
0
 10
228.819784
 20
93.755312
 42
-0.027912
  0
VERTEX
  8
0
 10
229.899048
 20
85.551620
 42
-0.015648
  0
VERTEX
  8
0
 10
230.338636
 20
75.500000
 42
0.000000
  0
VERTEX
  8
0
 10
230.500000
 20
62.500000
 42
0.000000
  0
VERTEX
  8
0
 10
227.362332
 20
57.983094
 42
-0.035787
  0
VERTEX
  8
0
 10
220.771091
 20
49.810081
 42
-0.017909
  0
VERTEX
  8
0
 10
211.371817
 20
40.422628
 42
-0.008975
  0
VERTEX
  8
0
 10
201.722688
 20
31.769946
 42
-0.327685
  0
VERTEX
  8
0
 10
198.924961
 20
31.546376
 42
-0.228112
  0
VERTEX
  8
0
 10
198.556647
 20
32.122681
 42
-0.007907
  0
VERTEX
  8
0
 10
198.271707
 20
34.844433
 42
-0.013354
  0
VERTEX
  8
0
 10
198.066969
 20
38.153679
 42
-0.008771
  0
VERTEX
  8
0
 10
198.000000
 20
41.971049
 42
0.064379
  0
VERTEX
  8
0
 10
194.953119
 20
65.536479
 42
0.069115
  0
VERTEX
  8
0
 10
186.022777
 20
86.946243
 42
0.070760
  0
VERTEX
  8
0
 10
171.825208
 20
104.703082
 42
0.072836
  0
VERTEX
  8
0
 10
153.367610
 20
117.593181
 42
-0.016525
  0
VERTEX
  8
0
 10
146.194118
 20
121.486576
 42
-0.129836
  0
VERTEX
  8
0
 10
143.544784
 20
124.152566
 42
-0.116669
  0
VERTEX
  8
0
 10
142.420983
 20
127.894595
 42
-0.012267
  0
VERTEX
  8
0
 10
142.099680
 20
137.090037
 42
-0.035205
  0
VERTEX
  8
0
 10
142.724904
 20
147.499997
 42
-0.034591
  0
VERTEX
  8
0
 10
144.804126
 20
157.782239
 42
-0.031894
  0
VERTEX
  8
0
 10
147.652045
 20
166.030862
 42
-0.302388
  0
VERTEX
  8
0
 10
150.610308
 20
168.000000
 42
-0.080833
  0
VERTEX
  8
0
 10
151.619866
 20
167.835714
 42
-0.005235
  0
VERTEX
  8
0
 10
154.438543
 20
166.860465
 42
-0.007522
  0
VERTEX
  8
0
 10
157.783616
 20
165.606646
 42
-0.005532
  0
SEQEND
  0
POLYLINE
  8
0
 66
1
 70
1
  0
VERTEX
  8
0
 10
150.000000
 20
113.928397
 42
-0.031012
  0
VERTEX
  8
0
 10
156.565244
 20
110.313976
 42
-0.022201
  0
VERTEX
  8
0
 10
163.438577
 20
105.513596
 42
-0.022366
  0
VERTEX
  8
0
 10
169.772298
 20
100.192021
 42
-0.034520
  0
VERTEX
  8
0
 10
174.688162
 20
95.002072
 42
0.000000
  0
VERTEX
  8
0
 10
179.219064
 20
89.504144
 42
0.000000
  0
VERTEX
  8
0
 10
174.359532
 20
85.215658
 42
-0.036681
  0
VERTEX
  8
0
 10
161.143987
 20
75.174823
 42
-0.029241
  0
VERTEX
  8
0
 10
145.585336
 20
66.309191
 42
-0.029626
  0
VERTEX
  8
0
 10
129.391338
 20
59.458068
 42
-0.042111
  0
VERTEX
  8
0
 10
114.281108
 20
55.489790
 42
-0.041209
  0
VERTEX
  8
0
 10
98.108177
 20
54.025757
 42
-0.050064
  0
VERTEX
  8
0
 10
82.962068
 20
55.425269
 42
-0.049600
  0
VERTEX
  8
0
 10
68.282711
 20
59.826625
 42
-0.039303
  0
VERTEX
  8
0
 10
53.500000
 20
67.316931
 42
-0.014315
  0
VERTEX
  8
0
 10
49.563621
 20
69.874488
 42
-0.048687
  0
VERTEX
  8
0
 10
47.230642
 20
71.847943
 42
-0.056577
  0
VERTEX
  8
0
 10
45.509262
 20
74.073446
 42
-0.024468
  0
VERTEX
  8
0
 10
43.722557
 20
77.372158
 42
-0.027387
  0
VERTEX
  8
0
 10
40.895036
 20
84.198096
 42
-0.017273
  0
VERTEX
  8
0
 10
38.317275
 20
92.431683
 42
-0.017311
  0
VERTEX
  8
0
 10
36.326663
 20
100.773492
 42
-0.028833
  0
VERTEX
  8
0
 10
35.304839
 20
107.921987
 42
0.000000
  0
VERTEX
  8
0
 10
34.672392
 20
115.403830
 42
0.000000
  0
VERTEX
  8
0
 10
38.086196
 20
113.132422
 42
0.027419
  0
VERTEX
  8
0
 10
43.775293
 20
109.781695
 42
0.014056
  0
VERTEX
  8
0
 10
51.234786
 20
106.184452
 42
0.014049
  0
VERTEX
  8
0
 10
58.958693
 20
102.981203
 42
0.025031
  0
VERTEX
  8
0
 10
65.500000
 20
100.849848
 42
0.019726
  0
VERTEX
  8
0
 10
70.301932
 20
99.748359
 42
0.022543
  0
VERTEX
  8
0
 10
74.966997
 20
99.086384
 42
0.016877
  0
VERTEX
  8
0
 10
80.661000
 20
98.732158
 42
0.005648
  0
VERTEX
  8
0
 10
89.000000
 20
98.589693
 42
0.004808
  0
VERTEX
  8
0
 10
97.887782
 20
98.623722
 42
0.021034
  0
VERTEX
  8
0
 10
103.133457
 20
98.915185
 42
0.030783
  0
VERTEX
  8
0
 10
107.311693
 20
99.585664
 42
0.020472
  0
VERTEX
  8
0
 10
112.000000
 20
100.840878
 42
0.020589
  0
VERTEX
  8
0
 10
118.507085
 20
103.169864
 42
0.022881
  0
VERTEX
  8
0
 10
124.569862
 20
105.955055
 42
0.023425
  0
VERTEX
  8
0
 10
130.222081
 20
109.215613
 42
0.023967
  0
VERTEX
  8
0
 10
135.500000
 20
112.967651
 42
-0.012845
  0
VERTEX
  8
0
 10
137.524366
 20
114.475616
 42
-0.016297
  0
VERTEX
  8
0
 10
139.471875
 20
115.757007
 42
-0.014363
  0
VERTEX
  8
0
 10
141.146653
 20
116.717343
 42
-0.114937
  0
VERTEX
  8
0
 10
142.000000
 20
116.947137
 42
-0.089716
  0
VERTEX
  8
0
 10
142.912881
 20
116.814042
 42
-0.009274
  0
VERTEX
  8
0
 10
144.968750
 20
116.081537
 42
-0.011301
  0
VERTEX
  8
0
 10
147.401168
 20
115.100327
 42
-0.008807
  0
SEQEND
  0
POLYLINE
  8
0
 66
1
 70
1
  0
VERTEX
  8
0
 10
185.531886
 20
77.750000
 42
-0.026455
  0
VERTEX
  8
0
 10
187.809223
 20
71.860336
 42
-0.010531
  0
VERTEX
  8
0
 10
190.328378
 20
63.570033
 42
-0.008858
  0
VERTEX
  8
0
 10
192.458415
 20
55.439594
 42
-0.057468
  0
VERTEX
  8
0
 10
192.979956
 20
51.244892
 42
-0.251189
  0
VERTEX
  8
0
 10
190.541363
 20
46.598373
 42
-0.016997
  0
VERTEX
  8
0
 10
177.453749
 20
38.369317
 42
-0.024377
  0
VERTEX
  8
0
 10
162.550297
 20
30.637526
 42
-0.038047
  0
VERTEX
  8
0
 10
148.993291
 20
25.630894
 42
-0.030073
  0
VERTEX
  8
0
 10
135.366755
 20
22.618319
 42
-0.031231
  0
VERTEX
  8
0
 10
121.648565
 20
21.310974
 42
-0.033156
  0
VERTEX
  8
0
 10
108.813814
 20
21.743867
 42
-0.050114
  0
VERTEX
  8
0
 10
97.865086
 20
23.964958
 42
-0.041748
  0
VERTEX
  8
0
 10
91.056023
 20
26.714147
 42
-0.022862
  0
VERTEX
  8
0
 10
83.209782
 20
31.132962
 42
-0.022022
  0
VERTEX
  8
0
 10
75.300384
 20
36.574960
 42
-0.025061
  0
VERTEX
  8
0
 10
68.248894
 20
42.475903
 42
-0.017667
  0
VERTEX
  8
0
 10
63.232652
 20
47.460586
 42
-0.015431
  0
VERTEX
  8
0
 10
58.340987
 20
53.011341
 42
-0.007073
  0
VERTEX
  8
0
 10
54.087331
 20
58.299958
 42
-0.378863
  0
VERTEX
  8
0
 10
54.160349
 20
59.493683
 42
-0.281234
  0
VERTEX
  8
0
 10
54.512540
 20
59.578785
 42
-0.003147
  0
VERTEX
  8
0
 10
56.930685
 20
58.784119
 42
-0.008552
  0
VERTEX
  8
0
 10
59.754209
 20
57.782451
 42
-0.005331
  0
VERTEX
  8
0
 10
63.030018
 20
56.516884
 42
0.021310
  0
VERTEX
  8
0
 10
72.287007
 20
53.276452
 42
0.028872
  0
VERTEX
  8
0
 10
80.899199
 20
51.201921
 42
0.027835
  0
VERTEX
  8
0
 10
89.935278
 20
50.084886
 42
0.017861
  0
VERTEX
  8
0
 10
100.500000
 20
49.750692
 42
0.008038
  0
VERTEX
  8
0
 10
107.590599
 20
49.893731
 42
0.019166
  0
VERTEX
  8
0
 10
112.843344
 20
50.286166
 42
0.021785
  0
VERTEX
  8
0
 10
117.632398
 20
51.041643
 42
0.013734
  0
VERTEX
  8
0
 10
123.148337
 20
52.318574
 42
0.028518
  0
VERTEX
  8
0
 10
136.124729
 20
56.503610
 42
0.025688
  0
VERTEX
  8
0
 10
149.014821
 20
62.265633
 42
0.025413
  0
VERTEX
  8
0
 10
161.389019
 20
69.392530
 42
0.026341
  0
VERTEX
  8
0
 10
172.822938
 20
77.659880
 42
-0.006053
  0
VERTEX
  8
0
 10
175.845247
 20
80.037618
 42
-0.008806
  0
VERTEX
  8
0
 10
178.571935
 20
82.054559
 42
-0.005065
  0
VERTEX
  8
0
 10
180.901395
 20
83.679674
 42
-0.133904
  0
VERTEX
  8
0
 10
181.613436
 20
83.925782
 42
-0.255807
  0
VERTEX
  8
0
 10
182.183336
 20
83.661432
 42
-0.017556
  0
VERTEX
  8
0
 10
183.223773
 20
82.142261
 42
-0.021597
  0
VERTEX
  8
0
 10
184.376304
 20
80.139572
 42
-0.014291
  0
SEQEND
  0
POLYLINE
  8
0
 66
1
 70
1
  0
VERTEX
  8
0
 10
193.553304
 20
31.432442
 42
-0.100380
  0
VERTEX
  8
0
 10
192.261460
 20
28.249343
 42
-0.087642
  0
VERTEX
  8
0
 10
189.780677
 20
25.641645
 42
-0.056148
  0
VERTEX
  8
0
 10
185.590264
 20
23.223873
 42
-0.016971
  0
VERTEX
  8
0
 10
178.749838
 20
20.513884
 42
-0.030023
  0
VERTEX
  8
0
 10
166.482979
 20
16.943472
 42
-0.026588
  0
VERTEX
  8
0
 10
153.369178
 20
14.691784
 42
-0.027139
  0
VERTEX
  8
0
 10
140.421386
 20
13.879972
 42
-0.036158
  0
VERTEX
  8
0
 10
128.662608
 20
14.632766
 42
-0.023088
  0
VERTEX
  8
0
 10
125.385545
 20
15.237166
 42
-0.341491
  0
VERTEX
  8
0
 10
124.692682
 20
16.086829
 42
-0.393236
  0
VERTEX
  8
0
 10
125.358513
 20
16.840830
 42
-0.024528
  0
VERTEX
  8
0
 10
128.601175
 20
17.000000
 42
0.062416
  0
VERTEX
  8
0
 10
141.018926
 20
18.556203
 42
0.025499
  0
VERTEX
  8
0
 10
157.293509
 20
23.596383
 42
0.025453
  0
VERTEX
  8
0
 10
173.737596
 20
30.591734
 42
0.039643
  0
VERTEX
  8
0
 10
187.000000
 20
38.404340
 42
0.000000
  0
VERTEX
  8
0
 10
193.500000
 20
42.962757
 42
0.000000
  0
VERTEX
  8
0
 10
193.818614
 20
38.753889
 42
-0.016181
  0
VERTEX
  8
0
 10
193.898101
 20
36.914893
 42
-0.011765
  0
VERTEX
  8
0
 10
193.872107
 20
34.867056
 42
-0.011908
  0
VERTEX
  8
0
 10
193.755271
 20
32.923319
 42
-0.025404
  0
SEQEND
  0
ENDSEC
  0
EOF
