  0
SECTION
  2
HEADER
  9
$ACADVER
  1
AC1006
  9
$EXTMIN
 10
0.000000
 20
0.000000
 30
0.000000
  9
$EXTMAX
 10
1596.000000
 20
706.000000
 30
0.000000
  0
ENDSEC
  0
SECTION
  2
ENTITIES
  0
POLYLINE
  8
0
 66
1
 70
1
  0
VERTEX
  8
0
 10
1346.250000
 20
627.252282
 42
0.000000
  0
VERTEX
  8
0
 10
1332.000000
 20
626.945087
 42
0.000000
  0
VERTEX
  8
0
 10
1332.000000
 20
610.033816
 42
0.000000
  0
VERTEX
  8
0
 10
1332.000000
 20
593.122546
 42
0.000000
  0
VERTEX
  8
0
 10
1336.250000
 20
592.600239
 42
0.001787
  0
VERTEX
  8
0
 10
1338.705803
 20
592.307339
 42
0.000311
  0
VERTEX
  8
0
 10
1343.341312
 20
591.774197
 42
0.000338
  0
VERTEX
  8
0
 10
1348.780614
 20
591.155768
 42
0.000303
  0
VERTEX
  8
0
 10
1354.422551
 20
590.521632
 42
-0.013374
  0
VERTEX
  8
0
 10
1368.857006
 20
588.515937
 42
-0.037707
  0
VERTEX
  8
0
 10
1378.744399
 20
586.094298
 42
-0.052446
  0
VERTEX
  8
0
 10
1386.114358
 20
582.799826
 42
-0.058751
  0
VERTEX
  8
0
 10
1392.334734
 20
578.143975
 42
-0.065271
  0
VERTEX
  8
0
 10
1396.966835
 20
572.422209
 42
-0.057047
  0
VERTEX
  8
0
 10
1400.222004
 20
565.439323
 42
-0.042914
  0
VERTEX
  8
0
 10
1402.443856
 20
556.219196
 42
-0.017561
  0
VERTEX
  8
0
 10
1403.930494
 20
543.413888
 42
-0.019172
  0
VERTEX
  8
0
 10
1404.976147
 20
518.603906
 42
-0.000205
  0
VERTEX
  8
0
 10
1405.553884
 20
347.317273
 42
-0.000184
  0
VERTEX
  8
0
 10
1406.001167
 20
175.011681
 42
-0.021525
  0
VERTEX
  8
0
 10
1405.088453
 20
152.662400
 42
-0.023478
  0
VERTEX
  8
0
 10
1402.913748
 20
136.132152
 42
-0.067139
  0
VERTEX
  8
0
 10
1399.364553
 20
125.121781
 42
-0.091607
  0
VERTEX
  8
0
 10
1393.794837
 20
117.460513
 42
-0.075740
  0
VERTEX
  8
0
 10
1385.500000
 20
111.684255
 42
-0.036341
  0
VERTEX
  8
0
 10
1379.542848
 20
109.274147
 42
-0.024207
  0
VERTEX
  8
0
 10
1372.429724
 20
107.356067
 42
-0.017871
  0
VERTEX
  8
0
 10
1363.189699
 20
105.681862
 42
-0.007050
  0
VERTEX
  8
0
 10
1350.372592
 20
104.013893
 42
0.000005
  0
VERTEX
  8
0
 10
1343.885692
 20
103.262494
 42
0.000008
  0
VERTEX
  8
0
 10
1338.382886
 20
102.624946
 42
0.000001
  0
VERTEX
  8
0
 10
1333.451982
 20
102.053573
 42
0.000842
  0
VERTEX
  8
0
 10
1333.250000
 20
102.029823
 42
0.375413
  0
VERTEX
  8
0
 10
1333.147478
 20
101.916135
 42
0.000213
  0
VERTEX
  8
0
 10
1333.073437
 20
97.015011
 42
0.002292
  0
VERTEX
  8
0
 10
1333.017969
 20
91.520685
 42
0.001378
  0
VERTEX
  8
0
 10
1333.000000
 20
85.000000
 42
0.000000
  0
VERTEX
  8
0
 10
1333.000000
 20
68.000000
 42
0.000000
  0
VERTEX
  8
0
 10
1457.750000
 20
68.015313
 42
0.000608
  0
VERTEX
  8
0
 10
1505.672586
 20
68.079431
 42
0.000998
  0
VERTEX
  8
0
 10
1546.229398
 20
68.263928
 42
0.000075
  0
VERTEX
  8
0
 10
1582.645878
 20
68.507741
 42
0.140576
  0
VERTEX
  8
0
 10
1583.775611
 20
68.840158
 42
0.221989
  0
VERTEX
  8
0
 10
1584.416501
 20
69.843539
 42
0.018374
  0
VERTEX
  8
0
 10
1584.717230
 20
73.007097
 42
0.015099
  0
VERTEX
  8
0
 10
1584.853656
 20
77.906941
 42
0.003610
  0
VERTEX
  8
0
 10
1584.775611
 20
86.052644
 42
0.000000
  0
VERTEX
  8
0
 10
1584.500000
 20
102.455597
 42
0.000000
  0
VERTEX
  8
0
 10
1580.000000
 20
103.113202
 42
0.005531
  0
VERTEX
  8
0
 10
1577.566294
 20
103.441398
 42
0.001388
  0
VERTEX
  8
0
 10
1573.590625
 20
103.921626
 42
0.001417
  0
VERTEX
  8
0
 10
1569.041406
 20
104.445260
 42
0.001427
  0
VERTEX
  8
0
 10
1564.500000
 20
104.941839
 42
-0.032132
  0
VERTEX
  8
0
 10
1539.090174
 20
109.311462
 42
-0.123316
  0
VERTEX
  8
0
 10
1524.968424
 20
116.662252
 42
-0.142229
  0
VERTEX
  8
0
 10
1517.085453
 20
129.155038
 42
-0.048170
  0
VERTEX
  8
0
 10
1513.111406
 20
150.500000
 42
-0.021519
  0
VERTEX
  8
0
 10
1512.006217
 20
175.166054
 42
-0.000203
  0
VERTEX
  8
0
 10
1511.763610
 20
356.354412
 42
-0.000096
  0
VERTEX
  8
0
 10
1511.624882
 20
543.181032
 42
-0.047108
  0
VERTEX
  8
0
 10
1512.733786
 20
554.994353
 42
-0.063963
  0
VERTEX
  8
0
 10
1518.243614
 20
571.875268
 42
-0.136595
  0
VERTEX
  8
0
 10
1527.161591
 20
582.151471
 42
-0.098342
  0
VERTEX
  8
0
 10
1542.214580
 20
588.312336
 42
-0.023715
  0
VERTEX
  8
0
 10
1569.000000
 20
592.223786
 42
0.000000
  0
VERTEX
  8
0
 10
1582.500000
 20
593.545342
 42
0.000000
  0
VERTEX
  8
0
 10
1582.773614
 20
610.772671
 42
0.000000
  0
VERTEX
  8
0
 10
1583.047228
 20
628.000000
 42
0.000000
  0
VERTEX
  8
0
 10
1471.773614
 20
627.779738
 42
0.000233
  0
VERTEX
  8
0
 10
1428.109945
 20
627.673003
 42
0.000323
  0
VERTEX
  8
0
 10
1389.000687
 20
627.533940
 42
0.000197
  0
VERTEX
  8
0
 10
1356.067588
 20
627.382587
 42
0.004141
  0
SEQEND
  0
POLYLINE
  8
0
 66
1
 70
1
  0
VERTEX
  8
0
 10
823.226400
 20
626.250024
 42
0.000000
  0
VERTEX
  8
0
 10
675.952801
 20
625.993375
 42
0.000000
  0
VERTEX
  8
0
 10
676.226400
 20
608.746688
 42
0.000000
  0
VERTEX
  8
0
 10
676.500000
 20
591.500000
 42
0.000000
  0
VERTEX
  8
0
 10
683.500000
 20
590.742130
 42
-0.052938
  0
VERTEX
  8
0
 10
704.774626
 20
586.126924
 42
-0.069445
  0
VERTEX
  8
0
 10
722.586359
 20
577.344893
 42
-0.083329
  0
VERTEX
  8
0
 10
734.805977
 20
565.660464
 42
-0.140608
  0
VERTEX
  8
0
 10
739.791561
 20
552.499961
 42
-0.055950
  0
VERTEX
  8
0
 10
739.592552
 20
545.650198
 42
-0.015896
  0
VERTEX
  8
0
 10
737.759967
 20
535.139466
 42
-0.009049
  0
VERTEX
  8
0
 10
734.029224
 20
518.650101
 42
-0.001681
  0
VERTEX
  8
0
 10
726.524155
 20
488.500000
 42
-0.002113
  0
VERTEX
  8
0
 10
717.454784
 20
453.210342
 42
-0.001931
  0
VERTEX
  8
0
 10
707.814189
 20
416.918036
 42
-0.001850
  0
VERTEX
  8
0
 10
697.480446
 20
379.168934
 42
-0.001585
  0
VERTEX
  8
0
 10
686.327651
 20
339.500000
 42
-0.001795
  0
VERTEX
  8
0
 10
676.949648
 20
306.989022
 42
-0.001173
  0
VERTEX
  8
0
 10
665.910336
 20
269.554850
 42
-0.000084
  0
VERTEX
  8
0
 10
654.272903
 20
230.455136
 42
-0.124625
  0
VERTEX
  8
0
 10
653.512518
 20
229.179185
 42
-0.542701
  0
VERTEX
  8
0
 10
652.929565
 20
229.302856
 42
-0.002652
  0
VERTEX
  8
0
 10
650.376308
 20
236.045204
 42
-0.001650
  0
VERTEX
  8
0
 10
645.538688
 20
249.159455
 42
-0.000030
  0
VERTEX
  8
0
 10
620.041994
 20
319.000000
 42
0.000131
  0
VERTEX
  8
0
 10
599.575753
 20
375.025840
 42
0.000113
  0
VERTEX
  8
0
 10
578.004905
 20
433.986191
 42
0.000091
  0
VERTEX
  8
0
 10
552.490882
 20
503.636510
 42
0.000043
  0
VERTEX
  8
0
 10
519.545067
 20
593.500000
 42
0.000000
  0
VERTEX
  8
0
 10
510.377105
 20
618.500000
 42
0.000000
  0
VERTEX
  8
0
 10
489.308865
 20
618.769538
 42
0.000000
  0
VERTEX
  8
0
 10
468.240624
 20
619.039075
 42
0.000000
  0
VERTEX
  8
0
 10
467.757936
 20
616.769538
 42
-0.024366
  0
VERTEX
  8
0
 10
466.910916
 20
613.563340
 42
-0.000021
  0
VERTEX
  8
0
 10
442.723905
 20
537.281189
 42
-0.000260
  0
VERTEX
  8
0
 10
420.815826
 20
468.321132
 42
-0.000749
  0
VERTEX
  8
0
 10
405.517107
 20
420.500000
 42
0.000351
  0
VERTEX
  8
0
 10
400.871448
 20
406.018210
 42
0.000075
  0
VERTEX
  8
0
 10
392.818280
 20
380.840625
 42
0.000078
  0
VERTEX
  8
0
 10
383.495631
 20
351.663330
 42
0.000074
  0
VERTEX
  8
0
 10
374.027669
 20
322.000000
 42
-0.000124
  0
VERTEX
  8
0
 10
353.520074
 20
257.771362
 42
-0.003358
  0
VERTEX
  8
0
 10
347.967308
 20
240.789503
 42
-0.006732
  0
VERTEX
  8
0
 10
344.960561
 20
232.185785
 42
-0.642429
  0
VERTEX
  8
0
 10
343.964484
 20
232.106869
 42
-0.054582
  0
VERTEX
  8
0
 10
343.466327
 20
233.289298
 42
-0.000036
  0
VERTEX
  8
0
 10
333.415565
 20
267.018893
 42
-0.000445
  0
VERTEX
  8
0
 10
322.251571
 20
304.616596
 42
-0.000272
  0
VERTEX
  8
0
 10
309.141880
 20
349.000000
 42
0.000104
  0
VERTEX
  8
0
 10
295.144879
 20
396.446104
 42
0.000107
  0
VERTEX
  8
0
 10
281.242977
 20
443.496875
 42
0.000103
  0
VERTEX
  8
0
 10
269.160923
 20
484.325418
 42
0.000449
  0
VERTEX
  8
0
 10
261.978110
 20
508.500000
 42
-0.001149
  0
VERTEX
  8
0
 10
254.427236
 20
534.044328
 42
-0.008803
  0
VERTEX
  8
0
 10
251.120802
 20
546.108121
 42
-0.018119
  0
VERTEX
  8
0
 10
249.546850
 20
553.361979
 42
-0.064966
  0
VERTEX
  8
0
 10
249.321330
 20
558.087850
 42
-0.037943
  0
VERTEX
  8
0
 10
250.074631
 20
562.818364
 42
-0.056466
  0
VERTEX
  8
0
 10
251.497332
 20
566.757657
 42
-0.052867
  0
VERTEX
  8
0
 10
253.844150
 20
570.459410
 42
-0.028692
  0
VERTEX
  8
0
 10
257.433302
 20
574.485934
 42
-0.070402
  0
VERTEX
  8
0
 10
264.490907
 20
579.793773
 42
-0.038334
  0
VERTEX
  8
0
 10
274.377049
 20
584.299372
 42
-0.034485
  0
VERTEX
  8
0
 10
286.201354
 20
587.725763
 42
-0.028435
  0
VERTEX
  8
0
 10
299.173702
 20
589.769377
 42
0.010959
  0
VERTEX
  8
0
 10
302.417777
 20
590.164874
 42
0.031081
  0
VERTEX
  8
0
 10
304.648255
 20
590.629506
 42
0.044055
  0
VERTEX
  8
0
 10
306.054532
 20
591.151732
 42
0.311255
  0
VERTEX
  8
0
 10
306.400000
 20
591.750000
 42
-0.016039
  0
VERTEX
  8
0
 10
306.355890
 20
592.672971
 42
-0.000320
  0
VERTEX
  8
0
 10
306.285313
 20
597.365177
 42
-0.000761
  0
VERTEX
  8
0
 10
306.214728
 20
602.846140
 42
-0.000511
  0
VERTEX
  8
0
 10
306.150000
 20
609.110176
 42
0.000000
  0
VERTEX
  8
0
 10
306.000000
 20
625.220353
 42
0.000000
  0
VERTEX
  8
0
 10
184.750000
 20
624.491427
 42
0.000248
  0
VERTEX
  8
0
 10
138.232116
 20
624.188668
 42
0.000412
  0
VERTEX
  8
0
 10
99.011732
 20
623.881572
 42
0.000010
  0
VERTEX
  8
0
 10
63.486496
 20
623.573373
 42
0.183226
  0
VERTEX
  8
0
 10
63.141003
 20
623.438921
 42
0.217500
  0
VERTEX
  8
0
 10
63.002809
 20
623.120012
 42
0.000614
  0
VERTEX
  8
0
 10
63.100844
 20
618.372925
 42
0.003433
  0
VERTEX
  8
0
 10
63.255781
 20
612.984198
 42
0.002118
  0
VERTEX
  8
0
 10
63.508415
 20
606.647370
 42
0.000000
  0
VERTEX
  8
0
 10
64.234825
 20
590.179400
 42
0.000000
  0
VERTEX
  8
0
 10
71.367412
 20
589.478028
 42
-0.051465
  0
VERTEX
  8
0
 10
92.056499
 20
585.265683
 42
-0.062495
  0
VERTEX
  8
0
 10
110.042902
 20
577.048856
 42
-0.067144
  0
VERTEX
  8
0
 10
124.410145
 20
565.252787
 42
-0.075624
  0
VERTEX
  8
0
 10
134.466534
 20
550.500000
 42
-0.032996
  0
VERTEX
  8
0
 10
136.551582
 20
545.300601
 42
-0.000880
  0
VERTEX
  8
0
 10
144.186449
 20
521.762500
 42
-0.001836
  0
VERTEX
  8
0
 10
153.011013
 20
494.044436
 42
-0.001256
  0
VERTEX
  8
0
 10
162.839349
 20
462.500000
 42
-0.000027
  0
VERTEX
  8
0
 10
174.527654
 20
424.644250
 42
-0.000014
  0
VERTEX
  8
0
 10
189.159711
 20
377.240625
 42
-0.000014
  0
VERTEX
  8
0
 10
204.212887
 20
328.463115
 42
-0.000021
  0
VERTEX
  8
0
 10
217.314161
 20
286.000000
 42
0.000094
  0
VERTEX
  8
0
 10
230.119505
 20
244.517727
 42
0.000071
  0
VERTEX
  8
0
 10
244.249073
 20
198.799272
 42
0.000071
  0
VERTEX
  8
0
 10
257.571893
 20
155.734537
 42
0.000163
  0
VERTEX
  8
0
 10
267.637353
 20
123.252842
 42
0.000000
  0
VERTEX
  8
0
 10
288.500000
 20
56.005684
 42
0.000000
  0
VERTEX
  8
0
 10
310.541399
 20
56.002842
 42
0.000000
  0
VERTEX
  8
0
 10
332.582799
 20
56.000000
 42
0.000000
  0
VERTEX
  8
0
 10
348.365236
 20
104.250000
 42
-0.000373
  0
VERTEX
  8
0
 10
363.934312
 20
151.727783
 42
-0.000047
  0
VERTEX
  8
0
 10
397.585665
 20
254.056640
 42
-0.000056
  0
VERTEX
  8
0
 10
431.404165
 20
356.821911
 42
-0.000223
  0
VERTEX
  8
0
 10
452.234305
 20
420.000000
 42
-0.001151
  0
VERTEX
  8
0
 10
457.553153
 20
435.984239
 42
-0.022778
  0
VERTEX
  8
0
 10
459.417124
 20
440.803120
 42
-0.215425
  0
VERTEX
  8
0
 10
460.566793
 20
441.835718
 42
-0.389835
  0
VERTEX
  8
0
 10
461.627649
 20
441.341477
 42
-0.010271
  0
VERTEX
  8
0
 10
462.604788
 20
438.828465
 42
-0.000036
  0
VERTEX
  8
0
 10
473.697865
 20
408.460462
 42
-0.000195
  0
VERTEX
  8
0
 10
486.243112
 20
374.067819
 42
-0.000122
  0
VERTEX
  8
0
 10
500.887393
 20
333.841477
 42
0.000164
  0
VERTEX
  8
0
 10
541.112613
 20
223.375558
 42
0.000327
  0
VERTEX
  8
0
 10
573.037818
 20
135.969922
 42
0.000027
  0
VERTEX
  8
0
 10
600.650675
 20
60.536446
 42
0.044389
  0
VERTEX
  8
0
 10
601.843796
 20
58.000000
 42
0.226120
  0
VERTEX
  8
0
 10
603.046283
 20
57.181504
 42
0.025390
  0
VERTEX
  8
0
 10
606.425390
 20
56.835277
 42
0.014850
  0
VERTEX
  8
0
 10
612.242006
 20
56.709396
 42
0.002145
  0
VERTEX
  8
0
 10
624.109727
 20
56.855963
 42
0.001532
  0
VERTEX
  8
0
 10
632.337742
 20
57.018109
 42
0.002487
  0
VERTEX
  8
0
 10
639.327975
 20
57.212082
 42
0.000370
  0
VERTEX
  8
0
 10
645.520991
 20
57.419354
 42
0.182085
  0
VERTEX
  8
0
 10
645.879124
 20
57.568421
 42
0.131693
  0
VERTEX
  8
0
 10
646.094779
 20
57.916813
 42
0.000035
  0
VERTEX
  8
0
 10
651.262668
 20
75.089036
 42
0.000661
  0
VERTEX
  8
0
 10
656.968930
 20
94.146273
 42
0.000401
  0
VERTEX
  8
0
 10
663.673695
 20
116.712458
 42
-0.001447
  0
VERTEX
  8
0
 10
693.601742
 20
216.674702
 42
-0.002073
  0
VERTEX
  8
0
 10
720.755143
 20
305.099272
 42
-0.002290
  0
VERTEX
  8
0
 10
746.244099
 20
385.593594
 42
-0.002705
  0
VERTEX
  8
0
 10
771.117268
 20
461.500000
 42
-0.001257
  0
VERTEX
  8
0
 10
784.487007
 20
501.234331
 42
-0.006250
  0
VERTEX
  8
0
 10
792.332565
 20
523.442289
 42
-0.011064
  0
VERTEX
  8
0
 10
798.181691
 20
538.336040
 42
-0.018710
  0
VERTEX
  8
0
 10
803.815815
 20
550.500000
 42
-0.056229
  0
VERTEX
  8
0
 10
814.076604
 20
566.041733
 42
-0.067442
  0
VERTEX
  8
0
 10
827.006509
 20
577.853998
 42
-0.067340
  0
VERTEX
  8
0
 10
842.630679
 20
585.812177
 42
-0.055823
  0
VERTEX
  8
0
 10
860.841236
 20
589.981893
 42
-0.053309
  0
VERTEX
  8
0
 10
877.504679
 20
590.099270
 42
-0.052147
  0
VERTEX
  8
0
 10
893.945573
 20
586.703605
 42
-0.053095
  0
VERTEX
  8
0
 10
909.050032
 20
580.067427
 42
-0.059824
  0
VERTEX
  8
0
 10
921.765466
 20
570.608922
 42
-0.034436
  0
VERTEX
  8
0
 10
927.246677
 20
564.640683
 42
-0.037000
  0
VERTEX
  8
0
 10
931.713947
 20
558.111976
 42
-0.038717
  0
VERTEX
  8
0
 10
934.992182
 20
551.303204
 42
-0.047149
  0
VERTEX
  8
0
 10
936.927073
 20
544.500000
 42
-0.045565
  0
VERTEX
  8
0
 10
937.962023
 20
533.257310
 42
-0.000081
  0
VERTEX
  8
0
 10
938.069172
 20
343.905191
 42
-0.000099
  0
VERTEX
  8
0
 10
938.107727
 20
155.665912
 42
-0.037212
  0
VERTEX
  8
0
 10
937.089322
 20
142.000000
 42
-0.020704
  0
VERTEX
  8
0
 10
935.622151
 20
134.378460
 42
-0.029577
  0
VERTEX
  8
0
 10
933.648381
 20
127.781474
 42
-0.033920
  0
VERTEX
  8
0
 10
931.222429
 20
122.314861
 42
-0.055674
  0
VERTEX
  8
0
 10
928.380655
 20
118.131607
 42
-0.080861
  0
VERTEX
  8
0
 10
921.109700
 20
111.988958
 42
-0.063668
  0
VERTEX
  8
0
 10
911.653472
 20
107.845846
 42
-0.036123
  0
VERTEX
  8
0
 10
897.185098
 20
104.708052
 42
-0.007792
  0
VERTEX
  8
0
 10
871.750000
 20
101.492208
 42
0.000000
  0
VERTEX
  8
0
 10
866.000000
 20
100.856087
 42
0.000000
  0
VERTEX
  8
0
 10
866.000000
 20
83.924299
 42
0.000000
  0
VERTEX
  8
0
 10
866.000000
 20
66.992511
 42
0.000000
  0
VERTEX
  8
0
 10
995.750000
 20
67.246255
 42
0.000000
  0
VERTEX
  8
0
 10
1125.500000
 20
67.500000
 42
0.000000
  0
VERTEX
  8
0
 10
1125.772893
 20
84.582115
 42
0.000000
  0
VERTEX
  8
0
 10
1126.045786
 20
101.664231
 42
0.000000
  0
VERTEX
  8
0
 10
1107.574256
 20
103.399638
 42
-0.008062
  0
VERTEX
  8
0
 10
1092.194560
 20
105.095141
 42
-0.017609
  0
VERTEX
  8
0
 10
1080.490747
 20
106.997561
 42
-0.022834
  0
VERTEX
  8
0
 10
1071.412215
 20
109.238590
 42
-0.042475
  0
VERTEX
  8
0
 10
1064.355663
 20
111.996442
 42
-0.034672
  0
VERTEX
  8
0
 10
1059.613804
 20
114.754335
 42
-0.052748
  0
VERTEX
  8
0
 10
1055.976933
 20
117.826973
 42
-0.051657
  0
VERTEX
  8
0
 10
1053.011759
 20
121.642247
 42
-0.031642
  0
VERTEX
  8
0
 10
1050.306720
 20
126.662925
 42
-0.053938
  0
VERTEX
  8
0
 10
1047.058840
 20
136.361212
 42
-0.037472
  0
VERTEX
  8
0
 10
1045.439684
 20
147.811810
 42
-0.013798
  0
VERTEX
  8
0
 10
1044.702212
 20
167.225028
 42
-0.001111
  0
VERTEX
  8
0
 10
1044.285068
 20
218.376153
 42
0.000000
  0
VERTEX
  8
0
 10
1043.858597
 20
290.252306
 42
0.000000
  0
VERTEX
  8
0
 10
1046.179298
 20
289.682869
 42
0.019878
  0
VERTEX
  8
0
 10
1047.666399
 20
289.380076
 42
0.001876
  0
VERTEX
  8
0
 10
1051.343294
 20
288.796638
 42
0.002399
  0
VERTEX
  8
0
 10
1055.734934
 20
288.138229
 42
0.001886
  0
VERTEX
  8
0
 10
1060.500000
 20
287.465545
 42
0.029556
  0
VERTEX
  8
0
 10
1077.646604
 20
286.136164
 42
0.008460
  0
VERTEX
  8
0
 10
1104.317209
 20
286.099874
 42
0.008375
  0
VERTEX
  8
0
 10
1130.908607
 20
286.959301
 42
0.031145
  0
VERTEX
  8
0
 10
1147.554629
 20
288.820162
 42
0.046252
  0
VERTEX
  8
0
 10
1196.582916
 20
302.180117
 42
0.059013
  0
VERTEX
  8
0
 10
1238.180112
 20
323.644087
 42
0.063779
  0
VERTEX
  8
0
 10
1271.073315
 20
352.589051
 42
0.069960
  0
VERTEX
  8
0
 10
1294.418987
 20
388.060788
 42
0.045199
  0
VERTEX
  8
0
 10
1304.325332
 20
415.027205
 42
0.038967
  0
VERTEX
  8
0
 10
1309.844708
 20
444.713468
 42
0.038479
  0
VERTEX
  8
0
 10
1310.732248
 20
475.298410
 42
0.041227
  0
VERTEX
  8
0
 10
1306.846977
 20
504.943332
 42
0.026005
  0
VERTEX
  8
0
 10
1302.967367
 20
519.254679
 42
0.024393
  0
VERTEX
  8
0
 10
1297.553116
 20
533.402437
 42
0.024494
  0
VERTEX
  8
0
 10
1290.813614
 20
546.894759
 42
0.026824
  0
VERTEX
  8
0
 10
1282.969336
 20
559.244981
 42
0.029790
  0
VERTEX
  8
0
 10
1275.782353
 20
568.149509
 42
0.014883
  0
VERTEX
  8
0
 10
1265.716333
 20
578.563900
 42
0.014841
  0
VERTEX
  8
0
 10
1255.155587
 20
588.264355
 42
0.033065
  0
VERTEX
  8
0
 10
1246.453235
 20
594.841256
 42
0.043104
  0
VERTEX
  8
0
 10
1224.090640
 20
606.910827
 42
0.034739
  0
VERTEX
  8
0
 10
1198.328264
 20
616.004024
 42
0.030779
  0
VERTEX
  8
0
 10
1168.534740
 20
622.302121
 42
0.020818
  0
VERTEX
  8
0
 10
1134.000000
 20
625.947086
 42
0.011970
  0
VERTEX
  8
0
 10
1123.426623
 20
626.365872
 42
0.001677
  0
VERTEX
  8
0
 10
1101.561925
 20
626.634686
 42
0.001822
  0
VERTEX
  8
0
 10
1074.610297
 20
626.777412
 42
0.001246
  0
VERTEX
  8
0
 10
1044.000000
 20
626.751672
 42
-0.000202
  0
VERTEX
  8
0
 10
1005.957113
 20
626.640255
 42
-0.000063
  0
VERTEX
  8
0
 10
948.829005
 20
626.503251
 42
-0.000063
  0
VERTEX
  8
0
 10
885.001411
 20
626.366256
 42
-0.000069
  0
SEQEND
  0
POLYLINE
  8
0
 66
1
 70
1
  0
VERTEX
  8
0
 10
1110.012688
 20
586.438108
 42
-0.081857
  0
VERTEX
  8
0
 10
1141.705296
 20
574.840005
 42
-0.088575
  0
VERTEX
  8
0
 10
1167.023491
 20
553.907537
 42
-0.083225
  0
VERTEX
  8
0
 10
1184.650320
 20
524.312892
 42
-0.062574
  0
VERTEX
  8
0
 10
1193.898671
 20
487.500000
 42
-0.026023
  0
VERTEX
  8
0
 10
1195.088477
 20
470.312016
 42
-0.017357
  0
VERTEX
  8
0
 10
1194.740437
 20
450.575703
 42
-0.017419
  0
VERTEX
  8
0
 10
1193.035332
 20
431.066506
 42
-0.027799
  0
VERTEX
  8
0
 10
1190.079175
 20
414.596526
 42
-0.059380
  0
VERTEX
  8
0
 10
1179.040306
 20
384.523668
 42
-0.073964
  0
VERTEX
  8
0
 10
1161.808415
 20
360.288128
 42
-0.077352
  0
VERTEX
  8
0
 10
1138.975161
 20
342.906481
 42
-0.073312
  0
VERTEX
  8
0
 10
1111.521684
 20
332.888315
 42
-0.039247
  0
VERTEX
  8
0
 10
1097.612397
 20
331.139358
 42
-0.024366
  0
VERTEX
  8
0
 10
1081.149101
 20
331.173813
 42
-0.024320
  0
VERTEX
  8
0
 10
1064.697874
 20
332.815245
 42
-0.037892
  0
VERTEX
  8
0
 10
1050.813575
 20
335.975861
 42
0.000000
  0
VERTEX
  8
0
 10
1044.242312
 20
338.005518
 42
0.000000
  0
VERTEX
  8
0
 10
1043.523427
 20
419.252759
 42
-0.001187
  0
VERTEX
  8
0
 10
1043.101419
 20
484.444779
 42
-0.003353
  0
VERTEX
  8
0
 10
1043.220180
 20
529.985749
 42
-0.002016
  0
VERTEX
  8
0
 10
1043.672288
 20
563.858246
 42
-0.073771
  0
VERTEX
  8
0
 10
1044.941482
 20
571.496700
 42
-0.075663
  0
VERTEX
  8
0
 10
1047.138943
 20
575.899111
 42
-0.054763
  0
VERTEX
  8
0
 10
1050.773629
 20
580.014761
 42
-0.053193
  0
VERTEX
  8
0
 10
1055.349226
 20
583.362639
 42
-0.060694
  0
VERTEX
  8
0
 10
1060.335297
 20
585.495143
 42
-0.041570
  0
VERTEX
  8
0
 10
1070.890279
 20
587.632740
 42
-0.024441
  0
VERTEX
  8
0
 10
1083.746947
 20
588.506436
 42
-0.023691
  0
VERTEX
  8
0
 10
1097.295718
 20
588.121628
 42
-0.027933
  0
SEQEND
  0
ENDSEC
  0
EOF
